<svg version="1.1" xmlns="http://www.w3.org/2000/svg" xmlns:xlink="http://www.w3.org/1999/xlink" width="1000" height="600" style="width: 1000px; height: 600px;"><defs><clipPath id="TJNfnrEyldOx"><path fill="none" stroke="none" d=" M 49 32 L 995 32 L 995 551 L 49 551 L 49 32 Z"/></clipPath><clipPath id="aLlHXIprFbvh"><path fill="none" stroke="none" d=" M 49 32 L 995 32 L 995 551 L 49 551 L 49 32 Z"/></clipPath><clipPath id="xZlIWTcSZHve"><path fill="none" stroke="none" d=" M 49 32 L 995 32 L 995 551 L 49 551 L 49 32 Z"/></clipPath><clipPath id="tBJZOPcMyRXJ"><path fill="none" stroke="none" d=" M 49 32 L 995 32 L 995 551 L 49 551 L 49 32 Z"/></clipPath></defs><g><g transform="scale(1,1) translate(0.5,0.5)"><rect fill="#FFFFFF" stroke="none" x="0" y="0" width="1000" height="600"/><rect fill="#ffffff" stroke="none" x="0" y="0" width="1000" height="600"/><rect fill="#FFFFFF" stroke="none" x="49" y="32" width="946" height="519"/><rect fill="#ffffff" stroke="none" x="49" y="32" width="946" height="519"/><g><rect fill="none" stroke="#e5e5e5" x="49" y="32" width="946" height="519" stroke-linejoin="bevel" stroke-miterlimit="10"/></g><g clip-path="url(#TJNfnrEyldOx)"><g><g><path fill="none" stroke="#e5e5e5" paint-order="fill stroke markers" d=" M 101 551 L 101 32" stroke-linejoin="bevel" stroke-miterlimit="10"/><path fill="none" stroke="#e5e5e5" paint-order="fill stroke markers" d=" M 224 551 L 224 32" stroke-linejoin="bevel" stroke-miterlimit="10"/><path fill="none" stroke="#e5e5e5" paint-order="fill stroke markers" d=" M 347 551 L 347 32" stroke-linejoin="bevel" stroke-miterlimit="10"/><path fill="none" stroke="#e5e5e5" paint-order="fill stroke markers" d=" M 470 551 L 470 32" stroke-linejoin="bevel" stroke-miterlimit="10"/><path fill="none" stroke="#e5e5e5" paint-order="fill stroke markers" d=" M 593 551 L 593 32" stroke-linejoin="bevel" stroke-miterlimit="10"/><path fill="none" stroke="#e5e5e5" paint-order="fill stroke markers" d=" M 716 551 L 716 32" stroke-linejoin="bevel" stroke-miterlimit="10"/><path fill="none" stroke="#e5e5e5" paint-order="fill stroke markers" d=" M 839 551 L 839 32" stroke-linejoin="bevel" stroke-miterlimit="10"/><path fill="none" stroke="#e5e5e5" paint-order="fill stroke markers" d=" M 962 551 L 962 32" stroke-linejoin="bevel" stroke-miterlimit="10"/></g></g></g><g clip-path="url(#aLlHXIprFbvh)"><g><g><path fill="none" stroke="#e5e5e5" paint-order="fill stroke markers" d=" M 49 477 L 995 477" stroke-linejoin="bevel" stroke-miterlimit="10"/><path fill="none" stroke="#e5e5e5" paint-order="fill stroke markers" d=" M 49 371 L 995 371" stroke-linejoin="bevel" stroke-miterlimit="10"/><path fill="none" stroke="#e5e5e5" paint-order="fill stroke markers" d=" M 49 266 L 995 266" stroke-linejoin="bevel" stroke-miterlimit="10"/><path fill="none" stroke="#e5e5e5" paint-order="fill stroke markers" d=" M 49 161 L 995 161" stroke-linejoin="bevel" stroke-miterlimit="10"/><path fill="none" stroke="#e5e5e5" paint-order="fill stroke markers" d=" M 49 56 L 995 56" stroke-linejoin="bevel" stroke-miterlimit="10"/></g></g></g><g clip-path="url(#xZlIWTcSZHve)"><g><g><path fill="none" stroke="none"/><path fill="red" stroke="red" paint-order="fill stroke markers" d=" M 316.0653446763754 340.78658330517067 A 5 5 0 1 1 316.0653421763756 340.781583306004" stroke-linejoin="bevel" stroke-miterlimit="10"/><path fill="red" stroke="red" paint-order="fill stroke markers" d=" M 316.61679787933826 282.90554241297735 A 5 5 0 1 1 316.6167953793385 282.9005424138107" stroke-linejoin="bevel" stroke-miterlimit="10"/><path fill="red" stroke="red" paint-order="fill stroke markers" d=" M 214.81069742143154 409.8930381885772 A 5 5 0 1 1 214.81069492143175 409.8880381894105" stroke-linejoin="bevel" stroke-miterlimit="10"/><path fill="red" stroke="red" paint-order="fill stroke markers" d=" M 480.4694477766752 73.13061845217987 A 5 5 0 1 1 480.46944527667546 73.1256184530132" stroke-linejoin="bevel" stroke-miterlimit="10"/><path fill="blue" stroke="blue" paint-order="fill stroke markers" d=" M 618.0994963049889 55.59090909090912 A 5 5 0 1 1 618.099493804989 55.58590909174245" stroke-linejoin="bevel" stroke-miterlimit="10"/><path fill="red" stroke="red" paint-order="fill stroke markers" d=" M 177.12831124663353 502.8534978033118 A 5 5 0 1 1 177.12830874663373 502.84849780414515" stroke-linejoin="bevel" stroke-miterlimit="10"/><path fill="red" stroke="red" paint-order="fill stroke markers" d=" M 113.20819348096848 245.01977019263268 A 5 5 0 1 1 113.20819098096868 245.014770193466" stroke-linejoin="bevel" stroke-miterlimit="10"/><path fill="red" stroke="red" paint-order="fill stroke markers" d=" M 402.2373008877039 178.368874619804 A 5 5 0 1 1 402.23729838770413 178.36387462063732" stroke-linejoin="bevel" stroke-miterlimit="10"/><path fill="red" stroke="red" paint-order="fill stroke markers" d=" M 456.18010330200195 110.31480229807374 A 5 5 0 1 1 456.1801008020022 110.30980229890707" stroke-linejoin="bevel" stroke-miterlimit="10"/><path fill="red" stroke="red" paint-order="fill stroke markers" d=" M 571.9922715127468 497.59158499493066 A 5 5 0 1 1 571.992269012747 497.586584995764" stroke-linejoin="bevel" stroke-miterlimit="10"/><path fill="red" stroke="red" paint-order="fill stroke markers" d=" M 356.67720952630043 199.41652585332884 A 5 5 0 1 1 356.67720702630066 199.41152585416216" stroke-linejoin="bevel" stroke-miterlimit="10"/><path fill="red" stroke="red" paint-order="fill stroke markers" d=" M 352.112558811903 208.1863805339642 A 5 5 0 1 1 352.11255631190323 208.18138053479754" stroke-linejoin="bevel" stroke-miterlimit="10"/><path fill="red" stroke="red" paint-order="fill stroke markers" d=" M 336.9616599082947 197.66255491720176 A 5 5 0 1 1 336.9616574082949 197.6575549180351" stroke-linejoin="bevel" stroke-miterlimit="10"/><path fill="red" stroke="red" paint-order="fill stroke markers" d=" M 287.7968135327101 271.32933423453863 A 5 5 0 1 1 287.7968110327103 271.32433423537196" stroke-linejoin="bevel" stroke-miterlimit="10"/><path fill="red" stroke="red" paint-order="fill stroke markers" d=" M 425.9330615848303 215.2022642784725 A 5 5 0 1 1 425.9330590848305 215.19726427930584" stroke-linejoin="bevel" stroke-miterlimit="10"/><path fill="red" stroke="red" paint-order="fill stroke markers" d=" M 446.233220487833 171.35299087529575 A 5 5 0 1 1 446.23321798783326 171.34799087612907" stroke-linejoin="bevel" stroke-miterlimit="10"/><path fill="red" stroke="red" paint-order="fill stroke markers" d=" M 179.86835430562496 279.7483947279486 A 5 5 0 1 1 179.86835180562517 279.74339472878194" stroke-linejoin="bevel" stroke-miterlimit="10"/><path fill="red" stroke="red" paint-order="fill stroke markers" d=" M 353.97919324040413 237.65309226089892 A 5 5 0 1 1 353.97919074040436 237.64809226173224" stroke-linejoin="bevel" stroke-miterlimit="10"/><path fill="red" stroke="red" paint-order="fill stroke markers" d=" M 480.62774565815926 81.90047313281514 A 5 5 0 1 1 480.6277431581595 81.89547313364847" stroke-linejoin="bevel" stroke-miterlimit="10"/><path fill="red" stroke="red" paint-order="fill stroke markers" d=" M 402.88393554091454 143.28945589726254 A 5 5 0 1 1 402.88393304091477 143.28445589809587" stroke-linejoin="bevel" stroke-miterlimit="10"/><path fill="red" stroke="red" paint-order="fill stroke markers" d=" M 467.047237098217 99.44018249408589 A 5 5 0 1 1 467.04723459821724 99.43518249491922" stroke-linejoin="bevel" stroke-miterlimit="10"/><path fill="red" stroke="red" paint-order="fill stroke markers" d=" M 277.51239681243896 204.67843866171 A 5 5 0 1 1 277.5123943124392 204.67343866254333" stroke-linejoin="bevel" stroke-miterlimit="10"/><path fill="red" stroke="red" paint-order="fill stroke markers" d=" M 208.90261888504028 352.36279148360927 A 5 5 0 1 1 208.9026163850405 352.3577914844426" stroke-linejoin="bevel" stroke-miterlimit="10"/><path fill="red" stroke="red" paint-order="fill stroke markers" d=" M 444.10972943902016 97.68621155795881 A 5 5 0 1 1 444.1097269390204 97.68121155879214" stroke-linejoin="bevel" stroke-miterlimit="10"/><path fill="red" stroke="red" paint-order="fill stroke markers" d=" M 493.3384567350149 60.85282189929035 A 5 5 0 1 1 493.33845423501515 60.84782190012368" stroke-linejoin="bevel" stroke-miterlimit="10"/><path fill="red" stroke="red" paint-order="fill stroke markers" d=" M 574.689542144537 250.28168300101385 A 5 5 0 1 1 574.6895396445371 250.27668300184718" stroke-linejoin="bevel" stroke-miterlimit="10"/><path fill="red" stroke="red" paint-order="fill stroke markers" d=" M 410.73048712313175 245.01977019263268 A 5 5 0 1 1 410.730484623132 245.014770193466" stroke-linejoin="bevel" stroke-miterlimit="10"/><path fill="red" stroke="red" paint-order="fill stroke markers" d=" M 212.92804117500782 362.8866171003717 A 5 5 0 1 1 212.92803867500803 362.88161710120505" stroke-linejoin="bevel" stroke-miterlimit="10"/><path fill="red" stroke="red" paint-order="fill stroke markers" d=" M 261.37591648101807 317.6341669482933 A 5 5 0 1 1 261.3759139810183 317.6291669491266" stroke-linejoin="bevel" stroke-miterlimit="10"/><path fill="red" stroke="red" paint-order="fill stroke markers" d=" M 294.9182076305151 367.7977357215275 A 5 5 0 1 1 294.91820513051533 367.7927357223608" stroke-linejoin="bevel" stroke-miterlimit="10"/><path fill="red" stroke="red" paint-order="fill stroke markers" d=" M 227.7719241529703 344.9961135518756 A 5 5 0 1 1 227.77192165297052 344.99111355270895" stroke-linejoin="bevel" stroke-miterlimit="10"/><path fill="red" stroke="red" paint-order="fill stroke markers" d=" M 301.3959095478058 209.94035147009123 A 5 5 0 1 1 301.395907047806 209.93535147092456" stroke-linejoin="bevel" stroke-miterlimit="10"/><path fill="red" stroke="red" paint-order="fill stroke markers" d=" M 480.64370372891426 153.81328151402505 A 5 5 0 1 1 480.6437012289145 153.80828151485838" stroke-linejoin="bevel" stroke-miterlimit="10"/><path fill="red" stroke="red" paint-order="fill stroke markers" d=" M 352.6470863223076 119.78624535315993 A 5 5 0 1 1 352.6470838223078 119.78124535399326" stroke-linejoin="bevel" stroke-miterlimit="10"/><path fill="red" stroke="red" paint-order="fill stroke markers" d=" M 465.99387764930725 90.67032781345046 A 5 5 0 1 1 465.9938751493075 90.66532781428378" stroke-linejoin="bevel" stroke-miterlimit="10"/><path fill="red" stroke="red" paint-order="fill stroke markers" d=" M 631.2019165158272 55.59090909090912 A 5 5 0 1 1 631.2019140158274 55.58590909174245" stroke-linejoin="bevel" stroke-miterlimit="10"/><path fill="red" stroke="red" paint-order="fill stroke markers" d=" M 434.7682129740715 169.59901993916867 A 5 5 0 1 1 434.76821047407174 169.594019940002" stroke-linejoin="bevel" stroke-miterlimit="10"/><path fill="red" stroke="red" paint-order="fill stroke markers" d=" M 211.28642854094505 418.6628928692125 A 5 5 0 1 1 211.28642604094526 418.6578928700458" stroke-linejoin="bevel" stroke-miterlimit="10"/><path fill="red" stroke="red" paint-order="fill stroke markers" d=" M 374.56946301460266 225.7260898952349 A 5 5 0 1 1 374.5694605146029 225.72108989606824" stroke-linejoin="bevel" stroke-miterlimit="10"/><path fill="red" stroke="red" paint-order="fill stroke markers" d=" M 482.39457000792027 195.90858398107468 A 5 5 0 1 1 482.3945675079205 195.903583981908" stroke-linejoin="bevel" stroke-miterlimit="10"/><path fill="red" stroke="red" paint-order="fill stroke markers" d=" M 312.1014118939638 414.45336262250754 A 5 5 0 1 1 312.10140939396405 414.44836262334087" stroke-linejoin="bevel" stroke-miterlimit="10"/><path fill="red" stroke="red" paint-order="fill stroke markers" d=" M 341.7267216593027 269.5753632984116 A 5 5 0 1 1 341.72671915930295 269.57036329924495" stroke-linejoin="bevel" stroke-miterlimit="10"/><path fill="red" stroke="red" paint-order="fill stroke markers" d=" M 252.0574273467064 402.8771544440689 A 5 5 0 1 1 252.0574248467066 402.8721544449022" stroke-linejoin="bevel" stroke-miterlimit="10"/><path fill="red" stroke="red" paint-order="fill stroke markers" d=" M 305.9014097303152 313.4246367015884 A 5 5 0 1 1 305.90140723031544 313.4196367024217" stroke-linejoin="bevel" stroke-miterlimit="10"/><path fill="red" stroke="red" paint-order="fill stroke markers" d=" M 323.35431841015816 327.4564041906049 A 5 5 0 1 1 323.3543159101584 327.45140419143826" stroke-linejoin="bevel" stroke-miterlimit="10"/><path fill="red" stroke="red" paint-order="fill stroke markers" d=" M 290.3963375389576 255.54359580939501 A 5 5 0 1 1 290.39633503895783 255.53859581022834" stroke-linejoin="bevel" stroke-miterlimit="10"/><path fill="red" stroke="red" paint-order="fill stroke markers" d=" M 406.5152064859867 131.3624535315986 A 5 5 0 1 1 406.51520398598694 131.35745353243192" stroke-linejoin="bevel" stroke-miterlimit="10"/><path fill="red" stroke="red" paint-order="fill stroke markers" d=" M 510.9217234104872 111.36718485974984 A 5 5 0 1 1 510.9217209104874 111.36218486058317" stroke-linejoin="bevel" stroke-miterlimit="10"/><path fill="red" stroke="red" paint-order="fill stroke markers" d=" M 288.4395586401224 221.8673538357553 A 5 5 0 1 1 288.43955614012265 221.86235383658862" stroke-linejoin="bevel" stroke-miterlimit="10"/><path fill="red" stroke="red" paint-order="fill stroke markers" d=" M 408.28450444340706 190.64667117269352 A 5 5 0 1 1 408.2845019434073 190.64167117352684" stroke-linejoin="bevel" stroke-miterlimit="10"/><path fill="red" stroke="red" paint-order="fill stroke markers" d=" M 333.86931259930134 152.05931057789797 A 5 5 0 1 1 333.8693100993016 152.0543105787313" stroke-linejoin="bevel" stroke-miterlimit="10"/><path fill="red" stroke="red" paint-order="fill stroke markers" d=" M 184.68215455114841 435.5010138560324 A 5 5 0 1 1 184.68215205114862 435.4960138568657" stroke-linejoin="bevel" stroke-miterlimit="10"/><path fill="red" stroke="red" paint-order="fill stroke markers" d=" M 513.7316617667675 94.1782696857046 A 5 5 0 1 1 513.7316592667677 94.17326968653794" stroke-linejoin="bevel" stroke-miterlimit="10"/><path fill="red" stroke="red" paint-order="fill stroke markers" d=" M 306.5360389202833 520.3932071645826 A 5 5 0 1 1 306.53603642028355 520.3882071654159" stroke-linejoin="bevel" stroke-miterlimit="10"/><path fill="red" stroke="red" paint-order="fill stroke markers" d=" M 273.510415956378 260.80550861777624 A 5 5 0 1 1 273.5104134563782 260.80050861860957" stroke-linejoin="bevel" stroke-miterlimit="10"/><path fill="red" stroke="red" paint-order="fill stroke markers" d=" M 393.4287614375353 180.12284555593106 A 5 5 0 1 1 393.4287589375355 180.1178455567644" stroke-linejoin="bevel" stroke-miterlimit="10"/><path fill="red" stroke="red" paint-order="fill stroke markers" d=" M 373.83934865891933 266.06742142615747 A 5 5 0 1 1 373.83934615891957 266.0624214269908" stroke-linejoin="bevel" stroke-miterlimit="10"/><path fill="red" stroke="red" paint-order="fill stroke markers" d=" M 554.7432965189219 67.86870564379853 A 5 5 0 1 1 554.743294018922 67.86370564463186" stroke-linejoin="bevel" stroke-miterlimit="10"/><path fill="red" stroke="red" paint-order="fill stroke markers" d=" M 265.62292174994946 196.6101723555255 A 5 5 0 1 1 265.6229192499497 196.60517235635882" stroke-linejoin="bevel" stroke-miterlimit="10"/><path fill="red" stroke="red" paint-order="fill stroke markers" d=" M 333.94070033729076 273.4340993578911 A 5 5 0 1 1 333.940697837291 273.42909935872444" stroke-linejoin="bevel" stroke-miterlimit="10"/><path fill="red" stroke="red" paint-order="fill stroke markers" d=" M 467.63645954430103 105.05288948969257 A 5 5 0 1 1 467.63645704430127 105.0478894905259" stroke-linejoin="bevel" stroke-miterlimit="10"/><path fill="red" stroke="red" paint-order="fill stroke markers" d=" M 175.7455495595932 299.3928692125718 A 5 5 0 1 1 175.7455470595934 299.3878692134051" stroke-linejoin="bevel" stroke-miterlimit="10"/><path fill="red" stroke="red" paint-order="fill stroke markers" d=" M 509.8703044503927 155.56725245015213 A 5 5 0 1 1 509.87030195039296 155.56225245098545" stroke-linejoin="bevel" stroke-miterlimit="10"/><path fill="red" stroke="red" paint-order="fill stroke markers" d=" M 398.38189631700516 180.12284555593106 A 5 5 0 1 1 398.3818938170054 180.1178455567644" stroke-linejoin="bevel" stroke-miterlimit="10"/><path fill="red" stroke="red" paint-order="fill stroke markers" d=" M 228.05568273365498 276.5912470429199 A 5 5 0 1 1 228.05568023365518 276.58624704375325" stroke-linejoin="bevel" stroke-miterlimit="10"/><path fill="red" stroke="red" paint-order="fill stroke markers" d=" M 418.30597598850727 230.98800270361608 A 5 5 0 1 1 418.3059734885075 230.9830027044494" stroke-linejoin="bevel" stroke-miterlimit="10"/><path fill="red" stroke="red" paint-order="fill stroke markers" d=" M 169.7814202606678 202.92446772558293 A 5 5 0 1 1 169.781417760668 202.91946772641626" stroke-linejoin="bevel" stroke-miterlimit="10"/><path fill="red" stroke="red" paint-order="fill stroke markers" d=" M 516.3190637528896 74.88458938830689 A 5 5 0 1 1 516.3190612528898 74.87958938914022" stroke-linejoin="bevel" stroke-miterlimit="10"/><path fill="red" stroke="red" paint-order="fill stroke markers" d=" M 141.9305113852024 392.3533288273064 A 5 5 0 1 1 141.9305088852026 392.34832882813976" stroke-linejoin="bevel" stroke-miterlimit="10"/><path fill="red" stroke="red" paint-order="fill stroke markers" d=" M 150.05726364254951 383.93426833389657 A 5 5 0 1 1 150.05726114254972 383.9292683347299" stroke-linejoin="bevel" stroke-miterlimit="10"/><path fill="red" stroke="red" paint-order="fill stroke markers" d=" M 607.9000061899424 94.1782696857046 A 5 5 0 1 1 607.9000036899425 94.17326968653794" stroke-linejoin="bevel" stroke-miterlimit="10"/><path fill="red" stroke="red" paint-order="fill stroke markers" d=" M 426.5624324530363 208.18638053396415 A 5 5 0 1 1 426.56242995303654 208.18138053479748" stroke-linejoin="bevel" stroke-miterlimit="10"/><path fill="red" stroke="red" paint-order="fill stroke markers" d=" M 392.2711220383644 230.98800270361608 A 5 5 0 1 1 392.27111953836464 230.9830027044494" stroke-linejoin="bevel" stroke-miterlimit="10"/><path fill="red" stroke="red" paint-order="fill stroke markers" d=" M 232.5449793189764 354.46755660696175 A 5 5 0 1 1 232.5449768189766 354.4625566077951" stroke-linejoin="bevel" stroke-miterlimit="10"/><path fill="red" stroke="red" paint-order="fill stroke markers" d=" M 243.34185402095318 316.9325785738425 A 5 5 0 1 1 243.34185152095338 316.9275785746758" stroke-linejoin="bevel" stroke-miterlimit="10"/><path fill="red" stroke="red" paint-order="fill stroke markers" d=" M 398.3046651035547 138.02754308888137 A 5 5 0 1 1 398.30466260355496 138.0225430897147" stroke-linejoin="bevel" stroke-miterlimit="10"/><path fill="red" stroke="red" paint-order="fill stroke markers" d=" M 412.0747539848089 192.40064210882053 A 5 5 0 1 1 412.07475148480916 192.39564210965386" stroke-linejoin="bevel" stroke-miterlimit="10"/><path fill="red" stroke="red" paint-order="fill stroke markers" d=" M 387.15516425669193 163.98631294356198 A 5 5 0 1 1 387.15516175669217 163.9813129443953" stroke-linejoin="bevel" stroke-miterlimit="10"/><path fill="red" stroke="red" paint-order="fill stroke markers" d=" M 181.72786857187748 392.3533288273064 A 5 5 0 1 1 181.72786607187768 392.34832882813976" stroke-linejoin="bevel" stroke-miterlimit="10"/><path fill="red" stroke="red" paint-order="fill stroke markers" d=" M 373.9115281403065 320.4405204460966 A 5 5 0 1 1 373.9115256403067 320.43552044692996" stroke-linejoin="bevel" stroke-miterlimit="10"/><path fill="red" stroke="red" paint-order="fill stroke markers" d=" M 219.25465480983257 255.54359580939501 A 5 5 0 1 1 219.25465230983278 255.53859581022834" stroke-linejoin="bevel" stroke-miterlimit="10"/><path fill="red" stroke="red" paint-order="fill stroke markers" d=" M 561.5895779579878 152.41010476512338 A 5 5 0 1 1 561.589575457988 152.4051047659567" stroke-linejoin="bevel" stroke-miterlimit="10"/><path fill="red" stroke="red" paint-order="fill stroke markers" d=" M 96.99999997019768 329.21037512673195 A 5 5 0 1 1 96.99999747019788 329.2053751275653" stroke-linejoin="bevel" stroke-miterlimit="10"/><path fill="red" stroke="red" paint-order="fill stroke markers" d=" M 331.4766916632652 104.00050692801625 A 5 5 0 1 1 331.47668916326546 103.99550692884958" stroke-linejoin="bevel" stroke-miterlimit="10"/><path fill="red" stroke="red" paint-order="fill stroke markers" d=" M 368.42206531763077 190.29587698546806 A 5 5 0 1 1 368.422062817631 190.29087698630138" stroke-linejoin="bevel" stroke-miterlimit="10"/><path fill="red" stroke="red" paint-order="fill stroke markers" d=" M 590.0234016180038 198.71493747887803 A 5 5 0 1 1 590.023399118004 198.70993747971136" stroke-linejoin="bevel" stroke-miterlimit="10"/><path fill="red" stroke="red" paint-order="fill stroke markers" d=" M 559.8732334375381 99.00168976005403 A 5 5 0 1 1 559.8732309375383 98.99668976088736" stroke-linejoin="bevel" stroke-miterlimit="10"/><path fill="red" stroke="red" paint-order="fill stroke markers" d=" M 425.4435320645571 198.71493747887803 A 5 5 0 1 1 425.4435295645573 198.70993747971136" stroke-linejoin="bevel" stroke-miterlimit="10"/><path fill="blue" stroke="blue" paint-order="fill stroke markers" d=" M 599.0388826280832 55.59090909090912 A 5 5 0 1 1 599.0388801280834 55.58590909174245" stroke-linejoin="bevel" stroke-miterlimit="10"/><path fill="blue" stroke="blue" paint-order="fill stroke markers" d=" M 467.74053482711315 55.59090909090912 A 5 5 0 1 1 467.7405323271134 55.58590909174245" stroke-linejoin="bevel" stroke-miterlimit="10"/><path fill="blue" stroke="blue" paint-order="fill stroke markers" d=" M 461.40292423963547 55.59090909090912 A 5 5 0 1 1 461.4029217396357 55.58590909174245" stroke-linejoin="bevel" stroke-miterlimit="10"/><path fill="blue" stroke="blue" paint-order="fill stroke markers" d=" M 686.5917815864086 141.09699222710378 A 5 5 0 1 1 686.5917790864088 141.0919922279371" stroke-linejoin="bevel" stroke-miterlimit="10"/><path fill="blue" stroke="blue" paint-order="fill stroke markers" d=" M 956.9999999850988 55.59090909090912 A 5 5 0 1 1 956.999997485099 55.58590909174245" stroke-linejoin="bevel" stroke-miterlimit="10"/><path fill="blue" stroke="blue" paint-order="fill stroke markers" d=" M 741.8776589185 55.59090909090912 A 5 5 0 1 1 741.8776564185001 55.58590909174245" stroke-linejoin="bevel" stroke-miterlimit="10"/><path fill="blue" stroke="blue" paint-order="fill stroke markers" d=" M 721.151390761137 55.59090909090912 A 5 5 0 1 1 721.1513882611372 55.58590909174245" stroke-linejoin="bevel" stroke-miterlimit="10"/><path fill="blue" stroke="blue" paint-order="fill stroke markers" d=" M 726.6003520935774 55.59090909090912 A 5 5 0 1 1 726.6003495935776 55.58590909174245" stroke-linejoin="bevel" stroke-miterlimit="10"/><path fill="blue" stroke="blue" paint-order="fill stroke markers" d=" M 544.4818688184023 85.40841500506929 A 5 5 0 1 1 544.4818663184025 85.40341500590262" stroke-linejoin="bevel" stroke-miterlimit="10"/><path fill="blue" stroke="blue" paint-order="fill stroke markers" d=" M 620.6298598349094 55.59090909090912 A 5 5 0 1 1 620.6298573349096 55.58590909174245" stroke-linejoin="bevel" stroke-miterlimit="10"/><path fill="blue" stroke="blue" paint-order="fill stroke markers" d=" M 687.9526602178812 73.13061845217987 A 5 5 0 1 1 687.9526577178814 73.1256184530132" stroke-linejoin="bevel" stroke-miterlimit="10"/><path fill="blue" stroke="blue" paint-order="fill stroke markers" d=" M 475.27462784945965 87.16238594119636 A 5 5 0 1 1 475.2746253494599 87.15738594202969" stroke-linejoin="bevel" stroke-miterlimit="10"/><path fill="blue" stroke="blue" paint-order="fill stroke markers" d=" M 421.4847431778908 69.62267657992572 A 5 5 0 1 1 421.484740677891 69.61767658075905" stroke-linejoin="bevel" stroke-miterlimit="10"/><path fill="blue" stroke="blue" paint-order="fill stroke markers" d=" M 585.0036338716745 108.21003717472121 A 5 5 0 1 1 585.0036313716747 108.20503717555454" stroke-linejoin="bevel" stroke-miterlimit="10"/><path fill="blue" stroke="blue" paint-order="fill stroke markers" d=" M 553.0448790490627 73.13061845217987 A 5 5 0 1 1 553.0448765490629 73.1256184530132" stroke-linejoin="bevel" stroke-miterlimit="10"/><path fill="blue" stroke="blue" paint-order="fill stroke markers" d=" M 670.5836430639029 59.09885096316327 A 5 5 0 1 1 670.583640563903 59.0938509639966" stroke-linejoin="bevel" stroke-miterlimit="10"/><path fill="blue" stroke="blue" paint-order="fill stroke markers" d=" M 570.336726501584 73.13061845217987 A 5 5 0 1 1 570.3367240015842 73.1256184530132" stroke-linejoin="bevel" stroke-miterlimit="10"/><path fill="blue" stroke="blue" paint-order="fill stroke markers" d=" M 502.23573549091816 90.67032781345046 A 5 5 0 1 1 502.2357329909184 90.66532781428378" stroke-linejoin="bevel" stroke-miterlimit="10"/><path fill="blue" stroke="blue" paint-order="fill stroke markers" d=" M 462.28758005797863 87.16238594119636 A 5 5 0 1 1 462.28757755797886 87.15738594202969" stroke-linejoin="bevel" stroke-miterlimit="10"/><path fill="blue" stroke="blue" paint-order="fill stroke markers" d=" M 715.9007011801004 115.22592091922945 A 5 5 0 1 1 715.9006986801006 115.22092092006278" stroke-linejoin="bevel" stroke-miterlimit="10"/><path fill="blue" stroke="blue" paint-order="fill stroke markers" d=" M 561.2658623605967 73.13061845217987 A 5 5 0 1 1 561.2658598605968 73.1256184530132" stroke-linejoin="bevel" stroke-miterlimit="10"/><path fill="blue" stroke="blue" paint-order="fill stroke markers" d=" M 598.9734220802784 55.59090909090912 A 5 5 0 1 1 598.9734195802786 55.58590909174245" stroke-linejoin="bevel" stroke-miterlimit="10"/><path fill="blue" stroke="blue" paint-order="fill stroke markers" d=" M 580.4422861039639 76.63856032443397 A 5 5 0 1 1 580.442283603964 76.6335603252673" stroke-linejoin="bevel" stroke-miterlimit="10"/><path fill="blue" stroke="blue" paint-order="fill stroke markers" d=" M 635.4916336238384 71.37664751605269 A 5 5 0 1 1 635.4916311238386 71.37164751688601" stroke-linejoin="bevel" stroke-miterlimit="10"/><path fill="red" stroke="red" paint-order="fill stroke markers" d=" M 227.14331430196762 527.4090909090908 A 5 5 0 1 1 227.14331180196783 527.4040909099241" stroke-linejoin="bevel" stroke-miterlimit="10"/><path fill="red" stroke="red" paint-order="fill stroke markers" d=" M 434.18303313851357 191.34825954714432 A 5 5 0 1 1 434.1830306385138 191.34325954797765" stroke-linejoin="bevel" stroke-miterlimit="10"/></g></g></g><g><g fill="#444444"><path fill="" stroke="none" d=""/><g transform="translate(49,27)"><path fill="none" stroke="none"/><text fill="" stroke="none" font-family="helvetica" font-size="10pt" font-style="normal" font-weight="bold" text-decoration="normal" x="0" y="0" text-anchor="start" dominant-baseline="text-after-edge"> Pase+ mean score using a frame size of 16000 samples</text></g></g></g><g/><g><g fill="#444444"><path fill="none" stroke="black" paint-order="fill stroke markers" d=" M 49 551 L 995 551" stroke-linejoin="bevel" stroke-miterlimit="10"/><path fill="none" stroke="black" paint-order="fill stroke markers" d=" M 101 557 L 101 549" stroke-linejoin="bevel" stroke-miterlimit="10"/><path fill="none" stroke="black" paint-order="fill stroke markers" d=" M 224 557 L 224 549" stroke-linejoin="bevel" stroke-miterlimit="10"/><path fill="none" stroke="black" paint-order="fill stroke markers" d=" M 347 557 L 347 549" stroke-linejoin="bevel" stroke-miterlimit="10"/><path fill="none" stroke="black" paint-order="fill stroke markers" d=" M 470 557 L 470 549" stroke-linejoin="bevel" stroke-miterlimit="10"/><path fill="none" stroke="black" paint-order="fill stroke markers" d=" M 593 557 L 593 549" stroke-linejoin="bevel" stroke-miterlimit="10"/><path fill="none" stroke="black" paint-order="fill stroke markers" d=" M 716 557 L 716 549" stroke-linejoin="bevel" stroke-miterlimit="10"/><path fill="none" stroke="black" paint-order="fill stroke markers" d=" M 839 557 L 839 549" stroke-linejoin="bevel" stroke-miterlimit="10"/><path fill="none" stroke="black" paint-order="fill stroke markers" d=" M 962 557 L 962 549" stroke-linejoin="bevel" stroke-miterlimit="10"/><path fill="none" stroke="black" paint-order="fill stroke markers" d=" M 77 555 L 77 551" stroke-linejoin="bevel" stroke-miterlimit="10"/><path fill="none" stroke="black" paint-order="fill stroke markers" d=" M 52 555 L 52 551" stroke-linejoin="bevel" stroke-miterlimit="10"/><path fill="none" stroke="black" paint-order="fill stroke markers" d=" M 101 555 L 101 551" stroke-linejoin="bevel" stroke-miterlimit="10"/><path fill="none" stroke="black" paint-order="fill stroke markers" d=" M 126 555 L 126 551" stroke-linejoin="bevel" stroke-miterlimit="10"/><path fill="none" stroke="black" paint-order="fill stroke markers" d=" M 150 555 L 150 551" stroke-linejoin="bevel" stroke-miterlimit="10"/><path fill="none" stroke="black" paint-order="fill stroke markers" d=" M 175 555 L 175 551" stroke-linejoin="bevel" stroke-miterlimit="10"/><path fill="none" stroke="black" paint-order="fill stroke markers" d=" M 199 555 L 199 551" stroke-linejoin="bevel" stroke-miterlimit="10"/><path fill="none" stroke="black" paint-order="fill stroke markers" d=" M 224 555 L 224 551" stroke-linejoin="bevel" stroke-miterlimit="10"/><path fill="none" stroke="black" paint-order="fill stroke markers" d=" M 249 555 L 249 551" stroke-linejoin="bevel" stroke-miterlimit="10"/><path fill="none" stroke="black" paint-order="fill stroke markers" d=" M 273 555 L 273 551" stroke-linejoin="bevel" stroke-miterlimit="10"/><path fill="none" stroke="black" paint-order="fill stroke markers" d=" M 298 555 L 298 551" stroke-linejoin="bevel" stroke-miterlimit="10"/><path fill="none" stroke="black" paint-order="fill stroke markers" d=" M 322 555 L 322 551" stroke-linejoin="bevel" stroke-miterlimit="10"/><path fill="none" stroke="black" paint-order="fill stroke markers" d=" M 347 555 L 347 551" stroke-linejoin="bevel" stroke-miterlimit="10"/><path fill="none" stroke="black" paint-order="fill stroke markers" d=" M 372 555 L 372 551" stroke-linejoin="bevel" stroke-miterlimit="10"/><path fill="none" stroke="black" paint-order="fill stroke markers" d=" M 396 555 L 396 551" stroke-linejoin="bevel" stroke-miterlimit="10"/><path fill="none" stroke="black" paint-order="fill stroke markers" d=" M 421 555 L 421 551" stroke-linejoin="bevel" stroke-miterlimit="10"/><path fill="none" stroke="black" paint-order="fill stroke markers" d=" M 445 555 L 445 551" stroke-linejoin="bevel" stroke-miterlimit="10"/><path fill="none" stroke="black" paint-order="fill stroke markers" d=" M 470 555 L 470 551" stroke-linejoin="bevel" stroke-miterlimit="10"/><path fill="none" stroke="black" paint-order="fill stroke markers" d=" M 494 555 L 494 551" stroke-linejoin="bevel" stroke-miterlimit="10"/><path fill="none" stroke="black" paint-order="fill stroke markers" d=" M 519 555 L 519 551" stroke-linejoin="bevel" stroke-miterlimit="10"/><path fill="none" stroke="black" paint-order="fill stroke markers" d=" M 544 555 L 544 551" stroke-linejoin="bevel" stroke-miterlimit="10"/><path fill="none" stroke="black" paint-order="fill stroke markers" d=" M 568 555 L 568 551" stroke-linejoin="bevel" stroke-miterlimit="10"/><path fill="none" stroke="black" paint-order="fill stroke markers" d=" M 593 555 L 593 551" stroke-linejoin="bevel" stroke-miterlimit="10"/><path fill="none" stroke="black" paint-order="fill stroke markers" d=" M 617 555 L 617 551" stroke-linejoin="bevel" stroke-miterlimit="10"/><path fill="none" stroke="black" paint-order="fill stroke markers" d=" M 642 555 L 642 551" stroke-linejoin="bevel" stroke-miterlimit="10"/><path fill="none" stroke="black" paint-order="fill stroke markers" d=" M 667 555 L 667 551" stroke-linejoin="bevel" stroke-miterlimit="10"/><path fill="none" stroke="black" paint-order="fill stroke markers" d=" M 691 555 L 691 551" stroke-linejoin="bevel" stroke-miterlimit="10"/><path fill="none" stroke="black" paint-order="fill stroke markers" d=" M 716 555 L 716 551" stroke-linejoin="bevel" stroke-miterlimit="10"/><path fill="none" stroke="black" paint-order="fill stroke markers" d=" M 740 555 L 740 551" stroke-linejoin="bevel" stroke-miterlimit="10"/><path fill="none" stroke="black" paint-order="fill stroke markers" d=" M 765 555 L 765 551" stroke-linejoin="bevel" stroke-miterlimit="10"/><path fill="none" stroke="black" paint-order="fill stroke markers" d=" M 789 555 L 789 551" stroke-linejoin="bevel" stroke-miterlimit="10"/><path fill="none" stroke="black" paint-order="fill stroke markers" d=" M 814 555 L 814 551" stroke-linejoin="bevel" stroke-miterlimit="10"/><path fill="none" stroke="black" paint-order="fill stroke markers" d=" M 839 555 L 839 551" stroke-linejoin="bevel" stroke-miterlimit="10"/><path fill="none" stroke="black" paint-order="fill stroke markers" d=" M 863 555 L 863 551" stroke-linejoin="bevel" stroke-miterlimit="10"/><path fill="none" stroke="black" paint-order="fill stroke markers" d=" M 888 555 L 888 551" stroke-linejoin="bevel" stroke-miterlimit="10"/><path fill="none" stroke="black" paint-order="fill stroke markers" d=" M 912 555 L 912 551" stroke-linejoin="bevel" stroke-miterlimit="10"/><path fill="none" stroke="black" paint-order="fill stroke markers" d=" M 937 555 L 937 551" stroke-linejoin="bevel" stroke-miterlimit="10"/><path fill="none" stroke="black" paint-order="fill stroke markers" d=" M 962 555 L 962 551" stroke-linejoin="bevel" stroke-miterlimit="10"/><path fill="" stroke="black" paint-order="fill stroke markers" d=" M 986 555 L 986 551" stroke-linejoin="bevel" stroke-miterlimit="10"/><g transform="translate(101,562) rotate(0,0,0)"><text fill="" stroke="none" font-family="helvetica" font-size="8pt" font-style="normal" font-weight="normal" text-decoration="normal" x="0" y="0" text-anchor="middle" dominant-baseline="hanging">1.000003</text><g transform="rotate(0,0,0) translate(-101,-562) translate(224,562) rotate(0,0,0)"><text fill="" stroke="none" font-family="helvetica" font-size="8pt" font-style="normal" font-weight="normal" text-decoration="normal" x="0" y="0" text-anchor="middle" dominant-baseline="hanging">1.000004</text><g transform="rotate(0,0,0) translate(-224,-562) translate(347,562) rotate(0,0,0)"><text fill="" stroke="none" font-family="helvetica" font-size="8pt" font-style="normal" font-weight="normal" text-decoration="normal" x="0" y="0" text-anchor="middle" dominant-baseline="hanging">1.000005</text><g transform="rotate(0,0,0) translate(-347,-562) translate(470,562) rotate(0,0,0)"><text fill="" stroke="none" font-family="helvetica" font-size="8pt" font-style="normal" font-weight="normal" text-decoration="normal" x="0" y="0" text-anchor="middle" dominant-baseline="hanging">1.000006</text><g transform="rotate(0,0,0) translate(-470,-562) translate(593,562) rotate(0,0,0)"><text fill="" stroke="none" font-family="helvetica" font-size="8pt" font-style="normal" font-weight="normal" text-decoration="normal" x="0" y="0" text-anchor="middle" dominant-baseline="hanging">1.000007</text><g transform="rotate(0,0,0) translate(-593,-562) translate(716,562) rotate(0,0,0)"><text fill="" stroke="none" font-family="helvetica" font-size="8pt" font-style="normal" font-weight="normal" text-decoration="normal" x="0" y="0" text-anchor="middle" dominant-baseline="hanging">1.000008</text><g transform="rotate(0,0,0) translate(-716,-562) translate(839,562) rotate(0,0,0)"><text fill="" stroke="none" font-family="helvetica" font-size="8pt" font-style="normal" font-weight="normal" text-decoration="normal" x="0" y="0" text-anchor="middle" dominant-baseline="hanging">1.000009</text><g transform="rotate(0,0,0) translate(-839,-562) translate(962,562) rotate(0,0,0)"><text fill="" stroke="none" font-family="helvetica" font-size="8pt" font-style="normal" font-weight="normal" text-decoration="normal" x="0" y="0" text-anchor="middle" dominant-baseline="hanging">1.00001</text><g transform="rotate(0,0,0) translate(-962,-562) translate(522,582) rotate(0,0,0)"><text fill="" stroke="none" font-family="helvetica" font-size="10pt" font-style="italic" font-weight="normal" text-decoration="normal" x="0" y="0" text-anchor="middle" dominant-baseline="hanging">inf Pase+ mean score</text><g transform="rotate(0,0,0) translate(-522,-582)"/></g></g></g></g></g></g></g></g></g></g></g><g><g fill="#444444"><path fill="none" stroke="black" paint-order="fill stroke markers" d=" M 49 551 L 49 32" stroke-linejoin="bevel" stroke-miterlimit="10"/><path fill="none" stroke="black" paint-order="fill stroke markers" d=" M 43 477 L 51 477" stroke-linejoin="bevel" stroke-miterlimit="10"/><path fill="none" stroke="black" paint-order="fill stroke markers" d=" M 43 371 L 51 371" stroke-linejoin="bevel" stroke-miterlimit="10"/><path fill="none" stroke="black" paint-order="fill stroke markers" d=" M 43 266 L 51 266" stroke-linejoin="bevel" stroke-miterlimit="10"/><path fill="none" stroke="black" paint-order="fill stroke markers" d=" M 43 161 L 51 161" stroke-linejoin="bevel" stroke-miterlimit="10"/><path fill="none" stroke="black" paint-order="fill stroke markers" d=" M 43 56 L 51 56" stroke-linejoin="bevel" stroke-miterlimit="10"/><path fill="none" stroke="black" paint-order="fill stroke markers" d=" M 45 498 L 49 498" stroke-linejoin="bevel" stroke-miterlimit="10"/><path fill="none" stroke="black" paint-order="fill stroke markers" d=" M 45 519 L 49 519" stroke-linejoin="bevel" stroke-miterlimit="10"/><path fill="none" stroke="black" paint-order="fill stroke markers" d=" M 45 540 L 49 540" stroke-linejoin="bevel" stroke-miterlimit="10"/><path fill="none" stroke="black" paint-order="fill stroke markers" d=" M 45 477 L 49 477" stroke-linejoin="bevel" stroke-miterlimit="10"/><path fill="none" stroke="black" paint-order="fill stroke markers" d=" M 45 455 L 49 455" stroke-linejoin="bevel" stroke-miterlimit="10"/><path fill="none" stroke="black" paint-order="fill stroke markers" d=" M 45 434 L 49 434" stroke-linejoin="bevel" stroke-miterlimit="10"/><path fill="none" stroke="black" paint-order="fill stroke markers" d=" M 45 413 L 49 413" stroke-linejoin="bevel" stroke-miterlimit="10"/><path fill="none" stroke="black" paint-order="fill stroke markers" d=" M 45 392 L 49 392" stroke-linejoin="bevel" stroke-miterlimit="10"/><path fill="none" stroke="black" paint-order="fill stroke markers" d=" M 45 371 L 49 371" stroke-linejoin="bevel" stroke-miterlimit="10"/><path fill="none" stroke="black" paint-order="fill stroke markers" d=" M 45 350 L 49 350" stroke-linejoin="bevel" stroke-miterlimit="10"/><path fill="none" stroke="black" paint-order="fill stroke markers" d=" M 45 329 L 49 329" stroke-linejoin="bevel" stroke-miterlimit="10"/><path fill="none" stroke="black" paint-order="fill stroke markers" d=" M 45 308 L 49 308" stroke-linejoin="bevel" stroke-miterlimit="10"/><path fill="none" stroke="black" paint-order="fill stroke markers" d=" M 45 287 L 49 287" stroke-linejoin="bevel" stroke-miterlimit="10"/><path fill="none" stroke="black" paint-order="fill stroke markers" d=" M 45 266 L 49 266" stroke-linejoin="bevel" stroke-miterlimit="10"/><path fill="none" stroke="black" paint-order="fill stroke markers" d=" M 45 245 L 49 245" stroke-linejoin="bevel" stroke-miterlimit="10"/><path fill="none" stroke="black" paint-order="fill stroke markers" d=" M 45 224 L 49 224" stroke-linejoin="bevel" stroke-miterlimit="10"/><path fill="none" stroke="black" paint-order="fill stroke markers" d=" M 45 203 L 49 203" stroke-linejoin="bevel" stroke-miterlimit="10"/><path fill="none" stroke="black" paint-order="fill stroke markers" d=" M 45 182 L 49 182" stroke-linejoin="bevel" stroke-miterlimit="10"/><path fill="none" stroke="black" paint-order="fill stroke markers" d=" M 45 161 L 49 161" stroke-linejoin="bevel" stroke-miterlimit="10"/><path fill="none" stroke="black" paint-order="fill stroke markers" d=" M 45 140 L 49 140" stroke-linejoin="bevel" stroke-miterlimit="10"/><path fill="none" stroke="black" paint-order="fill stroke markers" d=" M 45 119 L 49 119" stroke-linejoin="bevel" stroke-miterlimit="10"/><path fill="none" stroke="black" paint-order="fill stroke markers" d=" M 45 98 L 49 98" stroke-linejoin="bevel" stroke-miterlimit="10"/><path fill="none" stroke="black" paint-order="fill stroke markers" d=" M 45 77 L 49 77" stroke-linejoin="bevel" stroke-miterlimit="10"/><path fill="none" stroke="black" paint-order="fill stroke markers" d=" M 45 56 L 49 56" stroke-linejoin="bevel" stroke-miterlimit="10"/><path fill="" stroke="black" paint-order="fill stroke markers" d=" M 45 35 L 49 35" stroke-linejoin="bevel" stroke-miterlimit="10"/><g transform="translate(38,477) rotate(0,0,0)"><text fill="" stroke="none" font-family="helvetica" font-size="8pt" font-style="normal" font-weight="normal" text-decoration="normal" x="0" y="0" text-anchor="end" dominant-baseline="central">2</text><g transform="rotate(0,0,0) translate(-38,-477) translate(38,371) rotate(0,0,0)"><text fill="" stroke="none" font-family="helvetica" font-size="8pt" font-style="normal" font-weight="normal" text-decoration="normal" x="0" y="0" text-anchor="end" dominant-baseline="central">4</text><g transform="rotate(0,0,0) translate(-38,-371) translate(38,266) rotate(0,0,0)"><text fill="" stroke="none" font-family="helvetica" font-size="8pt" font-style="normal" font-weight="normal" text-decoration="normal" x="0" y="0" text-anchor="end" dominant-baseline="central">6</text><g transform="rotate(0,0,0) translate(-38,-266) translate(38,161) rotate(0,0,0)"><text fill="" stroke="none" font-family="helvetica" font-size="8pt" font-style="normal" font-weight="normal" text-decoration="normal" x="0" y="0" text-anchor="end" dominant-baseline="central">8</text><g transform="rotate(0,0,0) translate(-38,-161) translate(38,56) rotate(0,0,0)"><text fill="" stroke="none" font-family="helvetica" font-size="8pt" font-style="normal" font-weight="normal" text-decoration="normal" x="0" y="0" text-anchor="end" dominant-baseline="central">10</text><g transform="rotate(0,0,0) translate(-38,-56) translate(18,292) rotate(-90,0,0)"><text fill="" stroke="none" font-family="helvetica" font-size="10pt" font-style="italic" font-weight="normal" text-decoration="normal" x="0" y="0" text-anchor="middle" dominant-baseline="alphabetic">Severity</text><g transform="rotate(90,0,0) translate(-18,-292)"/></g></g></g></g></g></g></g></g><g clip-path="url(#tBJZOPcMyRXJ)"><g/></g></g></g></svg>