<svg version="1.1" xmlns="http://www.w3.org/2000/svg" xmlns:xlink="http://www.w3.org/1999/xlink" width="1000" height="600" style="width: 1000px; height: 600px;"><defs><clipPath id="OUpdVnTzlvsL"><path fill="none" stroke="none" d=" M 49 32 L 995 32 L 995 551 L 49 551 L 49 32 Z"/></clipPath><clipPath id="OiLcTXaOEwWD"><path fill="none" stroke="none" d=" M 49 32 L 995 32 L 995 551 L 49 551 L 49 32 Z"/></clipPath><clipPath id="HXkJtDwztnRR"><path fill="none" stroke="none" d=" M 49 32 L 995 32 L 995 551 L 49 551 L 49 32 Z"/></clipPath><clipPath id="kruAWlWmfFec"><path fill="none" stroke="none" d=" M 49 32 L 995 32 L 995 551 L 49 551 L 49 32 Z"/></clipPath></defs><g><g transform="scale(1,1) translate(0.5,0.5)"><rect fill="#FFFFFF" stroke="none" x="0" y="0" width="1000" height="600"/><rect fill="#ffffff" stroke="none" x="0" y="0" width="1000" height="600"/><rect fill="#FFFFFF" stroke="none" x="49" y="32" width="946" height="519"/><rect fill="#ffffff" stroke="none" x="49" y="32" width="946" height="519"/><g><rect fill="none" stroke="#e5e5e5" x="49" y="32" width="946" height="519" stroke-linejoin="bevel" stroke-miterlimit="10"/></g><g clip-path="url(#OUpdVnTzlvsL)"><g><g><path fill="none" stroke="#e5e5e5" paint-order="fill stroke markers" d=" M 207 551 L 207 32" stroke-linejoin="bevel" stroke-miterlimit="10"/><path fill="none" stroke="#e5e5e5" paint-order="fill stroke markers" d=" M 436 551 L 436 32" stroke-linejoin="bevel" stroke-miterlimit="10"/><path fill="none" stroke="#e5e5e5" paint-order="fill stroke markers" d=" M 666 551 L 666 32" stroke-linejoin="bevel" stroke-miterlimit="10"/><path fill="none" stroke="#e5e5e5" paint-order="fill stroke markers" d=" M 895 551 L 895 32" stroke-linejoin="bevel" stroke-miterlimit="10"/></g></g></g><g clip-path="url(#OiLcTXaOEwWD)"><g><g><path fill="none" stroke="#e5e5e5" paint-order="fill stroke markers" d=" M 49 491 L 995 491" stroke-linejoin="bevel" stroke-miterlimit="10"/><path fill="none" stroke="#e5e5e5" paint-order="fill stroke markers" d=" M 49 419 L 995 419" stroke-linejoin="bevel" stroke-miterlimit="10"/><path fill="none" stroke="#e5e5e5" paint-order="fill stroke markers" d=" M 49 346 L 995 346" stroke-linejoin="bevel" stroke-miterlimit="10"/><path fill="none" stroke="#e5e5e5" paint-order="fill stroke markers" d=" M 49 273 L 995 273" stroke-linejoin="bevel" stroke-miterlimit="10"/><path fill="none" stroke="#e5e5e5" paint-order="fill stroke markers" d=" M 49 201 L 995 201" stroke-linejoin="bevel" stroke-miterlimit="10"/><path fill="none" stroke="#e5e5e5" paint-order="fill stroke markers" d=" M 49 128 L 995 128" stroke-linejoin="bevel" stroke-miterlimit="10"/><path fill="none" stroke="#e5e5e5" paint-order="fill stroke markers" d=" M 49 56 L 995 56" stroke-linejoin="bevel" stroke-miterlimit="10"/></g></g></g><g clip-path="url(#HXkJtDwztnRR)"><g><g><path fill="none" stroke="none"/><path fill="red" stroke="red" paint-order="fill stroke markers" d=" M 569.6741728992201 189.15174825174824 A 5 5 0 1 1 569.6741703992203 189.14674825258157" stroke-linejoin="bevel" stroke-miterlimit="10"/><path fill="red" stroke="red" paint-order="fill stroke markers" d=" M 728.8968839696608 171.73076923076928 A 5 5 0 1 1 728.896881469661 171.7257692316026" stroke-linejoin="bevel" stroke-miterlimit="10"/><path fill="red" stroke="red" paint-order="fill stroke markers" d=" M 234.49332397291437 345.94055944055947 A 5 5 0 1 1 234.49332147291457 345.9355594413928" stroke-linejoin="bevel" stroke-miterlimit="10"/><path fill="red" stroke="red" paint-order="fill stroke markers" d=" M 851.0660782665946 79.7867132867134 A 5 5 0 1 1 851.0660757665947 79.78171328754672" stroke-linejoin="bevel" stroke-miterlimit="10"/><path fill="blue" stroke="blue" paint-order="fill stroke markers" d=" M 858.951391486451 55.59090909090912 A 5 5 0 1 1 858.9513889864512 55.58590909174245" stroke-linejoin="bevel" stroke-miterlimit="10"/><path fill="red" stroke="red" paint-order="fill stroke markers" d=" M 396.5488466247916 454.82167832167835 A 5 5 0 1 1 396.54884412479186 454.8166783225117" stroke-linejoin="bevel" stroke-miterlimit="10"/><path fill="red" stroke="red" paint-order="fill stroke markers" d=" M 117.63510375283659 159.6328671328671 A 5 5 0 1 1 117.63510125283679 159.62786713370042" stroke-linejoin="bevel" stroke-miterlimit="10"/><path fill="red" stroke="red" paint-order="fill stroke markers" d=" M 800.1069290125743 130.59790209790208 A 5 5 0 1 1 800.1069265125744 130.5929020987354" stroke-linejoin="bevel" stroke-miterlimit="10"/><path fill="red" stroke="red" paint-order="fill stroke markers" d=" M 771.331127080135 70.10839160839157 A 5 5 0 1 1 771.3311245801352 70.1033916092249" stroke-linejoin="bevel" stroke-miterlimit="10"/><path fill="red" stroke="red" paint-order="fill stroke markers" d=" M 223.99528142157942 418.52797202797206 A 5 5 0 1 1 223.99527892157963 418.5229720288054" stroke-linejoin="bevel" stroke-miterlimit="10"/><path fill="red" stroke="red" paint-order="fill stroke markers" d=" M 715.2094971570186 133.01748251748268 A 5 5 0 1 1 715.2094946570188 133.012482518316" stroke-linejoin="bevel" stroke-miterlimit="10"/><path fill="red" stroke="red" paint-order="fill stroke markers" d=" M 745.2306925314479 120.91958041958048 A 5 5 0 1 1 745.230690031448 120.91458042041381" stroke-linejoin="bevel" stroke-miterlimit="10"/><path fill="red" stroke="red" paint-order="fill stroke markers" d=" M 709.692988593597 133.01748251748268 A 5 5 0 1 1 709.6929860935971 133.012482518316" stroke-linejoin="bevel" stroke-miterlimit="10"/><path fill="red" stroke="red" paint-order="fill stroke markers" d=" M 430.5557537684217 128.1783216783217 A 5 5 0 1 1 430.55575126842194 128.17332167915504" stroke-linejoin="bevel" stroke-miterlimit="10"/><path fill="red" stroke="red" paint-order="fill stroke markers" d=" M 751.1497668903321 135.43706293706293 A 5 5 0 1 1 751.1497643903323 135.43206293789626" stroke-linejoin="bevel" stroke-miterlimit="10"/><path fill="red" stroke="red" paint-order="fill stroke markers" d=" M 781.1825797478668 106.40209790209803 A 5 5 0 1 1 781.182577247867 106.39709790293136" stroke-linejoin="bevel" stroke-miterlimit="10"/><path fill="red" stroke="red" paint-order="fill stroke markers" d=" M 318.03119240980595 151.4062937062938 A 5 5 0 1 1 318.0311899098062 151.40129370712714" stroke-linejoin="bevel" stroke-miterlimit="10"/><path fill="red" stroke="red" paint-order="fill stroke markers" d=" M 709.2128501627594 128.1783216783217 A 5 5 0 1 1 709.2128476627596 128.17332167915504" stroke-linejoin="bevel" stroke-miterlimit="10"/><path fill="red" stroke="red" paint-order="fill stroke markers" d=" M 829.4707579757087 65.75314685314697 A 5 5 0 1 1 829.4707554757089 65.7481468539803" stroke-linejoin="bevel" stroke-miterlimit="10"/><path fill="red" stroke="red" paint-order="fill stroke markers" d=" M 773.2922827750444 108.8216783216784 A 5 5 0 1 1 773.2922802750446 108.81667832251173" stroke-linejoin="bevel" stroke-miterlimit="10"/><path fill="red" stroke="red" paint-order="fill stroke markers" d=" M 700.37147350749 74.94755244755254 A 5 5 0 1 1 700.3714710074902 74.94255244838587" stroke-linejoin="bevel" stroke-miterlimit="10"/><path fill="red" stroke="red" paint-order="fill stroke markers" d=" M 482.8376015680842 128.1783216783217 A 5 5 0 1 1 482.83759906808444 128.17332167915504" stroke-linejoin="bevel" stroke-miterlimit="10"/><path fill="red" stroke="red" paint-order="fill stroke markers" d=" M 522.7308700922877 186.24825174825185 A 5 5 0 1 1 522.7308675922878 186.24325174908518" stroke-linejoin="bevel" stroke-miterlimit="10"/><path fill="red" stroke="red" paint-order="fill stroke markers" d=" M 831.5965875172988 62.84965034965035 A 5 5 0 1 1 831.5965850172989 62.844650350483676" stroke-linejoin="bevel" stroke-miterlimit="10"/><path fill="red" stroke="red" paint-order="fill stroke markers" d=" M 902.4533480452374 58.01048951048949 A 5 5 0 1 1 902.4533455452375 58.00548951132282" stroke-linejoin="bevel" stroke-miterlimit="10"/><path fill="red" stroke="red" paint-order="fill stroke markers" d=" M 837.2195404726081 152.37412587412598 A 5 5 0 1 1 837.2195379726082 152.3691258749593" stroke-linejoin="bevel" stroke-miterlimit="10"/><path fill="red" stroke="red" paint-order="fill stroke markers" d=" M 734.3213680703193 152.37412587412598 A 5 5 0 1 1 734.3213655703195 152.3691258749593" stroke-linejoin="bevel" stroke-miterlimit="10"/><path fill="red" stroke="red" paint-order="fill stroke markers" d=" M 335.0023500681855 222.54195804195808 A 5 5 0 1 1 335.0023475681857 222.5369580427914" stroke-linejoin="bevel" stroke-miterlimit="10"/><path fill="red" stroke="red" paint-order="fill stroke markers" d=" M 472.0642615300603 149.9545454545455 A 5 5 0 1 1 472.06425903006055 149.94954545537882" stroke-linejoin="bevel" stroke-miterlimit="10"/><path fill="red" stroke="red" paint-order="fill stroke markers" d=" M 613.1619029850699 149.95454545454538 A 5 5 0 1 1 613.1619004850701 149.9495454553787" stroke-linejoin="bevel" stroke-miterlimit="10"/><path fill="red" stroke="red" paint-order="fill stroke markers" d=" M 726.6464309054427 170.27902097902097 A 5 5 0 1 1 726.6464284054429 170.2740209798543" stroke-linejoin="bevel" stroke-miterlimit="10"/><path fill="red" stroke="red" paint-order="fill stroke markers" d=" M 637.1887865047902 125.75874125874134 A 5 5 0 1 1 637.1887840047904 125.75374125957467" stroke-linejoin="bevel" stroke-miterlimit="10"/><path fill="red" stroke="red" paint-order="fill stroke markers" d=" M 790.2076884889975 101.56293706293707 A 5 5 0 1 1 790.2076859889977 101.5579370637704" stroke-linejoin="bevel" stroke-miterlimit="10"/><path fill="red" stroke="red" paint-order="fill stroke markers" d=" M 714.3582679289393 70.10839160839157 A 5 5 0 1 1 714.3582654289395 70.1033916092249" stroke-linejoin="bevel" stroke-miterlimit="10"/><path fill="red" stroke="red" paint-order="fill stroke markers" d=" M 780.8315909961239 79.7867132867134 A 5 5 0 1 1 780.831588496124 79.78171328754672" stroke-linejoin="bevel" stroke-miterlimit="10"/><path fill="red" stroke="red" paint-order="fill stroke markers" d=" M 906.6166843469255 55.59090909090912 A 5 5 0 1 1 906.6166818469256 55.58590909174245" stroke-linejoin="bevel" stroke-miterlimit="10"/><path fill="red" stroke="red" paint-order="fill stroke markers" d=" M 804.1287299324758 128.1783216783217 A 5 5 0 1 1 804.128727432476 128.17332167915504" stroke-linejoin="bevel" stroke-miterlimit="10"/><path fill="red" stroke="red" paint-order="fill stroke markers" d=" M 376.12756917160004 174.15034965034965 A 5 5 0 1 1 376.1275666716003 174.14534965118298" stroke-linejoin="bevel" stroke-miterlimit="10"/><path fill="red" stroke="red" paint-order="fill stroke markers" d=" M 593.1568363490514 149.95454545454538 A 5 5 0 1 1 593.1568338490516 149.9495454553787" stroke-linejoin="bevel" stroke-miterlimit="10"/><path fill="red" stroke="red" paint-order="fill stroke markers" d=" M 922.1813997328281 111.24125874125878 A 5 5 0 1 1 922.1813972328283 111.2362587420921" stroke-linejoin="bevel" stroke-miterlimit="10"/><path fill="red" stroke="red" paint-order="fill stroke markers" d=" M 545.736725801602 258.8356643356643 A 5 5 0 1 1 545.7367233016022 258.83066433649765" stroke-linejoin="bevel" stroke-miterlimit="10"/><path fill="red" stroke="red" paint-order="fill stroke markers" d=" M 599.4518158538267 108.82167832167829 A 5 5 0 1 1 599.4518133538269 108.81667832251162" stroke-linejoin="bevel" stroke-miterlimit="10"/><path fill="red" stroke="red" paint-order="fill stroke markers" d=" M 338.49970127269626 266.09440559440554 A 5 5 0 1 1 338.4996987726965 266.0894055952389" stroke-linejoin="bevel" stroke-miterlimit="10"/><path fill="red" stroke="red" paint-order="fill stroke markers" d=" M 550.4239075239748 205.60489510489515 A 5 5 0 1 1 550.423905023975 205.59989510572848" stroke-linejoin="bevel" stroke-miterlimit="10"/><path fill="red" stroke="red" paint-order="fill stroke markers" d=" M 567.7613660353236 203.18531468531478 A 5 5 0 1 1 567.7613635353238 203.1803146861481" stroke-linejoin="bevel" stroke-miterlimit="10"/><path fill="red" stroke="red" paint-order="fill stroke markers" d=" M 723.7710834555328 116.56433566433566 A 5 5 0 1 1 723.771080955533 116.55933566516899" stroke-linejoin="bevel" stroke-miterlimit="10"/><path fill="red" stroke="red" paint-order="fill stroke markers" d=" M 816.5755476946943 84.62587412587413 A 5 5 0 1 1 816.5755451946944 84.62087412670746" stroke-linejoin="bevel" stroke-miterlimit="10"/><path fill="red" stroke="red" paint-order="fill stroke markers" d=" M 815.0670849261805 78.81888111888122 A 5 5 0 1 1 815.0670824261807 78.81388111971455" stroke-linejoin="bevel" stroke-miterlimit="10"/><path fill="red" stroke="red" paint-order="fill stroke markers" d=" M 594.4368194160052 142.69580419580416 A 5 5 0 1 1 594.4368169160053 142.6908041966375" stroke-linejoin="bevel" stroke-miterlimit="10"/><path fill="red" stroke="red" paint-order="fill stroke markers" d=" M 686.0122928414494 101.56293706293707 A 5 5 0 1 1 686.0122903414496 101.5579370637704" stroke-linejoin="bevel" stroke-miterlimit="10"/><path fill="red" stroke="red" paint-order="fill stroke markers" d=" M 707.5020646941848 103.98251748251744 A 5 5 0 1 1 707.502062194185 103.97751748335077" stroke-linejoin="bevel" stroke-miterlimit="10"/><path fill="red" stroke="red" paint-order="fill stroke markers" d=" M 487.2807240006514 428.6902097902098 A 5 5 0 1 1 487.2807215006516 428.6852097910431" stroke-linejoin="bevel" stroke-miterlimit="10"/><path fill="red" stroke="red" paint-order="fill stroke markers" d=" M 880.8908524694853 72.52797202797206 A 5 5 0 1 1 880.8908499694854 72.52297202880538" stroke-linejoin="bevel" stroke-miterlimit="10"/><path fill="red" stroke="red" paint-order="fill stroke markers" d=" M 633.8346668654121 527.409090909091 A 5 5 0 1 1 633.8346643654123 527.4040909099243" stroke-linejoin="bevel" stroke-miterlimit="10"/><path fill="red" stroke="red" paint-order="fill stroke markers" d=" M 688.515791256912 152.37412587412598 A 5 5 0 1 1 688.5157887569122 152.3691258749593" stroke-linejoin="bevel" stroke-miterlimit="10"/><path fill="red" stroke="red" paint-order="fill stroke markers" d=" M 636.9270681259222 101.56293706293707 A 5 5 0 1 1 636.9270656259224 101.5579370637704" stroke-linejoin="bevel" stroke-miterlimit="10"/><path fill="red" stroke="red" paint-order="fill stroke markers" d=" M 717.0095517141744 171.73076923076928 A 5 5 0 1 1 717.0095492141746 171.7257692316026" stroke-linejoin="bevel" stroke-miterlimit="10"/><path fill="red" stroke="red" paint-order="fill stroke markers" d=" M 868.423138669692 74.94755244755254 A 5 5 0 1 1 868.4231361696922 74.94255244838587" stroke-linejoin="bevel" stroke-miterlimit="10"/><path fill="red" stroke="red" paint-order="fill stroke markers" d=" M 565.4866096437909 129.6300699300699 A 5 5 0 1 1 565.486607143791 129.62506993090324" stroke-linejoin="bevel" stroke-miterlimit="10"/><path fill="red" stroke="red" paint-order="fill stroke markers" d=" M 637.2957941587083 118.01608391608386 A 5 5 0 1 1 637.2957916587085 118.01108391691719" stroke-linejoin="bevel" stroke-miterlimit="10"/><path fill="red" stroke="red" paint-order="fill stroke markers" d=" M 808.0889366525225 57.04265734265732 A 5 5 0 1 1 808.0889341525227 57.03765734349065" stroke-linejoin="bevel" stroke-miterlimit="10"/><path fill="red" stroke="red" paint-order="fill stroke markers" d=" M 295.1743548545055 183.82867132867136 A 5 5 0 1 1 295.17435235450574 183.8236713295047" stroke-linejoin="bevel" stroke-miterlimit="10"/><path fill="red" stroke="red" paint-order="fill stroke markers" d=" M 914.1734317857772 77.36713286713291 A 5 5 0 1 1 914.1734292857774 77.36213286796624" stroke-linejoin="bevel" stroke-miterlimit="10"/><path fill="red" stroke="red" paint-order="fill stroke markers" d=" M 730.3742325389758 135.43706293706293 A 5 5 0 1 1 730.374230038976 135.43206293789626" stroke-linejoin="bevel" stroke-miterlimit="10"/><path fill="red" stroke="red" paint-order="fill stroke markers" d=" M 649.9578546802513 106.40209790209792 A 5 5 0 1 1 649.9578521802515 106.39709790293125" stroke-linejoin="bevel" stroke-miterlimit="10"/><path fill="red" stroke="red" paint-order="fill stroke markers" d=" M 701.753892574925 103.98251748251744 A 5 5 0 1 1 701.7538900749252 103.97751748335077" stroke-linejoin="bevel" stroke-miterlimit="10"/><path fill="red" stroke="red" paint-order="fill stroke markers" d=" M 571.3630172787234 152.37412587412598 A 5 5 0 1 1 571.3630147787236 152.3691258749593" stroke-linejoin="bevel" stroke-miterlimit="10"/><path fill="red" stroke="red" paint-order="fill stroke markers" d=" M 772.0136534790508 58.01048951048949 A 5 5 0 1 1 772.013650979051 58.00548951132282" stroke-linejoin="bevel" stroke-miterlimit="10"/><path fill="red" stroke="red" paint-order="fill stroke markers" d=" M 97 213.83146853146854 A 5 5 0 1 1 96.9999975000002 213.82646853230187" stroke-linejoin="bevel" stroke-miterlimit="10"/><path fill="red" stroke="red" paint-order="fill stroke markers" d=" M 207.86630538012832 219.63846153846157 A 5 5 0 1 1 207.86630288012853 219.6334615392949" stroke-linejoin="bevel" stroke-miterlimit="10"/><path fill="red" stroke="red" paint-order="fill stroke markers" d=" M 841.0617123940028 79.7867132867134 A 5 5 0 1 1 841.061709894003 79.78171328754672" stroke-linejoin="bevel" stroke-miterlimit="10"/><path fill="red" stroke="red" paint-order="fill stroke markers" d=" M 728.4727659109049 106.40209790209803 A 5 5 0 1 1 728.472763410905 106.39709790293136" stroke-linejoin="bevel" stroke-miterlimit="10"/><path fill="red" stroke="red" paint-order="fill stroke markers" d=" M 709.2525852341205 128.1783216783217 A 5 5 0 1 1 709.2525827341207 128.17332167915504" stroke-linejoin="bevel" stroke-miterlimit="10"/><path fill="red" stroke="red" paint-order="fill stroke markers" d=" M 358.0351730384864 178.9895104895105 A 5 5 0 1 1 358.0351705384866 178.98451049034384" stroke-linejoin="bevel" stroke-miterlimit="10"/><path fill="red" stroke="red" paint-order="fill stroke markers" d=" M 490.72116505447775 212.86363636363637 A 5 5 0 1 1 490.721162554478 212.8586363644697" stroke-linejoin="bevel" stroke-miterlimit="10"/><path fill="red" stroke="red" paint-order="fill stroke markers" d=" M 752.2154964394867 77.3671328671328 A 5 5 0 1 1 752.2154939394869 77.36213286796612" stroke-linejoin="bevel" stroke-miterlimit="10"/><path fill="red" stroke="red" paint-order="fill stroke markers" d=" M 733.2349372114986 86.07762237762245 A 5 5 0 1 1 733.2349347114988 86.07262237845578" stroke-linejoin="bevel" stroke-miterlimit="10"/><path fill="red" stroke="red" paint-order="fill stroke markers" d=" M 595.526844594162 78.81888111888122 A 5 5 0 1 1 595.5268420941621 78.81388111971455" stroke-linejoin="bevel" stroke-miterlimit="10"/><path fill="red" stroke="red" paint-order="fill stroke markers" d=" M 579.6214635889046 234.15594405594402 A 5 5 0 1 1 579.6214610889048 234.15094405677735" stroke-linejoin="bevel" stroke-miterlimit="10"/><path fill="red" stroke="red" paint-order="fill stroke markers" d=" M 841.2054014382884 130.59790209790208 A 5 5 0 1 1 841.2053989382886 130.5929020987354" stroke-linejoin="bevel" stroke-miterlimit="10"/><path fill="red" stroke="red" paint-order="fill stroke markers" d=" M 604.4673346872441 183.34475524475522 A 5 5 0 1 1 604.4673321872443 183.33975524558855" stroke-linejoin="bevel" stroke-miterlimit="10"/><path fill="red" stroke="red" paint-order="fill stroke markers" d=" M 829.0296709896065 86.07762237762245 A 5 5 0 1 1 829.0296684896067 86.07262237845578" stroke-linejoin="bevel" stroke-miterlimit="10"/><path fill="red" stroke="red" paint-order="fill stroke markers" d=" M 116.00253881327808 180.44125874125882 A 5 5 0 1 1 116.00253631327828 180.43625874209215" stroke-linejoin="bevel" stroke-miterlimit="10"/><path fill="red" stroke="red" paint-order="fill stroke markers" d=" M 720.4635876426473 71.56013986013988 A 5 5 0 1 1 720.4635851426475 71.55513986097321" stroke-linejoin="bevel" stroke-miterlimit="10"/><path fill="red" stroke="red" paint-order="fill stroke markers" d=" M 771.4801932456903 112.20909090909095 A 5 5 0 1 1 771.4801907456905 112.20409090992428" stroke-linejoin="bevel" stroke-miterlimit="10"/><path fill="red" stroke="red" paint-order="fill stroke markers" d=" M 712.5465353680775 91.88461538461536 A 5 5 0 1 1 712.5465328680776 91.87961538544869" stroke-linejoin="bevel" stroke-miterlimit="10"/><path fill="red" stroke="red" paint-order="fill stroke markers" d=" M 790.5661617391743 57.40559440559446 A 5 5 0 1 1 790.5661592391745 57.400594406427786" stroke-linejoin="bevel" stroke-miterlimit="10"/><path fill="red" stroke="red" paint-order="fill stroke markers" d=" M 704.9432652061805 120.91958041958048 A 5 5 0 1 1 704.9432627061807 120.91458042041381" stroke-linejoin="bevel" stroke-miterlimit="10"/><path fill="blue" stroke="blue" paint-order="fill stroke markers" d=" M 819.0408934256993 55.59090909090912 A 5 5 0 1 1 819.0408909256995 55.58590909174245" stroke-linejoin="bevel" stroke-miterlimit="10"/><path fill="blue" stroke="blue" paint-order="fill stroke markers" d=" M 796.8631451507099 55.59090909090912 A 5 5 0 1 1 796.8631426507101 55.58590909174245" stroke-linejoin="bevel" stroke-miterlimit="10"/><path fill="blue" stroke="blue" paint-order="fill stroke markers" d=" M 795.6865357314236 55.59090909090912 A 5 5 0 1 1 795.6865332314238 55.58590909174245" stroke-linejoin="bevel" stroke-miterlimit="10"/><path fill="blue" stroke="blue" paint-order="fill stroke markers" d=" M 876.5295905522071 88.25524475524469 A 5 5 0 1 1 876.5295880522073 88.25024475607802" stroke-linejoin="bevel" stroke-miterlimit="10"/><path fill="blue" stroke="blue" paint-order="fill stroke markers" d=" M 933.8267980325036 55.59090909090912 A 5 5 0 1 1 933.8267955325038 55.58590909174245" stroke-linejoin="bevel" stroke-miterlimit="10"/><path fill="blue" stroke="blue" paint-order="fill stroke markers" d=" M 898.9731252091005 55.59090909090912 A 5 5 0 1 1 898.9731227091007 55.58590909174245" stroke-linejoin="bevel" stroke-miterlimit="10"/><path fill="blue" stroke="blue" paint-order="fill stroke markers" d=" M 957 55.59090909090912 A 5 5 0 1 1 956.9999975000002 55.58590909174245" stroke-linejoin="bevel" stroke-miterlimit="10"/><path fill="blue" stroke="blue" paint-order="fill stroke markers" d=" M 946.4000708330423 55.59090909090912 A 5 5 0 1 1 946.4000683330424 55.58590909174245" stroke-linejoin="bevel" stroke-miterlimit="10"/><path fill="blue" stroke="blue" paint-order="fill stroke markers" d=" M 776.9624905278906 55.59090909090912 A 5 5 0 1 1 776.9624880278908 55.58590909174245" stroke-linejoin="bevel" stroke-miterlimit="10"/><path fill="blue" stroke="blue" paint-order="fill stroke markers" d=" M 860.5849753557704 55.59090909090912 A 5 5 0 1 1 860.5849728557706 55.58590909174245" stroke-linejoin="bevel" stroke-miterlimit="10"/><path fill="blue" stroke="blue" paint-order="fill stroke markers" d=" M 823.2486107940786 79.7867132867134 A 5 5 0 1 1 823.2486082940787 79.78171328754672" stroke-linejoin="bevel" stroke-miterlimit="10"/><path fill="blue" stroke="blue" paint-order="fill stroke markers" d=" M 828.4000472309999 74.94755244755254 A 5 5 0 1 1 828.4000447310001 74.94255244838587" stroke-linejoin="bevel" stroke-miterlimit="10"/><path fill="blue" stroke="blue" paint-order="fill stroke markers" d=" M 747.2169486675411 74.94755244755254 A 5 5 0 1 1 747.2169461675413 74.94255244838587" stroke-linejoin="bevel" stroke-miterlimit="10"/><path fill="blue" stroke="blue" paint-order="fill stroke markers" d=" M 687.0998655213043 74.94755244755254 A 5 5 0 1 1 687.0998630213045 74.94255244838587" stroke-linejoin="bevel" stroke-miterlimit="10"/><path fill="blue" stroke="blue" paint-order="fill stroke markers" d=" M 722.4745319136418 55.59090909090912 A 5 5 0 1 1 722.474529413642 55.58590909174245" stroke-linejoin="bevel" stroke-miterlimit="10"/><path fill="blue" stroke="blue" paint-order="fill stroke markers" d=" M 900.5858302800916 55.59090909090912 A 5 5 0 1 1 900.5858277800918 55.58590909174245" stroke-linejoin="bevel" stroke-miterlimit="10"/><path fill="blue" stroke="blue" paint-order="fill stroke markers" d=" M 843.3350940621458 55.59090909090912 A 5 5 0 1 1 843.335091562146 55.58590909174245" stroke-linejoin="bevel" stroke-miterlimit="10"/><path fill="blue" stroke="blue" paint-order="fill stroke markers" d=" M 852.2629851074889 79.7867132867134 A 5 5 0 1 1 852.2629826074891 79.78171328754672" stroke-linejoin="bevel" stroke-miterlimit="10"/><path fill="blue" stroke="blue" paint-order="fill stroke markers" d=" M 704.1442535356618 55.59090909090912 A 5 5 0 1 1 704.144251035662 55.58590909174245" stroke-linejoin="bevel" stroke-miterlimit="10"/><path fill="blue" stroke="blue" paint-order="fill stroke markers" d=" M 918.7354645957239 55.59090909090912 A 5 5 0 1 1 918.7354620957241 55.58590909174245" stroke-linejoin="bevel" stroke-miterlimit="10"/><path fill="blue" stroke="blue" paint-order="fill stroke markers" d=" M 827.3537580976263 55.59090909090912 A 5 5 0 1 1 827.3537555976264 55.58590909174245" stroke-linejoin="bevel" stroke-miterlimit="10"/><path fill="blue" stroke="blue" paint-order="fill stroke markers" d=" M 839.3333238954656 55.59090909090912 A 5 5 0 1 1 839.3333213954658 55.58590909174245" stroke-linejoin="bevel" stroke-miterlimit="10"/><path fill="blue" stroke="blue" paint-order="fill stroke markers" d=" M 869.63607793767 79.7867132867134 A 5 5 0 1 1 869.6360754376702 79.78171328754672" stroke-linejoin="bevel" stroke-miterlimit="10"/><path fill="blue" stroke="blue" paint-order="fill stroke markers" d=" M 851.0858947276138 77.3671328671328 A 5 5 0 1 1 851.085892227614 77.36213286796612" stroke-linejoin="bevel" stroke-miterlimit="10"/><path fill="red" stroke="red" paint-order="fill stroke markers" d=" M 377.55089678429067 522.5699300699301 A 5 5 0 1 1 377.5508942842909 522.5649300707635" stroke-linejoin="bevel" stroke-miterlimit="10"/><path fill="red" stroke="red" paint-order="fill stroke markers" d=" M 837.5679803751409 112.20909090909095 A 5 5 0 1 1 837.5679778751411 112.20409090992428" stroke-linejoin="bevel" stroke-miterlimit="10"/></g></g></g><g><g fill="#444444"><path fill="" stroke="none" d=""/><g transform="translate(49,27)"><path fill="none" stroke="none"/><text fill="" stroke="none" font-family="helvetica" font-size="10pt" font-style="normal" font-weight="bold" text-decoration="normal" x="0" y="0" text-anchor="start" dominant-baseline="text-after-edge"> Pase+ median score using a frame size of 16000 samples</text></g></g></g><g/><g><g fill="#444444"><path fill="none" stroke="black" paint-order="fill stroke markers" d=" M 49 551 L 995 551" stroke-linejoin="bevel" stroke-miterlimit="10"/><path fill="none" stroke="black" paint-order="fill stroke markers" d=" M 207 557 L 207 549" stroke-linejoin="bevel" stroke-miterlimit="10"/><path fill="none" stroke="black" paint-order="fill stroke markers" d=" M 436 557 L 436 549" stroke-linejoin="bevel" stroke-miterlimit="10"/><path fill="none" stroke="black" paint-order="fill stroke markers" d=" M 666 557 L 666 549" stroke-linejoin="bevel" stroke-miterlimit="10"/><path fill="none" stroke="black" paint-order="fill stroke markers" d=" M 895 557 L 895 549" stroke-linejoin="bevel" stroke-miterlimit="10"/><path fill="none" stroke="black" paint-order="fill stroke markers" d=" M 161 555 L 161 551" stroke-linejoin="bevel" stroke-miterlimit="10"/><path fill="none" stroke="black" paint-order="fill stroke markers" d=" M 115 555 L 115 551" stroke-linejoin="bevel" stroke-miterlimit="10"/><path fill="none" stroke="black" paint-order="fill stroke markers" d=" M 69 555 L 69 551" stroke-linejoin="bevel" stroke-miterlimit="10"/><path fill="none" stroke="black" paint-order="fill stroke markers" d=" M 207 555 L 207 551" stroke-linejoin="bevel" stroke-miterlimit="10"/><path fill="none" stroke="black" paint-order="fill stroke markers" d=" M 253 555 L 253 551" stroke-linejoin="bevel" stroke-miterlimit="10"/><path fill="none" stroke="black" paint-order="fill stroke markers" d=" M 299 555 L 299 551" stroke-linejoin="bevel" stroke-miterlimit="10"/><path fill="none" stroke="black" paint-order="fill stroke markers" d=" M 345 555 L 345 551" stroke-linejoin="bevel" stroke-miterlimit="10"/><path fill="none" stroke="black" paint-order="fill stroke markers" d=" M 390 555 L 390 551" stroke-linejoin="bevel" stroke-miterlimit="10"/><path fill="none" stroke="black" paint-order="fill stroke markers" d=" M 436 555 L 436 551" stroke-linejoin="bevel" stroke-miterlimit="10"/><path fill="none" stroke="black" paint-order="fill stroke markers" d=" M 482 555 L 482 551" stroke-linejoin="bevel" stroke-miterlimit="10"/><path fill="none" stroke="black" paint-order="fill stroke markers" d=" M 528 555 L 528 551" stroke-linejoin="bevel" stroke-miterlimit="10"/><path fill="none" stroke="black" paint-order="fill stroke markers" d=" M 574 555 L 574 551" stroke-linejoin="bevel" stroke-miterlimit="10"/><path fill="none" stroke="black" paint-order="fill stroke markers" d=" M 620 555 L 620 551" stroke-linejoin="bevel" stroke-miterlimit="10"/><path fill="none" stroke="black" paint-order="fill stroke markers" d=" M 666 555 L 666 551" stroke-linejoin="bevel" stroke-miterlimit="10"/><path fill="none" stroke="black" paint-order="fill stroke markers" d=" M 712 555 L 712 551" stroke-linejoin="bevel" stroke-miterlimit="10"/><path fill="none" stroke="black" paint-order="fill stroke markers" d=" M 757 555 L 757 551" stroke-linejoin="bevel" stroke-miterlimit="10"/><path fill="none" stroke="black" paint-order="fill stroke markers" d=" M 803 555 L 803 551" stroke-linejoin="bevel" stroke-miterlimit="10"/><path fill="none" stroke="black" paint-order="fill stroke markers" d=" M 849 555 L 849 551" stroke-linejoin="bevel" stroke-miterlimit="10"/><path fill="none" stroke="black" paint-order="fill stroke markers" d=" M 895 555 L 895 551" stroke-linejoin="bevel" stroke-miterlimit="10"/><path fill="none" stroke="black" paint-order="fill stroke markers" d=" M 941 555 L 941 551" stroke-linejoin="bevel" stroke-miterlimit="10"/><path fill="" stroke="black" paint-order="fill stroke markers" d=" M 987 555 L 987 551" stroke-linejoin="bevel" stroke-miterlimit="10"/><g transform="translate(207,562) rotate(0,0,0)"><text fill="" stroke="none" font-family="helvetica" font-size="8pt" font-style="normal" font-weight="normal" text-decoration="normal" x="0" y="0" text-anchor="middle" dominant-baseline="hanging">0.9994</text><g transform="rotate(0,0,0) translate(-207,-562) translate(436,562) rotate(0,0,0)"><text fill="" stroke="none" font-family="helvetica" font-size="8pt" font-style="normal" font-weight="normal" text-decoration="normal" x="0" y="0" text-anchor="middle" dominant-baseline="hanging">0.9995</text><g transform="rotate(0,0,0) translate(-436,-562) translate(666,562) rotate(0,0,0)"><text fill="" stroke="none" font-family="helvetica" font-size="8pt" font-style="normal" font-weight="normal" text-decoration="normal" x="0" y="0" text-anchor="middle" dominant-baseline="hanging">0.9996</text><g transform="rotate(0,0,0) translate(-666,-562) translate(895,562) rotate(0,0,0)"><text fill="" stroke="none" font-family="helvetica" font-size="8pt" font-style="normal" font-weight="normal" text-decoration="normal" x="0" y="0" text-anchor="middle" dominant-baseline="hanging">0.9997</text><g transform="rotate(0,0,0) translate(-895,-562) translate(522,582) rotate(0,0,0)"><text fill="" stroke="none" font-family="helvetica" font-size="10pt" font-style="italic" font-weight="normal" text-decoration="normal" x="0" y="0" text-anchor="middle" dominant-baseline="hanging">zscore Pase+ median score</text><g transform="rotate(0,0,0) translate(-522,-582)"/></g></g></g></g></g></g></g><g><g fill="#444444"><path fill="none" stroke="black" paint-order="fill stroke markers" d=" M 49 551 L 49 32" stroke-linejoin="bevel" stroke-miterlimit="10"/><path fill="none" stroke="black" paint-order="fill stroke markers" d=" M 43 491 L 51 491" stroke-linejoin="bevel" stroke-miterlimit="10"/><path fill="none" stroke="black" paint-order="fill stroke markers" d=" M 43 419 L 51 419" stroke-linejoin="bevel" stroke-miterlimit="10"/><path fill="none" stroke="black" paint-order="fill stroke markers" d=" M 43 346 L 51 346" stroke-linejoin="bevel" stroke-miterlimit="10"/><path fill="none" stroke="black" paint-order="fill stroke markers" d=" M 43 273 L 51 273" stroke-linejoin="bevel" stroke-miterlimit="10"/><path fill="none" stroke="black" paint-order="fill stroke markers" d=" M 43 201 L 51 201" stroke-linejoin="bevel" stroke-miterlimit="10"/><path fill="none" stroke="black" paint-order="fill stroke markers" d=" M 43 128 L 51 128" stroke-linejoin="bevel" stroke-miterlimit="10"/><path fill="none" stroke="black" paint-order="fill stroke markers" d=" M 43 56 L 51 56" stroke-linejoin="bevel" stroke-miterlimit="10"/><path fill="none" stroke="black" paint-order="fill stroke markers" d=" M 45 506 L 49 506" stroke-linejoin="bevel" stroke-miterlimit="10"/><path fill="none" stroke="black" paint-order="fill stroke markers" d=" M 45 520 L 49 520" stroke-linejoin="bevel" stroke-miterlimit="10"/><path fill="none" stroke="black" paint-order="fill stroke markers" d=" M 45 535 L 49 535" stroke-linejoin="bevel" stroke-miterlimit="10"/><path fill="none" stroke="black" paint-order="fill stroke markers" d=" M 45 549 L 49 549" stroke-linejoin="bevel" stroke-miterlimit="10"/><path fill="none" stroke="black" paint-order="fill stroke markers" d=" M 45 491 L 49 491" stroke-linejoin="bevel" stroke-miterlimit="10"/><path fill="none" stroke="black" paint-order="fill stroke markers" d=" M 45 477 L 49 477" stroke-linejoin="bevel" stroke-miterlimit="10"/><path fill="none" stroke="black" paint-order="fill stroke markers" d=" M 45 462 L 49 462" stroke-linejoin="bevel" stroke-miterlimit="10"/><path fill="none" stroke="black" paint-order="fill stroke markers" d=" M 45 448 L 49 448" stroke-linejoin="bevel" stroke-miterlimit="10"/><path fill="none" stroke="black" paint-order="fill stroke markers" d=" M 45 433 L 49 433" stroke-linejoin="bevel" stroke-miterlimit="10"/><path fill="none" stroke="black" paint-order="fill stroke markers" d=" M 45 419 L 49 419" stroke-linejoin="bevel" stroke-miterlimit="10"/><path fill="none" stroke="black" paint-order="fill stroke markers" d=" M 45 404 L 49 404" stroke-linejoin="bevel" stroke-miterlimit="10"/><path fill="none" stroke="black" paint-order="fill stroke markers" d=" M 45 389 L 49 389" stroke-linejoin="bevel" stroke-miterlimit="10"/><path fill="none" stroke="black" paint-order="fill stroke markers" d=" M 45 375 L 49 375" stroke-linejoin="bevel" stroke-miterlimit="10"/><path fill="none" stroke="black" paint-order="fill stroke markers" d=" M 45 360 L 49 360" stroke-linejoin="bevel" stroke-miterlimit="10"/><path fill="none" stroke="black" paint-order="fill stroke markers" d=" M 45 346 L 49 346" stroke-linejoin="bevel" stroke-miterlimit="10"/><path fill="none" stroke="black" paint-order="fill stroke markers" d=" M 45 331 L 49 331" stroke-linejoin="bevel" stroke-miterlimit="10"/><path fill="none" stroke="black" paint-order="fill stroke markers" d=" M 45 317 L 49 317" stroke-linejoin="bevel" stroke-miterlimit="10"/><path fill="none" stroke="black" paint-order="fill stroke markers" d=" M 45 302 L 49 302" stroke-linejoin="bevel" stroke-miterlimit="10"/><path fill="none" stroke="black" paint-order="fill stroke markers" d=" M 45 288 L 49 288" stroke-linejoin="bevel" stroke-miterlimit="10"/><path fill="none" stroke="black" paint-order="fill stroke markers" d=" M 45 273 L 49 273" stroke-linejoin="bevel" stroke-miterlimit="10"/><path fill="none" stroke="black" paint-order="fill stroke markers" d=" M 45 259 L 49 259" stroke-linejoin="bevel" stroke-miterlimit="10"/><path fill="none" stroke="black" paint-order="fill stroke markers" d=" M 45 244 L 49 244" stroke-linejoin="bevel" stroke-miterlimit="10"/><path fill="none" stroke="black" paint-order="fill stroke markers" d=" M 45 230 L 49 230" stroke-linejoin="bevel" stroke-miterlimit="10"/><path fill="none" stroke="black" paint-order="fill stroke markers" d=" M 45 215 L 49 215" stroke-linejoin="bevel" stroke-miterlimit="10"/><path fill="none" stroke="black" paint-order="fill stroke markers" d=" M 45 201 L 49 201" stroke-linejoin="bevel" stroke-miterlimit="10"/><path fill="none" stroke="black" paint-order="fill stroke markers" d=" M 45 186 L 49 186" stroke-linejoin="bevel" stroke-miterlimit="10"/><path fill="none" stroke="black" paint-order="fill stroke markers" d=" M 45 172 L 49 172" stroke-linejoin="bevel" stroke-miterlimit="10"/><path fill="none" stroke="black" paint-order="fill stroke markers" d=" M 45 157 L 49 157" stroke-linejoin="bevel" stroke-miterlimit="10"/><path fill="none" stroke="black" paint-order="fill stroke markers" d=" M 45 143 L 49 143" stroke-linejoin="bevel" stroke-miterlimit="10"/><path fill="none" stroke="black" paint-order="fill stroke markers" d=" M 45 128 L 49 128" stroke-linejoin="bevel" stroke-miterlimit="10"/><path fill="none" stroke="black" paint-order="fill stroke markers" d=" M 45 114 L 49 114" stroke-linejoin="bevel" stroke-miterlimit="10"/><path fill="none" stroke="black" paint-order="fill stroke markers" d=" M 45 99 L 49 99" stroke-linejoin="bevel" stroke-miterlimit="10"/><path fill="none" stroke="black" paint-order="fill stroke markers" d=" M 45 85 L 49 85" stroke-linejoin="bevel" stroke-miterlimit="10"/><path fill="none" stroke="black" paint-order="fill stroke markers" d=" M 45 70 L 49 70" stroke-linejoin="bevel" stroke-miterlimit="10"/><path fill="none" stroke="black" paint-order="fill stroke markers" d=" M 45 56 L 49 56" stroke-linejoin="bevel" stroke-miterlimit="10"/><path fill="" stroke="black" paint-order="fill stroke markers" d=" M 45 41 L 49 41" stroke-linejoin="bevel" stroke-miterlimit="10"/><g transform="translate(38,491) rotate(0,0,0)"><text fill="" stroke="none" font-family="helvetica" font-size="8pt" font-style="normal" font-weight="normal" text-decoration="normal" x="0" y="0" text-anchor="end" dominant-baseline="central">4</text><g transform="rotate(0,0,0) translate(-38,-491) translate(38,419) rotate(0,0,0)"><text fill="" stroke="none" font-family="helvetica" font-size="8pt" font-style="normal" font-weight="normal" text-decoration="normal" x="0" y="0" text-anchor="end" dominant-baseline="central">5</text><g transform="rotate(0,0,0) translate(-38,-419) translate(38,346) rotate(0,0,0)"><text fill="" stroke="none" font-family="helvetica" font-size="8pt" font-style="normal" font-weight="normal" text-decoration="normal" x="0" y="0" text-anchor="end" dominant-baseline="central">6</text><g transform="rotate(0,0,0) translate(-38,-346) translate(38,273) rotate(0,0,0)"><text fill="" stroke="none" font-family="helvetica" font-size="8pt" font-style="normal" font-weight="normal" text-decoration="normal" x="0" y="0" text-anchor="end" dominant-baseline="central">7</text><g transform="rotate(0,0,0) translate(-38,-273) translate(38,201) rotate(0,0,0)"><text fill="" stroke="none" font-family="helvetica" font-size="8pt" font-style="normal" font-weight="normal" text-decoration="normal" x="0" y="0" text-anchor="end" dominant-baseline="central">8</text><g transform="rotate(0,0,0) translate(-38,-201) translate(38,128) rotate(0,0,0)"><text fill="" stroke="none" font-family="helvetica" font-size="8pt" font-style="normal" font-weight="normal" text-decoration="normal" x="0" y="0" text-anchor="end" dominant-baseline="central">9</text><g transform="rotate(0,0,0) translate(-38,-128) translate(38,56) rotate(0,0,0)"><text fill="" stroke="none" font-family="helvetica" font-size="8pt" font-style="normal" font-weight="normal" text-decoration="normal" x="0" y="0" text-anchor="end" dominant-baseline="central">10</text><g transform="rotate(0,0,0) translate(-38,-56) translate(18,292) rotate(-90,0,0)"><text fill="" stroke="none" font-family="helvetica" font-size="10pt" font-style="italic" font-weight="normal" text-decoration="normal" x="0" y="0" text-anchor="middle" dominant-baseline="alphabetic">Intelligibility</text><g transform="rotate(90,0,0) translate(-18,-292)"/></g></g></g></g></g></g></g></g></g></g><g clip-path="url(#kruAWlWmfFec)"><g/></g></g></g></svg>