<svg version="1.1" xmlns="http://www.w3.org/2000/svg" xmlns:xlink="http://www.w3.org/1999/xlink" width="1000" height="600" style="width: 1000px; height: 600px;"><defs><clipPath id="agdEtiZOIZTB"><path fill="none" stroke="none" d=" M 49 32 L 995 32 L 995 551 L 49 551 L 49 32 Z"/></clipPath><clipPath id="FETEDRVeWayA"><path fill="none" stroke="none" d=" M 49 32 L 995 32 L 995 551 L 49 551 L 49 32 Z"/></clipPath><clipPath id="crcgmpNqeLlo"><path fill="none" stroke="none" d=" M 49 32 L 995 32 L 995 551 L 49 551 L 49 32 Z"/></clipPath><clipPath id="IGIkLeaZTyxX"><path fill="none" stroke="none" d=" M 49 32 L 995 32 L 995 551 L 49 551 L 49 32 Z"/></clipPath></defs><g><g transform="scale(1,1) translate(0.5,0.5)"><rect fill="#FFFFFF" stroke="none" x="0" y="0" width="1000" height="600"/><rect fill="#ffffff" stroke="none" x="0" y="0" width="1000" height="600"/><rect fill="#FFFFFF" stroke="none" x="49" y="32" width="946" height="519"/><rect fill="#ffffff" stroke="none" x="49" y="32" width="946" height="519"/><g><rect fill="none" stroke="#e5e5e5" x="49" y="32" width="946" height="519" stroke-linejoin="bevel" stroke-miterlimit="10"/></g><g clip-path="url(#agdEtiZOIZTB)"><g><g><path fill="none" stroke="#e5e5e5" paint-order="fill stroke markers" d=" M 66 551 L 66 32" stroke-linejoin="bevel" stroke-miterlimit="10"/><path fill="none" stroke="#e5e5e5" paint-order="fill stroke markers" d=" M 177 551 L 177 32" stroke-linejoin="bevel" stroke-miterlimit="10"/><path fill="none" stroke="#e5e5e5" paint-order="fill stroke markers" d=" M 288 551 L 288 32" stroke-linejoin="bevel" stroke-miterlimit="10"/><path fill="none" stroke="#e5e5e5" paint-order="fill stroke markers" d=" M 399 551 L 399 32" stroke-linejoin="bevel" stroke-miterlimit="10"/><path fill="none" stroke="#e5e5e5" paint-order="fill stroke markers" d=" M 511 551 L 511 32" stroke-linejoin="bevel" stroke-miterlimit="10"/><path fill="none" stroke="#e5e5e5" paint-order="fill stroke markers" d=" M 622 551 L 622 32" stroke-linejoin="bevel" stroke-miterlimit="10"/><path fill="none" stroke="#e5e5e5" paint-order="fill stroke markers" d=" M 733 551 L 733 32" stroke-linejoin="bevel" stroke-miterlimit="10"/><path fill="none" stroke="#e5e5e5" paint-order="fill stroke markers" d=" M 844 551 L 844 32" stroke-linejoin="bevel" stroke-miterlimit="10"/><path fill="none" stroke="#e5e5e5" paint-order="fill stroke markers" d=" M 955 551 L 955 32" stroke-linejoin="bevel" stroke-miterlimit="10"/></g></g></g><g clip-path="url(#FETEDRVeWayA)"><g><g><path fill="none" stroke="#e5e5e5" paint-order="fill stroke markers" d=" M 49 491 L 995 491" stroke-linejoin="bevel" stroke-miterlimit="10"/><path fill="none" stroke="#e5e5e5" paint-order="fill stroke markers" d=" M 49 419 L 995 419" stroke-linejoin="bevel" stroke-miterlimit="10"/><path fill="none" stroke="#e5e5e5" paint-order="fill stroke markers" d=" M 49 346 L 995 346" stroke-linejoin="bevel" stroke-miterlimit="10"/><path fill="none" stroke="#e5e5e5" paint-order="fill stroke markers" d=" M 49 273 L 995 273" stroke-linejoin="bevel" stroke-miterlimit="10"/><path fill="none" stroke="#e5e5e5" paint-order="fill stroke markers" d=" M 49 201 L 995 201" stroke-linejoin="bevel" stroke-miterlimit="10"/><path fill="none" stroke="#e5e5e5" paint-order="fill stroke markers" d=" M 49 128 L 995 128" stroke-linejoin="bevel" stroke-miterlimit="10"/><path fill="none" stroke="#e5e5e5" paint-order="fill stroke markers" d=" M 49 56 L 995 56" stroke-linejoin="bevel" stroke-miterlimit="10"/></g></g></g><g clip-path="url(#crcgmpNqeLlo)"><g><g><path fill="none" stroke="none"/><path fill="red" stroke="red" paint-order="fill stroke markers" d=" M 645.413236618042 189.15174825174824 A 5 5 0 1 1 645.4132341180422 189.14674825258157" stroke-linejoin="bevel" stroke-miterlimit="10"/><path fill="red" stroke="red" paint-order="fill stroke markers" d=" M 521.0811538696289 171.73076923076928 A 5 5 0 1 1 521.0811513696291 171.7257692316026" stroke-linejoin="bevel" stroke-miterlimit="10"/><path fill="red" stroke="red" paint-order="fill stroke markers" d=" M 941.0036182403564 345.94055944055947 A 5 5 0 1 1 941.0036157403566 345.9355594413928" stroke-linejoin="bevel" stroke-miterlimit="10"/><path fill="red" stroke="red" paint-order="fill stroke markers" d=" M 393.26652908325195 79.7867132867134 A 5 5 0 1 1 393.2665265832522 79.78171328754672" stroke-linejoin="bevel" stroke-miterlimit="10"/><path fill="blue" stroke="blue" paint-order="fill stroke markers" d=" M 184.73559951782227 55.59090909090912 A 5 5 0 1 1 184.73559701782247 55.58590909174245" stroke-linejoin="bevel" stroke-miterlimit="10"/><path fill="red" stroke="red" paint-order="fill stroke markers" d=" M 782.530424118042 454.82167832167835 A 5 5 0 1 1 782.5304216180422 454.8166783225117" stroke-linejoin="bevel" stroke-miterlimit="10"/><path fill="red" stroke="red" paint-order="fill stroke markers" d=" M 826.4046545028687 159.6328671328671 A 5 5 0 1 1 826.4046520028688 159.62786713370042" stroke-linejoin="bevel" stroke-miterlimit="10"/><path fill="red" stroke="red" paint-order="fill stroke markers" d=" M 377.19796657562256 130.59790209790208 A 5 5 0 1 1 377.1979640756228 130.5929020987354" stroke-linejoin="bevel" stroke-miterlimit="10"/><path fill="red" stroke="red" paint-order="fill stroke markers" d=" M 470.89067935943604 70.10839160839157 A 5 5 0 1 1 470.89067685943627 70.1033916092249" stroke-linejoin="bevel" stroke-miterlimit="10"/><path fill="red" stroke="red" paint-order="fill stroke markers" d=" M 600.4055976867676 418.52797202797206 A 5 5 0 1 1 600.4055951867678 418.5229720288054" stroke-linejoin="bevel" stroke-miterlimit="10"/><path fill="red" stroke="red" paint-order="fill stroke markers" d=" M 603.1337289810181 133.01748251748268 A 5 5 0 1 1 603.1337264810182 133.012482518316" stroke-linejoin="bevel" stroke-miterlimit="10"/><path fill="red" stroke="red" paint-order="fill stroke markers" d=" M 275.9130058288574 120.91958041958048 A 5 5 0 1 1 275.91300332885766 120.91458042041381" stroke-linejoin="bevel" stroke-miterlimit="10"/><path fill="red" stroke="red" paint-order="fill stroke markers" d=" M 319.35551834106445 133.01748251748268 A 5 5 0 1 1 319.3555158410647 133.012482518316" stroke-linejoin="bevel" stroke-miterlimit="10"/><path fill="red" stroke="red" paint-order="fill stroke markers" d=" M 566.9601421356201 128.1783216783217 A 5 5 0 1 1 566.9601396356203 128.17332167915504" stroke-linejoin="bevel" stroke-miterlimit="10"/><path fill="red" stroke="red" paint-order="fill stroke markers" d=" M 394.9354639053345 135.43706293706293 A 5 5 0 1 1 394.9354614053347 135.43206293789626" stroke-linejoin="bevel" stroke-miterlimit="10"/><path fill="red" stroke="red" paint-order="fill stroke markers" d=" M 575.5186033248901 106.40209790209803 A 5 5 0 1 1 575.5186008248903 106.39709790293136" stroke-linejoin="bevel" stroke-miterlimit="10"/><path fill="red" stroke="red" paint-order="fill stroke markers" d=" M 753.5393810272217 151.4062937062938 A 5 5 0 1 1 753.5393785272219 151.40129370712714" stroke-linejoin="bevel" stroke-miterlimit="10"/><path fill="red" stroke="red" paint-order="fill stroke markers" d=" M 466.76452827453613 128.1783216783217 A 5 5 0 1 1 466.76452577453637 128.17332167915504" stroke-linejoin="bevel" stroke-miterlimit="10"/><path fill="red" stroke="red" paint-order="fill stroke markers" d=" M 314.896071434021 65.75314685314697 A 5 5 0 1 1 314.89606893402123 65.7481468539803" stroke-linejoin="bevel" stroke-miterlimit="10"/><path fill="red" stroke="red" paint-order="fill stroke markers" d=" M 450.50786876678467 108.8216783216784 A 5 5 0 1 1 450.5078662667849 108.81667832251173" stroke-linejoin="bevel" stroke-miterlimit="10"/><path fill="red" stroke="red" paint-order="fill stroke markers" d=" M 362.244610786438 74.94755244755254 A 5 5 0 1 1 362.2446082864382 74.94255244838587" stroke-linejoin="bevel" stroke-miterlimit="10"/><path fill="red" stroke="red" paint-order="fill stroke markers" d=" M 706.2471294403076 128.1783216783217 A 5 5 0 1 1 706.2471269403078 128.17332167915504" stroke-linejoin="bevel" stroke-miterlimit="10"/><path fill="red" stroke="red" paint-order="fill stroke markers" d=" M 746.8128108978271 186.24825174825185 A 5 5 0 1 1 746.8128083978273 186.24325174908518" stroke-linejoin="bevel" stroke-miterlimit="10"/><path fill="red" stroke="red" paint-order="fill stroke markers" d=" M 439.42052841186523 62.84965034965035 A 5 5 0 1 1 439.42052591186547 62.844650350483676" stroke-linejoin="bevel" stroke-miterlimit="10"/><path fill="red" stroke="red" paint-order="fill stroke markers" d=" M 467.42919158935547 58.01048951048949 A 5 5 0 1 1 467.4291890893557 58.00548951132282" stroke-linejoin="bevel" stroke-miterlimit="10"/><path fill="red" stroke="red" paint-order="fill stroke markers" d=" M 536.9609498977661 152.37412587412598 A 5 5 0 1 1 536.9609473977663 152.3691258749593" stroke-linejoin="bevel" stroke-miterlimit="10"/><path fill="red" stroke="red" paint-order="fill stroke markers" d=" M 431.2471628189087 152.37412587412598 A 5 5 0 1 1 431.2471603189089 152.3691258749593" stroke-linejoin="bevel" stroke-miterlimit="10"/><path fill="red" stroke="red" paint-order="fill stroke markers" d=" M 903.8485345840454 222.54195804195808 A 5 5 0 1 1 903.8485320840456 222.5369580427914" stroke-linejoin="bevel" stroke-miterlimit="10"/><path fill="red" stroke="red" paint-order="fill stroke markers" d=" M 790.119122505188 149.9545454545455 A 5 5 0 1 1 790.1191200051882 149.94954545537882" stroke-linejoin="bevel" stroke-miterlimit="10"/><path fill="red" stroke="red" paint-order="fill stroke markers" d=" M 691.0078887939453 149.95454545454538 A 5 5 0 1 1 691.0078862939455 149.9495454553787" stroke-linejoin="bevel" stroke-miterlimit="10"/><path fill="red" stroke="red" paint-order="fill stroke markers" d=" M 626.1305322647095 170.27902097902097 A 5 5 0 1 1 626.1305297647096 170.2740209798543" stroke-linejoin="bevel" stroke-miterlimit="10"/><path fill="red" stroke="red" paint-order="fill stroke markers" d=" M 367.5033473968506 125.75874125874134 A 5 5 0 1 1 367.5033448968508 125.75374125957467" stroke-linejoin="bevel" stroke-miterlimit="10"/><path fill="red" stroke="red" paint-order="fill stroke markers" d=" M 577.6310997009277 101.56293706293707 A 5 5 0 1 1 577.6310972009279 101.5579370637704" stroke-linejoin="bevel" stroke-miterlimit="10"/><path fill="red" stroke="red" paint-order="fill stroke markers" d=" M 548.3563442230225 70.10839160839157 A 5 5 0 1 1 548.3563417230226 70.1033916092249" stroke-linejoin="bevel" stroke-miterlimit="10"/><path fill="red" stroke="red" paint-order="fill stroke markers" d=" M 224.74989891052246 79.7867132867134 A 5 5 0 1 1 224.74989641052267 79.78171328754672" stroke-linejoin="bevel" stroke-miterlimit="10"/><path fill="red" stroke="red" paint-order="fill stroke markers" d=" M 392.6645565032959 55.59090909090912 A 5 5 0 1 1 392.66455400329613 55.58590909174245" stroke-linejoin="bevel" stroke-miterlimit="10"/><path fill="red" stroke="red" paint-order="fill stroke markers" d=" M 324.4823932647705 128.1783216783217 A 5 5 0 1 1 324.48239076477074 128.17332167915504" stroke-linejoin="bevel" stroke-miterlimit="10"/><path fill="red" stroke="red" paint-order="fill stroke markers" d=" M 814.5351486206055 174.15034965034965 A 5 5 0 1 1 814.5351461206056 174.14534965118298" stroke-linejoin="bevel" stroke-miterlimit="10"/><path fill="red" stroke="red" paint-order="fill stroke markers" d=" M 593.0265769958496 149.95454545454538 A 5 5 0 1 1 593.0265744958498 149.9495454553787" stroke-linejoin="bevel" stroke-miterlimit="10"/><path fill="red" stroke="red" paint-order="fill stroke markers" d=" M 266.0854253768921 111.24125874125878 A 5 5 0 1 1 266.0854228768923 111.2362587420921" stroke-linejoin="bevel" stroke-miterlimit="10"/><path fill="red" stroke="red" paint-order="fill stroke markers" d=" M 632.5679702758789 258.8356643356643 A 5 5 0 1 1 632.5679677758791 258.83066433649765" stroke-linejoin="bevel" stroke-miterlimit="10"/><path fill="red" stroke="red" paint-order="fill stroke markers" d=" M 581.2905197143555 108.82167832167829 A 5 5 0 1 1 581.2905172143556 108.81667832251162" stroke-linejoin="bevel" stroke-miterlimit="10"/><path fill="red" stroke="red" paint-order="fill stroke markers" d=" M 840.8069105148315 266.09440559440554 A 5 5 0 1 1 840.8069080148317 266.0894055952389" stroke-linejoin="bevel" stroke-miterlimit="10"/><path fill="red" stroke="red" paint-order="fill stroke markers" d=" M 682.8809537887573 205.60489510489515 A 5 5 0 1 1 682.8809512887575 205.59989510572848" stroke-linejoin="bevel" stroke-miterlimit="10"/><path fill="red" stroke="red" paint-order="fill stroke markers" d=" M 632.0554990768433 203.18531468531478 A 5 5 0 1 1 632.0554965768434 203.1803146861481" stroke-linejoin="bevel" stroke-miterlimit="10"/><path fill="red" stroke="red" paint-order="fill stroke markers" d=" M 625.7449607849121 116.56433566433566 A 5 5 0 1 1 625.7449582849123 116.55933566516899" stroke-linejoin="bevel" stroke-miterlimit="10"/><path fill="red" stroke="red" paint-order="fill stroke markers" d=" M 445.75535774230957 84.62587412587413 A 5 5 0 1 1 445.7553552423098 84.62087412670746" stroke-linejoin="bevel" stroke-miterlimit="10"/><path fill="red" stroke="red" paint-order="fill stroke markers" d=" M 337.91665840148926 78.81888111888122 A 5 5 0 1 1 337.9166559014895 78.81388111971455" stroke-linejoin="bevel" stroke-miterlimit="10"/><path fill="red" stroke="red" paint-order="fill stroke markers" d=" M 717.5275392532349 142.69580419580416 A 5 5 0 1 1 717.527536753235 142.6908041966375" stroke-linejoin="bevel" stroke-miterlimit="10"/><path fill="red" stroke="red" paint-order="fill stroke markers" d=" M 500.1146192550659 101.56293706293707 A 5 5 0 1 1 500.11461675506615 101.5579370637704" stroke-linejoin="bevel" stroke-miterlimit="10"/><path fill="red" stroke="red" paint-order="fill stroke markers" d=" M 494.1291723251343 103.98251748251744 A 5 5 0 1 1 494.1291698251345 103.97751748335077" stroke-linejoin="bevel" stroke-miterlimit="10"/><path fill="red" stroke="red" paint-order="fill stroke markers" d=" M 676.9699697494507 428.6902097902098 A 5 5 0 1 1 676.9699672494509 428.6852097910431" stroke-linejoin="bevel" stroke-miterlimit="10"/><path fill="red" stroke="red" paint-order="fill stroke markers" d=" M 179.5438470840454 72.52797202797206 A 5 5 0 1 1 179.54384458404562 72.52297202880538" stroke-linejoin="bevel" stroke-miterlimit="10"/><path fill="red" stroke="red" paint-order="fill stroke markers" d=" M 769.0068855285645 527.409090909091 A 5 5 0 1 1 769.0068830285646 527.4040909099243" stroke-linejoin="bevel" stroke-miterlimit="10"/><path fill="red" stroke="red" paint-order="fill stroke markers" d=" M 600.3454170227051 152.37412587412598 A 5 5 0 1 1 600.3454145227053 152.3691258749593" stroke-linejoin="bevel" stroke-miterlimit="10"/><path fill="red" stroke="red" paint-order="fill stroke markers" d=" M 419.989031791687 101.56293706293707 A 5 5 0 1 1 419.98902929168725 101.5579370637704" stroke-linejoin="bevel" stroke-miterlimit="10"/><path fill="red" stroke="red" paint-order="fill stroke markers" d=" M 380.8265428543091 171.73076923076928 A 5 5 0 1 1 380.8265403543093 171.7257692316026" stroke-linejoin="bevel" stroke-miterlimit="10"/><path fill="red" stroke="red" paint-order="fill stroke markers" d=" M 97 74.94755244755254 A 5 5 0 1 1 96.9999975000002 74.94255244838587" stroke-linejoin="bevel" stroke-miterlimit="10"/><path fill="red" stroke="red" paint-order="fill stroke markers" d=" M 612.7452011108398 129.6300699300699 A 5 5 0 1 1 612.74519861084 129.62506993090324" stroke-linejoin="bevel" stroke-miterlimit="10"/><path fill="red" stroke="red" paint-order="fill stroke markers" d=" M 534.8109445571899 118.01608391608386 A 5 5 0 1 1 534.8109420571901 118.01108391691719" stroke-linejoin="bevel" stroke-miterlimit="10"/><path fill="red" stroke="red" paint-order="fill stroke markers" d=" M 555.3760633468628 57.04265734265732 A 5 5 0 1 1 555.376060846863 57.03765734349065" stroke-linejoin="bevel" stroke-miterlimit="10"/><path fill="red" stroke="red" paint-order="fill stroke markers" d=" M 819.9462289810181 183.82867132867136 A 5 5 0 1 1 819.9462264810182 183.8236713295047" stroke-linejoin="bevel" stroke-miterlimit="10"/><path fill="red" stroke="red" paint-order="fill stroke markers" d=" M 378.51160430908203 77.36713286713291 A 5 5 0 1 1 378.51160180908226 77.36213286796624" stroke-linejoin="bevel" stroke-miterlimit="10"/><path fill="red" stroke="red" paint-order="fill stroke markers" d=" M 514.0106325149536 135.43706293706293 A 5 5 0 1 1 514.0106300149538 135.43206293789626" stroke-linejoin="bevel" stroke-miterlimit="10"/><path fill="red" stroke="red" paint-order="fill stroke markers" d=" M 550.4298830032349 106.40209790209792 A 5 5 0 1 1 550.429880503235 106.39709790293125" stroke-linejoin="bevel" stroke-miterlimit="10"/><path fill="red" stroke="red" paint-order="fill stroke markers" d=" M 447.1709461212158 103.98251748251744 A 5 5 0 1 1 447.17094362121605 103.97751748335077" stroke-linejoin="bevel" stroke-miterlimit="10"/><path fill="red" stroke="red" paint-order="fill stroke markers" d=" M 800.9307994842529 152.37412587412598 A 5 5 0 1 1 800.9307969842531 152.3691258749593" stroke-linejoin="bevel" stroke-miterlimit="10"/><path fill="red" stroke="red" paint-order="fill stroke markers" d=" M 536.3587312698364 58.01048951048949 A 5 5 0 1 1 536.3587287698366 58.00548951132282" stroke-linejoin="bevel" stroke-miterlimit="10"/><path fill="red" stroke="red" paint-order="fill stroke markers" d=" M 957 213.83146853146854 A 5 5 0 1 1 956.9999975000002 213.82646853230187" stroke-linejoin="bevel" stroke-miterlimit="10"/><path fill="red" stroke="red" paint-order="fill stroke markers" d=" M 819.3935165405273 219.63846153846157 A 5 5 0 1 1 819.3935140405275 219.6334615392949" stroke-linejoin="bevel" stroke-miterlimit="10"/><path fill="red" stroke="red" paint-order="fill stroke markers" d=" M 283.06510639190674 79.7867132867134 A 5 5 0 1 1 283.065103891907 79.78171328754672" stroke-linejoin="bevel" stroke-miterlimit="10"/><path fill="red" stroke="red" paint-order="fill stroke markers" d=" M 510.67480278015137 106.40209790209803 A 5 5 0 1 1 510.6748002801516 106.39709790293136" stroke-linejoin="bevel" stroke-miterlimit="10"/><path fill="red" stroke="red" paint-order="fill stroke markers" d=" M 340.82454776763916 128.1783216783217 A 5 5 0 1 1 340.8245452676394 128.17332167915504" stroke-linejoin="bevel" stroke-miterlimit="10"/><path fill="red" stroke="red" paint-order="fill stroke markers" d=" M 862.9630136489868 178.9895104895105 A 5 5 0 1 1 862.963011148987 178.98451049034384" stroke-linejoin="bevel" stroke-miterlimit="10"/><path fill="red" stroke="red" paint-order="fill stroke markers" d=" M 662.5126791000366 212.86363636363637 A 5 5 0 1 1 662.5126766000368 212.8586363644697" stroke-linejoin="bevel" stroke-miterlimit="10"/><path fill="red" stroke="red" paint-order="fill stroke markers" d=" M 472.133412361145 77.3671328671328 A 5 5 0 1 1 472.13340986114525 77.36213286796612" stroke-linejoin="bevel" stroke-miterlimit="10"/><path fill="red" stroke="red" paint-order="fill stroke markers" d=" M 377.31085681915283 86.07762237762245 A 5 5 0 1 1 377.31085431915307 86.07262237845578" stroke-linejoin="bevel" stroke-miterlimit="10"/><path fill="red" stroke="red" paint-order="fill stroke markers" d=" M 513.5678014755249 78.81888111888122 A 5 5 0 1 1 513.5677989755251 78.81388111971455" stroke-linejoin="bevel" stroke-miterlimit="10"/><path fill="red" stroke="red" paint-order="fill stroke markers" d=" M 774.7483596801758 234.15594405594402 A 5 5 0 1 1 774.748357180176 234.15094405677735" stroke-linejoin="bevel" stroke-miterlimit="10"/><path fill="red" stroke="red" paint-order="fill stroke markers" d=" M 464.35085010528564 130.59790209790208 A 5 5 0 1 1 464.3508476052859 130.5929020987354" stroke-linejoin="bevel" stroke-miterlimit="10"/><path fill="red" stroke="red" paint-order="fill stroke markers" d=" M 771.1663665771484 183.34475524475522 A 5 5 0 1 1 771.1663640771486 183.33975524558855" stroke-linejoin="bevel" stroke-miterlimit="10"/><path fill="red" stroke="red" paint-order="fill stroke markers" d=" M 421.23283672332764 86.07762237762245 A 5 5 0 1 1 421.23283422332787 86.07262237845578" stroke-linejoin="bevel" stroke-miterlimit="10"/><path fill="red" stroke="red" paint-order="fill stroke markers" d=" M 891.8188400268555 180.44125874125882 A 5 5 0 1 1 891.8188375268556 180.43625874209215" stroke-linejoin="bevel" stroke-miterlimit="10"/><path fill="red" stroke="red" paint-order="fill stroke markers" d=" M 543.8031530380249 71.56013986013988 A 5 5 0 1 1 543.8031505380251 71.55513986097321" stroke-linejoin="bevel" stroke-miterlimit="10"/><path fill="red" stroke="red" paint-order="fill stroke markers" d=" M 404.7167863845825 112.20909090909095 A 5 5 0 1 1 404.71678388458275 112.20409090992428" stroke-linejoin="bevel" stroke-miterlimit="10"/><path fill="red" stroke="red" paint-order="fill stroke markers" d=" M 472.85854053497314 91.88461538461536 A 5 5 0 1 1 472.8585380349734 91.87961538544869" stroke-linejoin="bevel" stroke-miterlimit="10"/><path fill="red" stroke="red" paint-order="fill stroke markers" d=" M 431.30863761901855 57.40559440559446 A 5 5 0 1 1 431.3086351190188 57.400594406427786" stroke-linejoin="bevel" stroke-miterlimit="10"/><path fill="red" stroke="red" paint-order="fill stroke markers" d=" M 511.08373069763184 120.91958041958048 A 5 5 0 1 1 511.08372819763207 120.91458042041381" stroke-linejoin="bevel" stroke-miterlimit="10"/><path fill="blue" stroke="blue" paint-order="fill stroke markers" d=" M 435.229416847229 55.59090909090912 A 5 5 0 1 1 435.22941434722924 55.58590909174245" stroke-linejoin="bevel" stroke-miterlimit="10"/><path fill="blue" stroke="blue" paint-order="fill stroke markers" d=" M 434.51232719421387 55.59090909090912 A 5 5 0 1 1 434.5123246942141 55.58590909174245" stroke-linejoin="bevel" stroke-miterlimit="10"/><path fill="blue" stroke="blue" paint-order="fill stroke markers" d=" M 374.68298721313477 55.59090909090912 A 5 5 0 1 1 374.682984713135 55.58590909174245" stroke-linejoin="bevel" stroke-miterlimit="10"/><path fill="blue" stroke="blue" paint-order="fill stroke markers" d=" M 161.55843353271484 88.25524475524469 A 5 5 0 1 1 161.55843103271505 88.25024475607802" stroke-linejoin="bevel" stroke-miterlimit="10"/><path fill="blue" stroke="blue" paint-order="fill stroke markers" d=" M 281.82256507873535 55.59090909090912 A 5 5 0 1 1 281.8225625787356 55.58590909174245" stroke-linejoin="bevel" stroke-miterlimit="10"/><path fill="blue" stroke="blue" paint-order="fill stroke markers" d=" M 224.32520484924316 55.59090909090912 A 5 5 0 1 1 224.32520234924337 55.58590909174245" stroke-linejoin="bevel" stroke-miterlimit="10"/><path fill="blue" stroke="blue" paint-order="fill stroke markers" d=" M 319.33214473724365 55.59090909090912 A 5 5 0 1 1 319.3321422372439 55.58590909174245" stroke-linejoin="bevel" stroke-miterlimit="10"/><path fill="blue" stroke="blue" paint-order="fill stroke markers" d=" M 97.56248664855957 55.59090909090912 A 5 5 0 1 1 97.56248414855978 55.58590909174245" stroke-linejoin="bevel" stroke-miterlimit="10"/><path fill="blue" stroke="blue" paint-order="fill stroke markers" d=" M 430.6377201080322 55.59090909090912 A 5 5 0 1 1 430.63771760803246 55.58590909174245" stroke-linejoin="bevel" stroke-miterlimit="10"/><path fill="blue" stroke="blue" paint-order="fill stroke markers" d=" M 323.8088903427124 55.59090909090912 A 5 5 0 1 1 323.80888784271264 55.58590909174245" stroke-linejoin="bevel" stroke-miterlimit="10"/><path fill="blue" stroke="blue" paint-order="fill stroke markers" d=" M 328.04138565063477 79.7867132867134 A 5 5 0 1 1 328.041383150635 79.78171328754672" stroke-linejoin="bevel" stroke-miterlimit="10"/><path fill="blue" stroke="blue" paint-order="fill stroke markers" d=" M 428.6272897720337 74.94755244755254 A 5 5 0 1 1 428.6272872720339 74.94255244838587" stroke-linejoin="bevel" stroke-miterlimit="10"/><path fill="blue" stroke="blue" paint-order="fill stroke markers" d=" M 460.8167715072632 74.94755244755254 A 5 5 0 1 1 460.8167690072634 74.94255244838587" stroke-linejoin="bevel" stroke-miterlimit="10"/><path fill="blue" stroke="blue" paint-order="fill stroke markers" d=" M 401.1560163497925 74.94755244755254 A 5 5 0 1 1 401.1560138497927 74.94255244838587" stroke-linejoin="bevel" stroke-miterlimit="10"/><path fill="blue" stroke="blue" paint-order="fill stroke markers" d=" M 399.9693183898926 55.59090909090912 A 5 5 0 1 1 399.9693158898928 55.58590909174245" stroke-linejoin="bevel" stroke-miterlimit="10"/><path fill="blue" stroke="blue" paint-order="fill stroke markers" d=" M 312.80005645751953 55.59090909090912 A 5 5 0 1 1 312.80005395751976 55.58590909174245" stroke-linejoin="bevel" stroke-miterlimit="10"/><path fill="blue" stroke="blue" paint-order="fill stroke markers" d=" M 218.88294315338135 55.59090909090912 A 5 5 0 1 1 218.88294065338155 55.58590909174245" stroke-linejoin="bevel" stroke-miterlimit="10"/><path fill="blue" stroke="blue" paint-order="fill stroke markers" d=" M 368.10094451904297 79.7867132867134 A 5 5 0 1 1 368.1009420190432 79.78171328754672" stroke-linejoin="bevel" stroke-miterlimit="10"/><path fill="blue" stroke="blue" paint-order="fill stroke markers" d=" M 400.3661832809448 55.59090909090912 A 5 5 0 1 1 400.36618078094506 55.58590909174245" stroke-linejoin="bevel" stroke-miterlimit="10"/><path fill="blue" stroke="blue" paint-order="fill stroke markers" d=" M 317.4778861999512 55.59090909090912 A 5 5 0 1 1 317.4778836999514 55.58590909174245" stroke-linejoin="bevel" stroke-miterlimit="10"/><path fill="blue" stroke="blue" paint-order="fill stroke markers" d=" M 296.312087059021 55.59090909090912 A 5 5 0 1 1 296.31208455902123 55.58590909174245" stroke-linejoin="bevel" stroke-miterlimit="10"/><path fill="blue" stroke="blue" paint-order="fill stroke markers" d=" M 267.40347385406494 55.59090909090912 A 5 5 0 1 1 267.4034713540652 55.58590909174245" stroke-linejoin="bevel" stroke-miterlimit="10"/><path fill="blue" stroke="blue" paint-order="fill stroke markers" d=" M 236.08592796325684 79.7867132867134 A 5 5 0 1 1 236.08592546325704 79.78171328754672" stroke-linejoin="bevel" stroke-miterlimit="10"/><path fill="blue" stroke="blue" paint-order="fill stroke markers" d=" M 147.0472011566162 77.3671328671328 A 5 5 0 1 1 147.04719865661642 77.36213286796612" stroke-linejoin="bevel" stroke-miterlimit="10"/><path fill="red" stroke="red" paint-order="fill stroke markers" d=" M 749.3173828125 522.5699300699301 A 5 5 0 1 1 749.3173803125002 522.5649300707635" stroke-linejoin="bevel" stroke-miterlimit="10"/><path fill="red" stroke="red" paint-order="fill stroke markers" d=" M 407.83830070495605 112.20909090909095 A 5 5 0 1 1 407.8382982049563 112.20409090992428" stroke-linejoin="bevel" stroke-miterlimit="10"/></g></g></g><g><g fill="#444444"><path fill="" stroke="none" d=""/><g transform="translate(49,27)"><path fill="none" stroke="none"/><text fill="" stroke="none" font-family="helvetica" font-size="10pt" font-style="normal" font-weight="bold" text-decoration="normal" x="0" y="0" text-anchor="start" dominant-baseline="text-after-edge"> Pase+ max score using a frame size of 16000 samples</text></g></g></g><g/><g><g fill="#444444"><path fill="none" stroke="black" paint-order="fill stroke markers" d=" M 49 551 L 995 551" stroke-linejoin="bevel" stroke-miterlimit="10"/><path fill="none" stroke="black" paint-order="fill stroke markers" d=" M 66 557 L 66 549" stroke-linejoin="bevel" stroke-miterlimit="10"/><path fill="none" stroke="black" paint-order="fill stroke markers" d=" M 177 557 L 177 549" stroke-linejoin="bevel" stroke-miterlimit="10"/><path fill="none" stroke="black" paint-order="fill stroke markers" d=" M 288 557 L 288 549" stroke-linejoin="bevel" stroke-miterlimit="10"/><path fill="none" stroke="black" paint-order="fill stroke markers" d=" M 399 557 L 399 549" stroke-linejoin="bevel" stroke-miterlimit="10"/><path fill="none" stroke="black" paint-order="fill stroke markers" d=" M 511 557 L 511 549" stroke-linejoin="bevel" stroke-miterlimit="10"/><path fill="none" stroke="black" paint-order="fill stroke markers" d=" M 622 557 L 622 549" stroke-linejoin="bevel" stroke-miterlimit="10"/><path fill="none" stroke="black" paint-order="fill stroke markers" d=" M 733 557 L 733 549" stroke-linejoin="bevel" stroke-miterlimit="10"/><path fill="none" stroke="black" paint-order="fill stroke markers" d=" M 844 557 L 844 549" stroke-linejoin="bevel" stroke-miterlimit="10"/><path fill="none" stroke="black" paint-order="fill stroke markers" d=" M 955 557 L 955 549" stroke-linejoin="bevel" stroke-miterlimit="10"/><path fill="none" stroke="black" paint-order="fill stroke markers" d=" M 66 555 L 66 551" stroke-linejoin="bevel" stroke-miterlimit="10"/><path fill="none" stroke="black" paint-order="fill stroke markers" d=" M 88 555 L 88 551" stroke-linejoin="bevel" stroke-miterlimit="10"/><path fill="none" stroke="black" paint-order="fill stroke markers" d=" M 110 555 L 110 551" stroke-linejoin="bevel" stroke-miterlimit="10"/><path fill="none" stroke="black" paint-order="fill stroke markers" d=" M 133 555 L 133 551" stroke-linejoin="bevel" stroke-miterlimit="10"/><path fill="none" stroke="black" paint-order="fill stroke markers" d=" M 155 555 L 155 551" stroke-linejoin="bevel" stroke-miterlimit="10"/><path fill="none" stroke="black" paint-order="fill stroke markers" d=" M 177 555 L 177 551" stroke-linejoin="bevel" stroke-miterlimit="10"/><path fill="none" stroke="black" paint-order="fill stroke markers" d=" M 199 555 L 199 551" stroke-linejoin="bevel" stroke-miterlimit="10"/><path fill="none" stroke="black" paint-order="fill stroke markers" d=" M 222 555 L 222 551" stroke-linejoin="bevel" stroke-miterlimit="10"/><path fill="none" stroke="black" paint-order="fill stroke markers" d=" M 244 555 L 244 551" stroke-linejoin="bevel" stroke-miterlimit="10"/><path fill="none" stroke="black" paint-order="fill stroke markers" d=" M 266 555 L 266 551" stroke-linejoin="bevel" stroke-miterlimit="10"/><path fill="none" stroke="black" paint-order="fill stroke markers" d=" M 288 555 L 288 551" stroke-linejoin="bevel" stroke-miterlimit="10"/><path fill="none" stroke="black" paint-order="fill stroke markers" d=" M 311 555 L 311 551" stroke-linejoin="bevel" stroke-miterlimit="10"/><path fill="none" stroke="black" paint-order="fill stroke markers" d=" M 333 555 L 333 551" stroke-linejoin="bevel" stroke-miterlimit="10"/><path fill="none" stroke="black" paint-order="fill stroke markers" d=" M 355 555 L 355 551" stroke-linejoin="bevel" stroke-miterlimit="10"/><path fill="none" stroke="black" paint-order="fill stroke markers" d=" M 377 555 L 377 551" stroke-linejoin="bevel" stroke-miterlimit="10"/><path fill="none" stroke="black" paint-order="fill stroke markers" d=" M 399 555 L 399 551" stroke-linejoin="bevel" stroke-miterlimit="10"/><path fill="none" stroke="black" paint-order="fill stroke markers" d=" M 422 555 L 422 551" stroke-linejoin="bevel" stroke-miterlimit="10"/><path fill="none" stroke="black" paint-order="fill stroke markers" d=" M 444 555 L 444 551" stroke-linejoin="bevel" stroke-miterlimit="10"/><path fill="none" stroke="black" paint-order="fill stroke markers" d=" M 466 555 L 466 551" stroke-linejoin="bevel" stroke-miterlimit="10"/><path fill="none" stroke="black" paint-order="fill stroke markers" d=" M 488 555 L 488 551" stroke-linejoin="bevel" stroke-miterlimit="10"/><path fill="none" stroke="black" paint-order="fill stroke markers" d=" M 511 555 L 511 551" stroke-linejoin="bevel" stroke-miterlimit="10"/><path fill="none" stroke="black" paint-order="fill stroke markers" d=" M 533 555 L 533 551" stroke-linejoin="bevel" stroke-miterlimit="10"/><path fill="none" stroke="black" paint-order="fill stroke markers" d=" M 555 555 L 555 551" stroke-linejoin="bevel" stroke-miterlimit="10"/><path fill="none" stroke="black" paint-order="fill stroke markers" d=" M 577 555 L 577 551" stroke-linejoin="bevel" stroke-miterlimit="10"/><path fill="none" stroke="black" paint-order="fill stroke markers" d=" M 600 555 L 600 551" stroke-linejoin="bevel" stroke-miterlimit="10"/><path fill="none" stroke="black" paint-order="fill stroke markers" d=" M 622 555 L 622 551" stroke-linejoin="bevel" stroke-miterlimit="10"/><path fill="none" stroke="black" paint-order="fill stroke markers" d=" M 644 555 L 644 551" stroke-linejoin="bevel" stroke-miterlimit="10"/><path fill="none" stroke="black" paint-order="fill stroke markers" d=" M 666 555 L 666 551" stroke-linejoin="bevel" stroke-miterlimit="10"/><path fill="none" stroke="black" paint-order="fill stroke markers" d=" M 689 555 L 689 551" stroke-linejoin="bevel" stroke-miterlimit="10"/><path fill="none" stroke="black" paint-order="fill stroke markers" d=" M 711 555 L 711 551" stroke-linejoin="bevel" stroke-miterlimit="10"/><path fill="none" stroke="black" paint-order="fill stroke markers" d=" M 733 555 L 733 551" stroke-linejoin="bevel" stroke-miterlimit="10"/><path fill="none" stroke="black" paint-order="fill stroke markers" d=" M 755 555 L 755 551" stroke-linejoin="bevel" stroke-miterlimit="10"/><path fill="none" stroke="black" paint-order="fill stroke markers" d=" M 778 555 L 778 551" stroke-linejoin="bevel" stroke-miterlimit="10"/><path fill="none" stroke="black" paint-order="fill stroke markers" d=" M 800 555 L 800 551" stroke-linejoin="bevel" stroke-miterlimit="10"/><path fill="none" stroke="black" paint-order="fill stroke markers" d=" M 822 555 L 822 551" stroke-linejoin="bevel" stroke-miterlimit="10"/><path fill="none" stroke="black" paint-order="fill stroke markers" d=" M 844 555 L 844 551" stroke-linejoin="bevel" stroke-miterlimit="10"/><path fill="none" stroke="black" paint-order="fill stroke markers" d=" M 866 555 L 866 551" stroke-linejoin="bevel" stroke-miterlimit="10"/><path fill="none" stroke="black" paint-order="fill stroke markers" d=" M 889 555 L 889 551" stroke-linejoin="bevel" stroke-miterlimit="10"/><path fill="none" stroke="black" paint-order="fill stroke markers" d=" M 911 555 L 911 551" stroke-linejoin="bevel" stroke-miterlimit="10"/><path fill="none" stroke="black" paint-order="fill stroke markers" d=" M 933 555 L 933 551" stroke-linejoin="bevel" stroke-miterlimit="10"/><path fill="none" stroke="black" paint-order="fill stroke markers" d=" M 955 555 L 955 551" stroke-linejoin="bevel" stroke-miterlimit="10"/><path fill="" stroke="black" paint-order="fill stroke markers" d=" M 978 555 L 978 551" stroke-linejoin="bevel" stroke-miterlimit="10"/><g transform="translate(66,562) rotate(0,0,0)"><text fill="" stroke="none" font-family="helvetica" font-size="8pt" font-style="normal" font-weight="normal" text-decoration="normal" x="0" y="0" text-anchor="middle" dominant-baseline="hanging">0.99999976</text><g transform="rotate(0,0,0) translate(-66,-562) translate(177,562) rotate(0,0,0)"><text fill="" stroke="none" font-family="helvetica" font-size="8pt" font-style="normal" font-weight="normal" text-decoration="normal" x="0" y="0" text-anchor="middle" dominant-baseline="hanging">0.99999978</text><g transform="rotate(0,0,0) translate(-177,-562) translate(288,562) rotate(0,0,0)"><text fill="" stroke="none" font-family="helvetica" font-size="8pt" font-style="normal" font-weight="normal" text-decoration="normal" x="0" y="0" text-anchor="middle" dominant-baseline="hanging">0.9999998</text><g transform="rotate(0,0,0) translate(-288,-562) translate(399,562) rotate(0,0,0)"><text fill="" stroke="none" font-family="helvetica" font-size="8pt" font-style="normal" font-weight="normal" text-decoration="normal" x="0" y="0" text-anchor="middle" dominant-baseline="hanging">0.99999982</text><g transform="rotate(0,0,0) translate(-399,-562) translate(511,562) rotate(0,0,0)"><text fill="" stroke="none" font-family="helvetica" font-size="8pt" font-style="normal" font-weight="normal" text-decoration="normal" x="0" y="0" text-anchor="middle" dominant-baseline="hanging">0.99999984</text><g transform="rotate(0,0,0) translate(-511,-562) translate(622,562) rotate(0,0,0)"><text fill="" stroke="none" font-family="helvetica" font-size="8pt" font-style="normal" font-weight="normal" text-decoration="normal" x="0" y="0" text-anchor="middle" dominant-baseline="hanging">0.99999986</text><g transform="rotate(0,0,0) translate(-622,-562) translate(733,562) rotate(0,0,0)"><text fill="" stroke="none" font-family="helvetica" font-size="8pt" font-style="normal" font-weight="normal" text-decoration="normal" x="0" y="0" text-anchor="middle" dominant-baseline="hanging">0.99999988</text><g transform="rotate(0,0,0) translate(-733,-562) translate(844,562) rotate(0,0,0)"><text fill="" stroke="none" font-family="helvetica" font-size="8pt" font-style="normal" font-weight="normal" text-decoration="normal" x="0" y="0" text-anchor="middle" dominant-baseline="hanging">0.9999999</text><g transform="rotate(0,0,0) translate(-844,-562) translate(955,562) rotate(0,0,0)"><text fill="" stroke="none" font-family="helvetica" font-size="8pt" font-style="normal" font-weight="normal" text-decoration="normal" x="0" y="0" text-anchor="middle" dominant-baseline="hanging">0.99999992</text><g transform="rotate(0,0,0) translate(-955,-562) translate(522,582) rotate(0,0,0)"><text fill="" stroke="none" font-family="helvetica" font-size="10pt" font-style="italic" font-weight="normal" text-decoration="normal" x="0" y="0" text-anchor="middle" dominant-baseline="hanging">l1 Pase+ max score</text><g transform="rotate(0,0,0) translate(-522,-582)"/></g></g></g></g></g></g></g></g></g></g></g></g><g><g fill="#444444"><path fill="none" stroke="black" paint-order="fill stroke markers" d=" M 49 551 L 49 32" stroke-linejoin="bevel" stroke-miterlimit="10"/><path fill="none" stroke="black" paint-order="fill stroke markers" d=" M 43 491 L 51 491" stroke-linejoin="bevel" stroke-miterlimit="10"/><path fill="none" stroke="black" paint-order="fill stroke markers" d=" M 43 419 L 51 419" stroke-linejoin="bevel" stroke-miterlimit="10"/><path fill="none" stroke="black" paint-order="fill stroke markers" d=" M 43 346 L 51 346" stroke-linejoin="bevel" stroke-miterlimit="10"/><path fill="none" stroke="black" paint-order="fill stroke markers" d=" M 43 273 L 51 273" stroke-linejoin="bevel" stroke-miterlimit="10"/><path fill="none" stroke="black" paint-order="fill stroke markers" d=" M 43 201 L 51 201" stroke-linejoin="bevel" stroke-miterlimit="10"/><path fill="none" stroke="black" paint-order="fill stroke markers" d=" M 43 128 L 51 128" stroke-linejoin="bevel" stroke-miterlimit="10"/><path fill="none" stroke="black" paint-order="fill stroke markers" d=" M 43 56 L 51 56" stroke-linejoin="bevel" stroke-miterlimit="10"/><path fill="none" stroke="black" paint-order="fill stroke markers" d=" M 45 506 L 49 506" stroke-linejoin="bevel" stroke-miterlimit="10"/><path fill="none" stroke="black" paint-order="fill stroke markers" d=" M 45 520 L 49 520" stroke-linejoin="bevel" stroke-miterlimit="10"/><path fill="none" stroke="black" paint-order="fill stroke markers" d=" M 45 535 L 49 535" stroke-linejoin="bevel" stroke-miterlimit="10"/><path fill="none" stroke="black" paint-order="fill stroke markers" d=" M 45 549 L 49 549" stroke-linejoin="bevel" stroke-miterlimit="10"/><path fill="none" stroke="black" paint-order="fill stroke markers" d=" M 45 491 L 49 491" stroke-linejoin="bevel" stroke-miterlimit="10"/><path fill="none" stroke="black" paint-order="fill stroke markers" d=" M 45 477 L 49 477" stroke-linejoin="bevel" stroke-miterlimit="10"/><path fill="none" stroke="black" paint-order="fill stroke markers" d=" M 45 462 L 49 462" stroke-linejoin="bevel" stroke-miterlimit="10"/><path fill="none" stroke="black" paint-order="fill stroke markers" d=" M 45 448 L 49 448" stroke-linejoin="bevel" stroke-miterlimit="10"/><path fill="none" stroke="black" paint-order="fill stroke markers" d=" M 45 433 L 49 433" stroke-linejoin="bevel" stroke-miterlimit="10"/><path fill="none" stroke="black" paint-order="fill stroke markers" d=" M 45 419 L 49 419" stroke-linejoin="bevel" stroke-miterlimit="10"/><path fill="none" stroke="black" paint-order="fill stroke markers" d=" M 45 404 L 49 404" stroke-linejoin="bevel" stroke-miterlimit="10"/><path fill="none" stroke="black" paint-order="fill stroke markers" d=" M 45 389 L 49 389" stroke-linejoin="bevel" stroke-miterlimit="10"/><path fill="none" stroke="black" paint-order="fill stroke markers" d=" M 45 375 L 49 375" stroke-linejoin="bevel" stroke-miterlimit="10"/><path fill="none" stroke="black" paint-order="fill stroke markers" d=" M 45 360 L 49 360" stroke-linejoin="bevel" stroke-miterlimit="10"/><path fill="none" stroke="black" paint-order="fill stroke markers" d=" M 45 346 L 49 346" stroke-linejoin="bevel" stroke-miterlimit="10"/><path fill="none" stroke="black" paint-order="fill stroke markers" d=" M 45 331 L 49 331" stroke-linejoin="bevel" stroke-miterlimit="10"/><path fill="none" stroke="black" paint-order="fill stroke markers" d=" M 45 317 L 49 317" stroke-linejoin="bevel" stroke-miterlimit="10"/><path fill="none" stroke="black" paint-order="fill stroke markers" d=" M 45 302 L 49 302" stroke-linejoin="bevel" stroke-miterlimit="10"/><path fill="none" stroke="black" paint-order="fill stroke markers" d=" M 45 288 L 49 288" stroke-linejoin="bevel" stroke-miterlimit="10"/><path fill="none" stroke="black" paint-order="fill stroke markers" d=" M 45 273 L 49 273" stroke-linejoin="bevel" stroke-miterlimit="10"/><path fill="none" stroke="black" paint-order="fill stroke markers" d=" M 45 259 L 49 259" stroke-linejoin="bevel" stroke-miterlimit="10"/><path fill="none" stroke="black" paint-order="fill stroke markers" d=" M 45 244 L 49 244" stroke-linejoin="bevel" stroke-miterlimit="10"/><path fill="none" stroke="black" paint-order="fill stroke markers" d=" M 45 230 L 49 230" stroke-linejoin="bevel" stroke-miterlimit="10"/><path fill="none" stroke="black" paint-order="fill stroke markers" d=" M 45 215 L 49 215" stroke-linejoin="bevel" stroke-miterlimit="10"/><path fill="none" stroke="black" paint-order="fill stroke markers" d=" M 45 201 L 49 201" stroke-linejoin="bevel" stroke-miterlimit="10"/><path fill="none" stroke="black" paint-order="fill stroke markers" d=" M 45 186 L 49 186" stroke-linejoin="bevel" stroke-miterlimit="10"/><path fill="none" stroke="black" paint-order="fill stroke markers" d=" M 45 172 L 49 172" stroke-linejoin="bevel" stroke-miterlimit="10"/><path fill="none" stroke="black" paint-order="fill stroke markers" d=" M 45 157 L 49 157" stroke-linejoin="bevel" stroke-miterlimit="10"/><path fill="none" stroke="black" paint-order="fill stroke markers" d=" M 45 143 L 49 143" stroke-linejoin="bevel" stroke-miterlimit="10"/><path fill="none" stroke="black" paint-order="fill stroke markers" d=" M 45 128 L 49 128" stroke-linejoin="bevel" stroke-miterlimit="10"/><path fill="none" stroke="black" paint-order="fill stroke markers" d=" M 45 114 L 49 114" stroke-linejoin="bevel" stroke-miterlimit="10"/><path fill="none" stroke="black" paint-order="fill stroke markers" d=" M 45 99 L 49 99" stroke-linejoin="bevel" stroke-miterlimit="10"/><path fill="none" stroke="black" paint-order="fill stroke markers" d=" M 45 85 L 49 85" stroke-linejoin="bevel" stroke-miterlimit="10"/><path fill="none" stroke="black" paint-order="fill stroke markers" d=" M 45 70 L 49 70" stroke-linejoin="bevel" stroke-miterlimit="10"/><path fill="none" stroke="black" paint-order="fill stroke markers" d=" M 45 56 L 49 56" stroke-linejoin="bevel" stroke-miterlimit="10"/><path fill="" stroke="black" paint-order="fill stroke markers" d=" M 45 41 L 49 41" stroke-linejoin="bevel" stroke-miterlimit="10"/><g transform="translate(38,491) rotate(0,0,0)"><text fill="" stroke="none" font-family="helvetica" font-size="8pt" font-style="normal" font-weight="normal" text-decoration="normal" x="0" y="0" text-anchor="end" dominant-baseline="central">4</text><g transform="rotate(0,0,0) translate(-38,-491) translate(38,419) rotate(0,0,0)"><text fill="" stroke="none" font-family="helvetica" font-size="8pt" font-style="normal" font-weight="normal" text-decoration="normal" x="0" y="0" text-anchor="end" dominant-baseline="central">5</text><g transform="rotate(0,0,0) translate(-38,-419) translate(38,346) rotate(0,0,0)"><text fill="" stroke="none" font-family="helvetica" font-size="8pt" font-style="normal" font-weight="normal" text-decoration="normal" x="0" y="0" text-anchor="end" dominant-baseline="central">6</text><g transform="rotate(0,0,0) translate(-38,-346) translate(38,273) rotate(0,0,0)"><text fill="" stroke="none" font-family="helvetica" font-size="8pt" font-style="normal" font-weight="normal" text-decoration="normal" x="0" y="0" text-anchor="end" dominant-baseline="central">7</text><g transform="rotate(0,0,0) translate(-38,-273) translate(38,201) rotate(0,0,0)"><text fill="" stroke="none" font-family="helvetica" font-size="8pt" font-style="normal" font-weight="normal" text-decoration="normal" x="0" y="0" text-anchor="end" dominant-baseline="central">8</text><g transform="rotate(0,0,0) translate(-38,-201) translate(38,128) rotate(0,0,0)"><text fill="" stroke="none" font-family="helvetica" font-size="8pt" font-style="normal" font-weight="normal" text-decoration="normal" x="0" y="0" text-anchor="end" dominant-baseline="central">9</text><g transform="rotate(0,0,0) translate(-38,-128) translate(38,56) rotate(0,0,0)"><text fill="" stroke="none" font-family="helvetica" font-size="8pt" font-style="normal" font-weight="normal" text-decoration="normal" x="0" y="0" text-anchor="end" dominant-baseline="central">10</text><g transform="rotate(0,0,0) translate(-38,-56) translate(18,292) rotate(-90,0,0)"><text fill="" stroke="none" font-family="helvetica" font-size="10pt" font-style="italic" font-weight="normal" text-decoration="normal" x="0" y="0" text-anchor="middle" dominant-baseline="alphabetic">Intelligibility</text><g transform="rotate(90,0,0) translate(-18,-292)"/></g></g></g></g></g></g></g></g></g></g><g clip-path="url(#IGIkLeaZTyxX)"><g/></g></g></g></svg>