<svg version="1.1" xmlns="http://www.w3.org/2000/svg" xmlns:xlink="http://www.w3.org/1999/xlink" width="1000" height="600" style="width: 1000px; height: 600px;"><defs><clipPath id="UCItNGJiGOdt"><path fill="none" stroke="none" d=" M 49 32 L 995 32 L 995 551 L 49 551 L 49 32 Z"/></clipPath><clipPath id="QnvfbKwfrpVK"><path fill="none" stroke="none" d=" M 49 32 L 995 32 L 995 551 L 49 551 L 49 32 Z"/></clipPath><clipPath id="slQfxBSDCPNF"><path fill="none" stroke="none" d=" M 49 32 L 995 32 L 995 551 L 49 551 L 49 32 Z"/></clipPath><clipPath id="HAhUncnMTqVi"><path fill="none" stroke="none" d=" M 49 32 L 995 32 L 995 551 L 49 551 L 49 32 Z"/></clipPath></defs><g><g transform="scale(1,1) translate(0.5,0.5)"><rect fill="#FFFFFF" stroke="none" x="0" y="0" width="1000" height="600"/><rect fill="#ffffff" stroke="none" x="0" y="0" width="1000" height="600"/><rect fill="#FFFFFF" stroke="none" x="49" y="32" width="946" height="519"/><rect fill="#ffffff" stroke="none" x="49" y="32" width="946" height="519"/><g><rect fill="none" stroke="#e5e5e5" x="49" y="32" width="946" height="519" stroke-linejoin="bevel" stroke-miterlimit="10"/></g><g clip-path="url(#UCItNGJiGOdt)"><g><g><path fill="none" stroke="#e5e5e5" paint-order="fill stroke markers" d=" M 192 551 L 192 32" stroke-linejoin="bevel" stroke-miterlimit="10"/><path fill="none" stroke="#e5e5e5" paint-order="fill stroke markers" d=" M 463 551 L 463 32" stroke-linejoin="bevel" stroke-miterlimit="10"/><path fill="none" stroke="#e5e5e5" paint-order="fill stroke markers" d=" M 735 551 L 735 32" stroke-linejoin="bevel" stroke-miterlimit="10"/></g></g></g><g clip-path="url(#QnvfbKwfrpVK)"><g><g><path fill="none" stroke="#e5e5e5" paint-order="fill stroke markers" d=" M 49 477 L 995 477" stroke-linejoin="bevel" stroke-miterlimit="10"/><path fill="none" stroke="#e5e5e5" paint-order="fill stroke markers" d=" M 49 371 L 995 371" stroke-linejoin="bevel" stroke-miterlimit="10"/><path fill="none" stroke="#e5e5e5" paint-order="fill stroke markers" d=" M 49 266 L 995 266" stroke-linejoin="bevel" stroke-miterlimit="10"/><path fill="none" stroke="#e5e5e5" paint-order="fill stroke markers" d=" M 49 161 L 995 161" stroke-linejoin="bevel" stroke-miterlimit="10"/><path fill="none" stroke="#e5e5e5" paint-order="fill stroke markers" d=" M 49 56 L 995 56" stroke-linejoin="bevel" stroke-miterlimit="10"/></g></g></g><g clip-path="url(#slQfxBSDCPNF)"><g><g><path fill="none" stroke="none"/><path fill="red" stroke="red" paint-order="fill stroke markers" d=" M 164.99716187029844 340.78658330517067 A 5 5 0 1 1 164.99715937029865 340.781583306004" stroke-linejoin="bevel" stroke-miterlimit="10"/><path fill="red" stroke="red" paint-order="fill stroke markers" d=" M 183.32447730244894 282.90554241297735 A 5 5 0 1 1 183.32447480244915 282.9005424138107" stroke-linejoin="bevel" stroke-miterlimit="10"/><path fill="red" stroke="red" paint-order="fill stroke markers" d=" M 203.35217317119532 409.8930381885772 A 5 5 0 1 1 203.35217067119552 409.8880381894105" stroke-linejoin="bevel" stroke-miterlimit="10"/><path fill="red" stroke="red" paint-order="fill stroke markers" d=" M 292.689053250142 73.13061845217987 A 5 5 0 1 1 292.68905075014226 73.1256184530132" stroke-linejoin="bevel" stroke-miterlimit="10"/><path fill="blue" stroke="blue" paint-order="fill stroke markers" d=" M 256.5627136035837 55.59090909090912 A 5 5 0 1 1 256.5627111035839 55.58590909174245" stroke-linejoin="bevel" stroke-miterlimit="10"/><path fill="red" stroke="red" paint-order="fill stroke markers" d=" M 147.96106119841716 502.8534978033118 A 5 5 0 1 1 147.96105869841736 502.84849780414515" stroke-linejoin="bevel" stroke-miterlimit="10"/><path fill="red" stroke="red" paint-order="fill stroke markers" d=" M 128.27664651340456 245.01977019263268 A 5 5 0 1 1 128.27664401340476 245.014770193466" stroke-linejoin="bevel" stroke-miterlimit="10"/><path fill="red" stroke="red" paint-order="fill stroke markers" d=" M 184.87296755365242 178.368874619804 A 5 5 0 1 1 184.87296505365262 178.36387462063732" stroke-linejoin="bevel" stroke-miterlimit="10"/><path fill="red" stroke="red" paint-order="fill stroke markers" d=" M 171.10233588566916 110.31480229807374 A 5 5 0 1 1 171.10233338566937 110.30980229890707" stroke-linejoin="bevel" stroke-miterlimit="10"/><path fill="red" stroke="red" paint-order="fill stroke markers" d=" M 956.9999999999927 497.59158499493066 A 5 5 0 1 1 956.9999974999929 497.586584995764" stroke-linejoin="bevel" stroke-miterlimit="10"/><path fill="red" stroke="red" paint-order="fill stroke markers" d=" M 174.05145541871025 199.41652585332884 A 5 5 0 1 1 174.05145291871045 199.41152585416216" stroke-linejoin="bevel" stroke-miterlimit="10"/><path fill="red" stroke="red" paint-order="fill stroke markers" d=" M 171.79631970437185 208.1863805339642 A 5 5 0 1 1 171.79631720437206 208.18138053479754" stroke-linejoin="bevel" stroke-miterlimit="10"/><path fill="red" stroke="red" paint-order="fill stroke markers" d=" M 184.94391419412568 197.66255491720176 A 5 5 0 1 1 184.9439116941259 197.6575549180351" stroke-linejoin="bevel" stroke-miterlimit="10"/><path fill="red" stroke="red" paint-order="fill stroke markers" d=" M 336.1153069745924 271.32933423453863 A 5 5 0 1 1 336.1153044745926 271.32433423537196" stroke-linejoin="bevel" stroke-miterlimit="10"/><path fill="red" stroke="red" paint-order="fill stroke markers" d=" M 223.63310731842648 215.2022642784725 A 5 5 0 1 1 223.6331048184267 215.19726427930584" stroke-linejoin="bevel" stroke-miterlimit="10"/><path fill="red" stroke="red" paint-order="fill stroke markers" d=" M 173.681357812231 171.35299087529575 A 5 5 0 1 1 173.6813553122312 171.34799087612907" stroke-linejoin="bevel" stroke-miterlimit="10"/><path fill="red" stroke="red" paint-order="fill stroke markers" d=" M 203.76211400890315 279.7483947279486 A 5 5 0 1 1 203.76211150890336 279.74339472878194" stroke-linejoin="bevel" stroke-miterlimit="10"/><path fill="red" stroke="red" paint-order="fill stroke markers" d=" M 227.8460389356187 237.65309226089892 A 5 5 0 1 1 227.8460364356189 237.64809226173224" stroke-linejoin="bevel" stroke-miterlimit="10"/><path fill="red" stroke="red" paint-order="fill stroke markers" d=" M 242.77851516563533 81.90047313281514 A 5 5 0 1 1 242.77851266563553 81.89547313364847" stroke-linejoin="bevel" stroke-miterlimit="10"/><path fill="red" stroke="red" paint-order="fill stroke markers" d=" M 137.52193690893182 143.28945589726254 A 5 5 0 1 1 137.52193440893203 143.28445589809587" stroke-linejoin="bevel" stroke-miterlimit="10"/><path fill="red" stroke="red" paint-order="fill stroke markers" d=" M 266.5333983683522 99.44018249408589 A 5 5 0 1 1 266.53339586835244 99.43518249491922" stroke-linejoin="bevel" stroke-miterlimit="10"/><path fill="red" stroke="red" paint-order="fill stroke markers" d=" M 257.6977168042722 204.67843866171 A 5 5 0 1 1 257.69771430427244 204.67343866254333" stroke-linejoin="bevel" stroke-miterlimit="10"/><path fill="red" stroke="red" paint-order="fill stroke markers" d=" M 98.98109449700132 352.36279148360927 A 5 5 0 1 1 98.98109199700153 352.3577914844426" stroke-linejoin="bevel" stroke-miterlimit="10"/><path fill="red" stroke="red" paint-order="fill stroke markers" d=" M 208.35387590022583 97.68621155795881 A 5 5 0 1 1 208.35387340022604 97.68121155879214" stroke-linejoin="bevel" stroke-miterlimit="10"/><path fill="red" stroke="red" paint-order="fill stroke markers" d=" M 194.58482475904748 60.85282189929035 A 5 5 0 1 1 194.58482225904768 60.84782190012368" stroke-linejoin="bevel" stroke-miterlimit="10"/><path fill="red" stroke="red" paint-order="fill stroke markers" d=" M 215.5540048686089 250.28168300101385 A 5 5 0 1 1 215.5540023686091 250.27668300184718" stroke-linejoin="bevel" stroke-miterlimit="10"/><path fill="red" stroke="red" paint-order="fill stroke markers" d=" M 175.40906651192927 245.01977019263268 A 5 5 0 1 1 175.40906401192947 245.014770193466" stroke-linejoin="bevel" stroke-miterlimit="10"/><path fill="red" stroke="red" paint-order="fill stroke markers" d=" M 139.2274675843728 362.8866171003717 A 5 5 0 1 1 139.227465084373 362.88161710120505" stroke-linejoin="bevel" stroke-miterlimit="10"/><path fill="red" stroke="red" paint-order="fill stroke markers" d=" M 129.1903910204055 317.6341669482933 A 5 5 0 1 1 129.19038852040572 317.6291669491266" stroke-linejoin="bevel" stroke-miterlimit="10"/><path fill="red" stroke="red" paint-order="fill stroke markers" d=" M 161.2723171997568 367.7977357215275 A 5 5 0 1 1 161.272314699757 367.7927357223608" stroke-linejoin="bevel" stroke-miterlimit="10"/><path fill="red" stroke="red" paint-order="fill stroke markers" d=" M 202.78855073615705 344.9961135518756 A 5 5 0 1 1 202.78854823615725 344.99111355270895" stroke-linejoin="bevel" stroke-miterlimit="10"/><path fill="red" stroke="red" paint-order="fill stroke markers" d=" M 219.61897244731517 209.94035147009123 A 5 5 0 1 1 219.61896994731538 209.93535147092456" stroke-linejoin="bevel" stroke-miterlimit="10"/><path fill="red" stroke="red" paint-order="fill stroke markers" d=" M 206.21188292983425 153.81328151402505 A 5 5 0 1 1 206.21188042983445 153.80828151485838" stroke-linejoin="bevel" stroke-miterlimit="10"/><path fill="red" stroke="red" paint-order="fill stroke markers" d=" M 161.69750621463027 119.78624535315993 A 5 5 0 1 1 161.69750371463047 119.78124535399326" stroke-linejoin="bevel" stroke-miterlimit="10"/><path fill="red" stroke="red" paint-order="fill stroke markers" d=" M 190.67840007676568 90.67032781345046 A 5 5 0 1 1 190.6783975767659 90.66532781428378" stroke-linejoin="bevel" stroke-miterlimit="10"/><path fill="red" stroke="red" paint-order="fill stroke markers" d=" M 233.37047953149158 55.59090909090912 A 5 5 0 1 1 233.3704770314918 55.58590909174245" stroke-linejoin="bevel" stroke-miterlimit="10"/><path fill="red" stroke="red" paint-order="fill stroke markers" d=" M 228.27015910917544 169.59901993916867 A 5 5 0 1 1 228.27015660917564 169.594019940002" stroke-linejoin="bevel" stroke-miterlimit="10"/><path fill="red" stroke="red" paint-order="fill stroke markers" d=" M 206.85161471091124 418.6628928692125 A 5 5 0 1 1 206.85161221091144 418.6578928700458" stroke-linejoin="bevel" stroke-miterlimit="10"/><path fill="red" stroke="red" paint-order="fill stroke markers" d=" M 277.7831076424045 225.7260898952349 A 5 5 0 1 1 277.78310514240474 225.72108989606824" stroke-linejoin="bevel" stroke-miterlimit="10"/><path fill="red" stroke="red" paint-order="fill stroke markers" d=" M 249.69206857708923 195.90858398107468 A 5 5 0 1 1 249.69206607708944 195.903583981908" stroke-linejoin="bevel" stroke-miterlimit="10"/><path fill="red" stroke="red" paint-order="fill stroke markers" d=" M 155.57830264636868 414.45336262250754 A 5 5 0 1 1 155.5783001463689 414.44836262334087" stroke-linejoin="bevel" stroke-miterlimit="10"/><path fill="red" stroke="red" paint-order="fill stroke markers" d=" M 219.1542196581504 269.5753632984116 A 5 5 0 1 1 219.1542171581506 269.57036329924495" stroke-linejoin="bevel" stroke-miterlimit="10"/><path fill="red" stroke="red" paint-order="fill stroke markers" d=" M 194.5549736172252 402.8771544440689 A 5 5 0 1 1 194.5549711172254 402.8721544449022" stroke-linejoin="bevel" stroke-miterlimit="10"/><path fill="red" stroke="red" paint-order="fill stroke markers" d=" M 220.992365862905 313.4246367015884 A 5 5 0 1 1 220.9923633629052 313.4196367024217" stroke-linejoin="bevel" stroke-miterlimit="10"/><path fill="red" stroke="red" paint-order="fill stroke markers" d=" M 341.281996685022 327.4564041906049 A 5 5 0 1 1 341.28199418502226 327.45140419143826" stroke-linejoin="bevel" stroke-miterlimit="10"/><path fill="red" stroke="red" paint-order="fill stroke markers" d=" M 149.9282680670076 255.54359580939501 A 5 5 0 1 1 149.9282655670078 255.53859581022834" stroke-linejoin="bevel" stroke-miterlimit="10"/><path fill="red" stroke="red" paint-order="fill stroke markers" d=" M 262.33369951332133 131.3624535315986 A 5 5 0 1 1 262.33369701332157 131.35745353243192" stroke-linejoin="bevel" stroke-miterlimit="10"/><path fill="red" stroke="red" paint-order="fill stroke markers" d=" M 429.4412873274414 111.36718485974984 A 5 5 0 1 1 429.4412848274416 111.36218486058317" stroke-linejoin="bevel" stroke-miterlimit="10"/><path fill="red" stroke="red" paint-order="fill stroke markers" d=" M 128.17894956903183 221.8673538357553 A 5 5 0 1 1 128.17894706903203 221.86235383658862" stroke-linejoin="bevel" stroke-miterlimit="10"/><path fill="red" stroke="red" paint-order="fill stroke markers" d=" M 466.44890941183985 190.64667117269352 A 5 5 0 1 1 466.4489069118401 190.64167117352684" stroke-linejoin="bevel" stroke-miterlimit="10"/><path fill="red" stroke="red" paint-order="fill stroke markers" d=" M 147.04240101108735 152.05931057789797 A 5 5 0 1 1 147.04239851108755 152.0543105787313" stroke-linejoin="bevel" stroke-miterlimit="10"/><path fill="red" stroke="red" paint-order="fill stroke markers" d=" M 101.54949442344514 435.5010138560324 A 5 5 0 1 1 101.54949192344534 435.4960138568657" stroke-linejoin="bevel" stroke-miterlimit="10"/><path fill="red" stroke="red" paint-order="fill stroke markers" d=" M 288.14771598554944 94.1782696857046 A 5 5 0 1 1 288.1477134855497 94.17326968653794" stroke-linejoin="bevel" stroke-miterlimit="10"/><path fill="red" stroke="red" paint-order="fill stroke markers" d=" M 194.37663669506583 520.3932071645826 A 5 5 0 1 1 194.37663419506603 520.3882071654159" stroke-linejoin="bevel" stroke-miterlimit="10"/><path fill="red" stroke="red" paint-order="fill stroke markers" d=" M 248.43058414205007 260.80550861777624 A 5 5 0 1 1 248.43058164205027 260.80050861860957" stroke-linejoin="bevel" stroke-miterlimit="10"/><path fill="red" stroke="red" paint-order="fill stroke markers" d=" M 263.47432489722996 180.12284555593106 A 5 5 0 1 1 263.4743223972302 180.1178455567644" stroke-linejoin="bevel" stroke-miterlimit="10"/><path fill="red" stroke="red" paint-order="fill stroke markers" d=" M 186.65419359218504 266.06742142615747 A 5 5 0 1 1 186.65419109218524 266.0624214269908" stroke-linejoin="bevel" stroke-miterlimit="10"/><path fill="red" stroke="red" paint-order="fill stroke markers" d=" M 223.21746593713033 67.86870564379853 A 5 5 0 1 1 223.21746343713053 67.86370564463186" stroke-linejoin="bevel" stroke-miterlimit="10"/><path fill="red" stroke="red" paint-order="fill stroke markers" d=" M 166.2126844213053 196.6101723555255 A 5 5 0 1 1 166.21268192130552 196.60517235635882" stroke-linejoin="bevel" stroke-miterlimit="10"/><path fill="red" stroke="red" paint-order="fill stroke markers" d=" M 174.29798898028093 273.4340993578911 A 5 5 0 1 1 174.29798648028114 273.42909935872444" stroke-linejoin="bevel" stroke-miterlimit="10"/><path fill="red" stroke="red" paint-order="fill stroke markers" d=" M 181.8021555765954 105.05288948969257 A 5 5 0 1 1 181.8021530765956 105.0478894905259" stroke-linejoin="bevel" stroke-miterlimit="10"/><path fill="red" stroke="red" paint-order="fill stroke markers" d=" M 260.81097722139384 299.3928692125718 A 5 5 0 1 1 260.8109747213941 299.3878692134051" stroke-linejoin="bevel" stroke-miterlimit="10"/><path fill="red" stroke="red" paint-order="fill stroke markers" d=" M 282.32921546779835 155.56725245015213 A 5 5 0 1 1 282.3292129677986 155.56225245098545" stroke-linejoin="bevel" stroke-miterlimit="10"/><path fill="red" stroke="red" paint-order="fill stroke markers" d=" M 199.005688348072 180.12284555593106 A 5 5 0 1 1 199.0056858480722 180.1178455567644" stroke-linejoin="bevel" stroke-miterlimit="10"/><path fill="red" stroke="red" paint-order="fill stroke markers" d=" M 116.13867935522285 276.5912470429199 A 5 5 0 1 1 116.13867685522305 276.58624704375325" stroke-linejoin="bevel" stroke-miterlimit="10"/><path fill="red" stroke="red" paint-order="fill stroke markers" d=" M 202.8355282600969 230.98800270361608 A 5 5 0 1 1 202.8355257600971 230.9830027044494" stroke-linejoin="bevel" stroke-miterlimit="10"/><path fill="red" stroke="red" paint-order="fill stroke markers" d=" M 103.13883688611531 202.92446772558293 A 5 5 0 1 1 103.13883438611552 202.91946772641626" stroke-linejoin="bevel" stroke-miterlimit="10"/><path fill="red" stroke="red" paint-order="fill stroke markers" d=" M 225.8022302064128 74.88458938830689 A 5 5 0 1 1 225.802227706413 74.87958938914022" stroke-linejoin="bevel" stroke-miterlimit="10"/><path fill="red" stroke="red" paint-order="fill stroke markers" d=" M 100.56651865352615 392.3533288273064 A 5 5 0 1 1 100.56651615352635 392.34832882813976" stroke-linejoin="bevel" stroke-miterlimit="10"/><path fill="red" stroke="red" paint-order="fill stroke markers" d=" M 97 383.93426833389657 A 5 5 0 1 1 96.9999975000002 383.9292683347299" stroke-linejoin="bevel" stroke-miterlimit="10"/><path fill="red" stroke="red" paint-order="fill stroke markers" d=" M 243.45879951291863 94.1782696857046 A 5 5 0 1 1 243.45879701291884 94.17326968653794" stroke-linejoin="bevel" stroke-miterlimit="10"/><path fill="red" stroke="red" paint-order="fill stroke markers" d=" M 272.4648107300163 208.18638053396415 A 5 5 0 1 1 272.46480823001656 208.18138053479748" stroke-linejoin="bevel" stroke-miterlimit="10"/><path fill="red" stroke="red" paint-order="fill stroke markers" d=" M 192.50934956545825 230.98800270361608 A 5 5 0 1 1 192.50934706545846 230.9830027044494" stroke-linejoin="bevel" stroke-miterlimit="10"/><path fill="red" stroke="red" paint-order="fill stroke markers" d=" M 174.05173350835685 354.46755660696175 A 5 5 0 1 1 174.05173100835705 354.4625566077951" stroke-linejoin="bevel" stroke-miterlimit="10"/><path fill="red" stroke="red" paint-order="fill stroke markers" d=" M 129.1282880140061 316.9325785738425 A 5 5 0 1 1 129.1282855140063 316.9275785746758" stroke-linejoin="bevel" stroke-miterlimit="10"/><path fill="red" stroke="red" paint-order="fill stroke markers" d=" M 249.72566841587832 138.02754308888137 A 5 5 0 1 1 249.72566591587852 138.0225430897147" stroke-linejoin="bevel" stroke-miterlimit="10"/><path fill="red" stroke="red" paint-order="fill stroke markers" d=" M 203.85377911080286 192.40064210882053 A 5 5 0 1 1 203.85377661080307 192.39564210965386" stroke-linejoin="bevel" stroke-miterlimit="10"/><path fill="red" stroke="red" paint-order="fill stroke markers" d=" M 174.84671666704526 163.98631294356198 A 5 5 0 1 1 174.84671416704546 163.9813129443953" stroke-linejoin="bevel" stroke-miterlimit="10"/><path fill="red" stroke="red" paint-order="fill stroke markers" d=" M 110.84517075103213 392.3533288273064 A 5 5 0 1 1 110.84516825103233 392.34832882813976" stroke-linejoin="bevel" stroke-miterlimit="10"/><path fill="red" stroke="red" paint-order="fill stroke markers" d=" M 173.1289535651522 320.4405204460966 A 5 5 0 1 1 173.1289510651524 320.43552044692996" stroke-linejoin="bevel" stroke-miterlimit="10"/><path fill="red" stroke="red" paint-order="fill stroke markers" d=" M 154.08773306021612 255.54359580939501 A 5 5 0 1 1 154.08773056021633 255.53859581022834" stroke-linejoin="bevel" stroke-miterlimit="10"/><path fill="red" stroke="red" paint-order="fill stroke markers" d=" M 283.14596553614683 152.41010476512338 A 5 5 0 1 1 283.14596303614707 152.4051047659567" stroke-linejoin="bevel" stroke-miterlimit="10"/><path fill="red" stroke="red" paint-order="fill stroke markers" d=" M 156.29262449000817 329.21037512673195 A 5 5 0 1 1 156.29262199000837 329.2053751275653" stroke-linejoin="bevel" stroke-miterlimit="10"/><path fill="red" stroke="red" paint-order="fill stroke markers" d=" M 142.53755666906363 104.00050692801625 A 5 5 0 1 1 142.53755416906384 103.99550692884958" stroke-linejoin="bevel" stroke-miterlimit="10"/><path fill="red" stroke="red" paint-order="fill stroke markers" d=" M 191.63787247523578 190.29587698546806 A 5 5 0 1 1 191.637869975236 190.29087698630138" stroke-linejoin="bevel" stroke-miterlimit="10"/><path fill="red" stroke="red" paint-order="fill stroke markers" d=" M 375.9077746109251 198.71493747887803 A 5 5 0 1 1 375.90777211092535 198.70993747971136" stroke-linejoin="bevel" stroke-miterlimit="10"/><path fill="red" stroke="red" paint-order="fill stroke markers" d=" M 244.50608483357064 99.00168976005403 A 5 5 0 1 1 244.50608233357084 98.99668976088736" stroke-linejoin="bevel" stroke-miterlimit="10"/><path fill="red" stroke="red" paint-order="fill stroke markers" d=" M 168.0243249507621 198.71493747887803 A 5 5 0 1 1 168.0243224507623 198.70993747971136" stroke-linejoin="bevel" stroke-miterlimit="10"/><path fill="blue" stroke="blue" paint-order="fill stroke markers" d=" M 230.8022983703995 55.59090909090912 A 5 5 0 1 1 230.80229587039972 55.58590909174245" stroke-linejoin="bevel" stroke-miterlimit="10"/><path fill="blue" stroke="blue" paint-order="fill stroke markers" d=" M 192.4196594137611 55.59090909090912 A 5 5 0 1 1 192.41965691376132 55.58590909174245" stroke-linejoin="bevel" stroke-miterlimit="10"/><path fill="blue" stroke="blue" paint-order="fill stroke markers" d=" M 237.74712705533602 55.59090909090912 A 5 5 0 1 1 237.74712455533623 55.58590909174245" stroke-linejoin="bevel" stroke-miterlimit="10"/><path fill="blue" stroke="blue" paint-order="fill stroke markers" d=" M 368.33451709951623 141.09699222710378 A 5 5 0 1 1 368.33451459951647 141.0919922279371" stroke-linejoin="bevel" stroke-miterlimit="10"/><path fill="blue" stroke="blue" paint-order="fill stroke markers" d=" M 430.4706519286119 55.59090909090912 A 5 5 0 1 1 430.47064942861215 55.58590909174245" stroke-linejoin="bevel" stroke-miterlimit="10"/><path fill="blue" stroke="blue" paint-order="fill stroke markers" d=" M 246.80749202752486 55.59090909090912 A 5 5 0 1 1 246.80748952752506 55.58590909174245" stroke-linejoin="bevel" stroke-miterlimit="10"/><path fill="blue" stroke="blue" paint-order="fill stroke markers" d=" M 271.0879569020981 55.59090909090912 A 5 5 0 1 1 271.0879544020983 55.58590909174245" stroke-linejoin="bevel" stroke-miterlimit="10"/><path fill="blue" stroke="blue" paint-order="fill stroke markers" d=" M 426.3949636067773 55.59090909090912 A 5 5 0 1 1 426.39496110677754 55.58590909174245" stroke-linejoin="bevel" stroke-miterlimit="10"/><path fill="blue" stroke="blue" paint-order="fill stroke markers" d=" M 254.12957787197956 85.40841500506929 A 5 5 0 1 1 254.12957537197977 85.40341500590262" stroke-linejoin="bevel" stroke-miterlimit="10"/><path fill="blue" stroke="blue" paint-order="fill stroke markers" d=" M 308.0808564839099 55.59090909090912 A 5 5 0 1 1 308.0808539839101 55.58590909174245" stroke-linejoin="bevel" stroke-miterlimit="10"/><path fill="blue" stroke="blue" paint-order="fill stroke markers" d=" M 417.8590903810473 73.13061845217987 A 5 5 0 1 1 417.8590878810475 73.1256184530132" stroke-linejoin="bevel" stroke-miterlimit="10"/><path fill="blue" stroke="blue" paint-order="fill stroke markers" d=" M 225.20036399247329 87.16238594119636 A 5 5 0 1 1 225.2003614924735 87.15738594202969" stroke-linejoin="bevel" stroke-miterlimit="10"/><path fill="blue" stroke="blue" paint-order="fill stroke markers" d=" M 168.19632068449573 69.62267657992572 A 5 5 0 1 1 168.19631818449594 69.61767658075905" stroke-linejoin="bevel" stroke-miterlimit="10"/><path fill="blue" stroke="blue" paint-order="fill stroke markers" d=" M 396.3623596342368 108.21003717472121 A 5 5 0 1 1 396.362357134237 108.20503717555454" stroke-linejoin="bevel" stroke-miterlimit="10"/><path fill="blue" stroke="blue" paint-order="fill stroke markers" d=" M 211.9667898051266 73.13061845217987 A 5 5 0 1 1 211.96678730512681 73.1256184530132" stroke-linejoin="bevel" stroke-miterlimit="10"/><path fill="blue" stroke="blue" paint-order="fill stroke markers" d=" M 399.9046935525912 59.09885096316327 A 5 5 0 1 1 399.90469105259143 59.0938509639966" stroke-linejoin="bevel" stroke-miterlimit="10"/><path fill="blue" stroke="blue" paint-order="fill stroke markers" d=" M 193.63308351327578 73.13061845217987 A 5 5 0 1 1 193.63308101327598 73.1256184530132" stroke-linejoin="bevel" stroke-miterlimit="10"/><path fill="blue" stroke="blue" paint-order="fill stroke markers" d=" M 298.98596237268794 90.67032781345046 A 5 5 0 1 1 298.98595987268817 90.66532781428378" stroke-linejoin="bevel" stroke-miterlimit="10"/><path fill="blue" stroke="blue" paint-order="fill stroke markers" d=" M 365.5859711719095 87.16238594119636 A 5 5 0 1 1 365.5859686719097 87.15738594202969" stroke-linejoin="bevel" stroke-miterlimit="10"/><path fill="blue" stroke="blue" paint-order="fill stroke markers" d=" M 577.3332336534804 115.22592091922945 A 5 5 0 1 1 577.3332311534806 115.22092092006278" stroke-linejoin="bevel" stroke-miterlimit="10"/><path fill="blue" stroke="blue" paint-order="fill stroke markers" d=" M 229.0410907965852 73.13061845217987 A 5 5 0 1 1 229.0410882965854 73.1256184530132" stroke-linejoin="bevel" stroke-miterlimit="10"/><path fill="blue" stroke="blue" paint-order="fill stroke markers" d=" M 205.57852697975613 55.59090909090912 A 5 5 0 1 1 205.57852447975634 55.58590909174245" stroke-linejoin="bevel" stroke-miterlimit="10"/><path fill="blue" stroke="blue" paint-order="fill stroke markers" d=" M 241.80985556557425 76.63856032443397 A 5 5 0 1 1 241.80985306557446 76.6335603252673" stroke-linejoin="bevel" stroke-miterlimit="10"/><path fill="blue" stroke="blue" paint-order="fill stroke markers" d=" M 314.3110093299547 71.37664751605269 A 5 5 0 1 1 314.3110068299549 71.37164751688601" stroke-linejoin="bevel" stroke-miterlimit="10"/><path fill="red" stroke="red" paint-order="fill stroke markers" d=" M 185.58332272330154 527.4090909090908 A 5 5 0 1 1 185.58332022330174 527.4040909099241" stroke-linejoin="bevel" stroke-miterlimit="10"/><path fill="red" stroke="red" paint-order="fill stroke markers" d=" M 200.76698260239937 191.34825954714432 A 5 5 0 1 1 200.76698010239957 191.34325954797765" stroke-linejoin="bevel" stroke-miterlimit="10"/></g></g></g><g><g fill="#444444"><path fill="" stroke="none" d=""/><g transform="translate(49,27)"><path fill="none" stroke="none"/><text fill="" stroke="none" font-family="helvetica" font-size="10pt" font-style="normal" font-weight="bold" text-decoration="normal" x="0" y="0" text-anchor="start" dominant-baseline="text-after-edge"> Pase+ std score using a frame size of 16000 samples</text></g></g></g><g/><g><g fill="#444444"><path fill="none" stroke="black" paint-order="fill stroke markers" d=" M 49 551 L 995 551" stroke-linejoin="bevel" stroke-miterlimit="10"/><path fill="none" stroke="black" paint-order="fill stroke markers" d=" M 192 557 L 192 549" stroke-linejoin="bevel" stroke-miterlimit="10"/><path fill="none" stroke="black" paint-order="fill stroke markers" d=" M 463 557 L 463 549" stroke-linejoin="bevel" stroke-miterlimit="10"/><path fill="none" stroke="black" paint-order="fill stroke markers" d=" M 735 557 L 735 549" stroke-linejoin="bevel" stroke-miterlimit="10"/><path fill="none" stroke="black" paint-order="fill stroke markers" d=" M 138 555 L 138 551" stroke-linejoin="bevel" stroke-miterlimit="10"/><path fill="none" stroke="black" paint-order="fill stroke markers" d=" M 83 555 L 83 551" stroke-linejoin="bevel" stroke-miterlimit="10"/><path fill="none" stroke="black" paint-order="fill stroke markers" d=" M 192 555 L 192 551" stroke-linejoin="bevel" stroke-miterlimit="10"/><path fill="none" stroke="black" paint-order="fill stroke markers" d=" M 246 555 L 246 551" stroke-linejoin="bevel" stroke-miterlimit="10"/><path fill="none" stroke="black" paint-order="fill stroke markers" d=" M 301 555 L 301 551" stroke-linejoin="bevel" stroke-miterlimit="10"/><path fill="none" stroke="black" paint-order="fill stroke markers" d=" M 355 555 L 355 551" stroke-linejoin="bevel" stroke-miterlimit="10"/><path fill="none" stroke="black" paint-order="fill stroke markers" d=" M 409 555 L 409 551" stroke-linejoin="bevel" stroke-miterlimit="10"/><path fill="none" stroke="black" paint-order="fill stroke markers" d=" M 463 555 L 463 551" stroke-linejoin="bevel" stroke-miterlimit="10"/><path fill="none" stroke="black" paint-order="fill stroke markers" d=" M 518 555 L 518 551" stroke-linejoin="bevel" stroke-miterlimit="10"/><path fill="none" stroke="black" paint-order="fill stroke markers" d=" M 572 555 L 572 551" stroke-linejoin="bevel" stroke-miterlimit="10"/><path fill="none" stroke="black" paint-order="fill stroke markers" d=" M 626 555 L 626 551" stroke-linejoin="bevel" stroke-miterlimit="10"/><path fill="none" stroke="black" paint-order="fill stroke markers" d=" M 681 555 L 681 551" stroke-linejoin="bevel" stroke-miterlimit="10"/><path fill="none" stroke="black" paint-order="fill stroke markers" d=" M 735 555 L 735 551" stroke-linejoin="bevel" stroke-miterlimit="10"/><path fill="none" stroke="black" paint-order="fill stroke markers" d=" M 789 555 L 789 551" stroke-linejoin="bevel" stroke-miterlimit="10"/><path fill="none" stroke="black" paint-order="fill stroke markers" d=" M 844 555 L 844 551" stroke-linejoin="bevel" stroke-miterlimit="10"/><path fill="none" stroke="black" paint-order="fill stroke markers" d=" M 898 555 L 898 551" stroke-linejoin="bevel" stroke-miterlimit="10"/><path fill="" stroke="black" paint-order="fill stroke markers" d=" M 952 555 L 952 551" stroke-linejoin="bevel" stroke-miterlimit="10"/><g transform="translate(192,562) rotate(0,0,0)"><text fill="" stroke="none" font-family="helvetica" font-size="8pt" font-style="normal" font-weight="normal" text-decoration="normal" x="0" y="0" text-anchor="middle" dominant-baseline="hanging">1.005</text><g transform="rotate(0,0,0) translate(-192,-562) translate(463,562) rotate(0,0,0)"><text fill="" stroke="none" font-family="helvetica" font-size="8pt" font-style="normal" font-weight="normal" text-decoration="normal" x="0" y="0" text-anchor="middle" dominant-baseline="hanging">1.01</text><g transform="rotate(0,0,0) translate(-463,-562) translate(735,562) rotate(0,0,0)"><text fill="" stroke="none" font-family="helvetica" font-size="8pt" font-style="normal" font-weight="normal" text-decoration="normal" x="0" y="0" text-anchor="middle" dominant-baseline="hanging">1.015</text><g transform="rotate(0,0,0) translate(-735,-562) translate(522,582) rotate(0,0,0)"><text fill="" stroke="none" font-family="helvetica" font-size="10pt" font-style="italic" font-weight="normal" text-decoration="normal" x="0" y="0" text-anchor="middle" dominant-baseline="hanging">zscore Pase+ std score</text><g transform="rotate(0,0,0) translate(-522,-582)"/></g></g></g></g></g></g><g><g fill="#444444"><path fill="none" stroke="black" paint-order="fill stroke markers" d=" M 49 551 L 49 32" stroke-linejoin="bevel" stroke-miterlimit="10"/><path fill="none" stroke="black" paint-order="fill stroke markers" d=" M 43 477 L 51 477" stroke-linejoin="bevel" stroke-miterlimit="10"/><path fill="none" stroke="black" paint-order="fill stroke markers" d=" M 43 371 L 51 371" stroke-linejoin="bevel" stroke-miterlimit="10"/><path fill="none" stroke="black" paint-order="fill stroke markers" d=" M 43 266 L 51 266" stroke-linejoin="bevel" stroke-miterlimit="10"/><path fill="none" stroke="black" paint-order="fill stroke markers" d=" M 43 161 L 51 161" stroke-linejoin="bevel" stroke-miterlimit="10"/><path fill="none" stroke="black" paint-order="fill stroke markers" d=" M 43 56 L 51 56" stroke-linejoin="bevel" stroke-miterlimit="10"/><path fill="none" stroke="black" paint-order="fill stroke markers" d=" M 45 498 L 49 498" stroke-linejoin="bevel" stroke-miterlimit="10"/><path fill="none" stroke="black" paint-order="fill stroke markers" d=" M 45 519 L 49 519" stroke-linejoin="bevel" stroke-miterlimit="10"/><path fill="none" stroke="black" paint-order="fill stroke markers" d=" M 45 540 L 49 540" stroke-linejoin="bevel" stroke-miterlimit="10"/><path fill="none" stroke="black" paint-order="fill stroke markers" d=" M 45 477 L 49 477" stroke-linejoin="bevel" stroke-miterlimit="10"/><path fill="none" stroke="black" paint-order="fill stroke markers" d=" M 45 455 L 49 455" stroke-linejoin="bevel" stroke-miterlimit="10"/><path fill="none" stroke="black" paint-order="fill stroke markers" d=" M 45 434 L 49 434" stroke-linejoin="bevel" stroke-miterlimit="10"/><path fill="none" stroke="black" paint-order="fill stroke markers" d=" M 45 413 L 49 413" stroke-linejoin="bevel" stroke-miterlimit="10"/><path fill="none" stroke="black" paint-order="fill stroke markers" d=" M 45 392 L 49 392" stroke-linejoin="bevel" stroke-miterlimit="10"/><path fill="none" stroke="black" paint-order="fill stroke markers" d=" M 45 371 L 49 371" stroke-linejoin="bevel" stroke-miterlimit="10"/><path fill="none" stroke="black" paint-order="fill stroke markers" d=" M 45 350 L 49 350" stroke-linejoin="bevel" stroke-miterlimit="10"/><path fill="none" stroke="black" paint-order="fill stroke markers" d=" M 45 329 L 49 329" stroke-linejoin="bevel" stroke-miterlimit="10"/><path fill="none" stroke="black" paint-order="fill stroke markers" d=" M 45 308 L 49 308" stroke-linejoin="bevel" stroke-miterlimit="10"/><path fill="none" stroke="black" paint-order="fill stroke markers" d=" M 45 287 L 49 287" stroke-linejoin="bevel" stroke-miterlimit="10"/><path fill="none" stroke="black" paint-order="fill stroke markers" d=" M 45 266 L 49 266" stroke-linejoin="bevel" stroke-miterlimit="10"/><path fill="none" stroke="black" paint-order="fill stroke markers" d=" M 45 245 L 49 245" stroke-linejoin="bevel" stroke-miterlimit="10"/><path fill="none" stroke="black" paint-order="fill stroke markers" d=" M 45 224 L 49 224" stroke-linejoin="bevel" stroke-miterlimit="10"/><path fill="none" stroke="black" paint-order="fill stroke markers" d=" M 45 203 L 49 203" stroke-linejoin="bevel" stroke-miterlimit="10"/><path fill="none" stroke="black" paint-order="fill stroke markers" d=" M 45 182 L 49 182" stroke-linejoin="bevel" stroke-miterlimit="10"/><path fill="none" stroke="black" paint-order="fill stroke markers" d=" M 45 161 L 49 161" stroke-linejoin="bevel" stroke-miterlimit="10"/><path fill="none" stroke="black" paint-order="fill stroke markers" d=" M 45 140 L 49 140" stroke-linejoin="bevel" stroke-miterlimit="10"/><path fill="none" stroke="black" paint-order="fill stroke markers" d=" M 45 119 L 49 119" stroke-linejoin="bevel" stroke-miterlimit="10"/><path fill="none" stroke="black" paint-order="fill stroke markers" d=" M 45 98 L 49 98" stroke-linejoin="bevel" stroke-miterlimit="10"/><path fill="none" stroke="black" paint-order="fill stroke markers" d=" M 45 77 L 49 77" stroke-linejoin="bevel" stroke-miterlimit="10"/><path fill="none" stroke="black" paint-order="fill stroke markers" d=" M 45 56 L 49 56" stroke-linejoin="bevel" stroke-miterlimit="10"/><path fill="" stroke="black" paint-order="fill stroke markers" d=" M 45 35 L 49 35" stroke-linejoin="bevel" stroke-miterlimit="10"/><g transform="translate(38,477) rotate(0,0,0)"><text fill="" stroke="none" font-family="helvetica" font-size="8pt" font-style="normal" font-weight="normal" text-decoration="normal" x="0" y="0" text-anchor="end" dominant-baseline="central">2</text><g transform="rotate(0,0,0) translate(-38,-477) translate(38,371) rotate(0,0,0)"><text fill="" stroke="none" font-family="helvetica" font-size="8pt" font-style="normal" font-weight="normal" text-decoration="normal" x="0" y="0" text-anchor="end" dominant-baseline="central">4</text><g transform="rotate(0,0,0) translate(-38,-371) translate(38,266) rotate(0,0,0)"><text fill="" stroke="none" font-family="helvetica" font-size="8pt" font-style="normal" font-weight="normal" text-decoration="normal" x="0" y="0" text-anchor="end" dominant-baseline="central">6</text><g transform="rotate(0,0,0) translate(-38,-266) translate(38,161) rotate(0,0,0)"><text fill="" stroke="none" font-family="helvetica" font-size="8pt" font-style="normal" font-weight="normal" text-decoration="normal" x="0" y="0" text-anchor="end" dominant-baseline="central">8</text><g transform="rotate(0,0,0) translate(-38,-161) translate(38,56) rotate(0,0,0)"><text fill="" stroke="none" font-family="helvetica" font-size="8pt" font-style="normal" font-weight="normal" text-decoration="normal" x="0" y="0" text-anchor="end" dominant-baseline="central">10</text><g transform="rotate(0,0,0) translate(-38,-56) translate(18,292) rotate(-90,0,0)"><text fill="" stroke="none" font-family="helvetica" font-size="10pt" font-style="italic" font-weight="normal" text-decoration="normal" x="0" y="0" text-anchor="middle" dominant-baseline="alphabetic">Severity</text><g transform="rotate(90,0,0) translate(-18,-292)"/></g></g></g></g></g></g></g></g><g clip-path="url(#HAhUncnMTqVi)"><g/></g></g></g></svg>