<svg version="1.1" xmlns="http://www.w3.org/2000/svg" xmlns:xlink="http://www.w3.org/1999/xlink" width="1000" height="600" style="width: 1000px; height: 600px;"><defs><clipPath id="cLKplNahNOcb"><path fill="none" stroke="none" d=" M 49 32 L 995 32 L 995 551 L 49 551 L 49 32 Z"/></clipPath><clipPath id="IKqrimEgVTEy"><path fill="none" stroke="none" d=" M 49 32 L 995 32 L 995 551 L 49 551 L 49 32 Z"/></clipPath><clipPath id="OUvsIiWMTzXJ"><path fill="none" stroke="none" d=" M 49 32 L 995 32 L 995 551 L 49 551 L 49 32 Z"/></clipPath><clipPath id="suFNnvAAylyq"><path fill="none" stroke="none" d=" M 49 32 L 995 32 L 995 551 L 49 551 L 49 32 Z"/></clipPath></defs><g><g transform="scale(1,1) translate(0.5,0.5)"><rect fill="#FFFFFF" stroke="none" x="0" y="0" width="1000" height="600"/><rect fill="#ffffff" stroke="none" x="0" y="0" width="1000" height="600"/><rect fill="#FFFFFF" stroke="none" x="49" y="32" width="946" height="519"/><rect fill="#ffffff" stroke="none" x="49" y="32" width="946" height="519"/><g><rect fill="none" stroke="#e5e5e5" x="49" y="32" width="946" height="519" stroke-linejoin="bevel" stroke-miterlimit="10"/></g><g clip-path="url(#cLKplNahNOcb)"><g><g><path fill="none" stroke="#e5e5e5" paint-order="fill stroke markers" d=" M 59 551 L 59 32" stroke-linejoin="bevel" stroke-miterlimit="10"/><path fill="none" stroke="#e5e5e5" paint-order="fill stroke markers" d=" M 213 551 L 213 32" stroke-linejoin="bevel" stroke-miterlimit="10"/><path fill="none" stroke="#e5e5e5" paint-order="fill stroke markers" d=" M 367 551 L 367 32" stroke-linejoin="bevel" stroke-miterlimit="10"/><path fill="none" stroke="#e5e5e5" paint-order="fill stroke markers" d=" M 521 551 L 521 32" stroke-linejoin="bevel" stroke-miterlimit="10"/><path fill="none" stroke="#e5e5e5" paint-order="fill stroke markers" d=" M 675 551 L 675 32" stroke-linejoin="bevel" stroke-miterlimit="10"/><path fill="none" stroke="#e5e5e5" paint-order="fill stroke markers" d=" M 829 551 L 829 32" stroke-linejoin="bevel" stroke-miterlimit="10"/><path fill="none" stroke="#e5e5e5" paint-order="fill stroke markers" d=" M 983 551 L 983 32" stroke-linejoin="bevel" stroke-miterlimit="10"/></g></g></g><g clip-path="url(#IKqrimEgVTEy)"><g><g><path fill="none" stroke="#e5e5e5" paint-order="fill stroke markers" d=" M 49 477 L 995 477" stroke-linejoin="bevel" stroke-miterlimit="10"/><path fill="none" stroke="#e5e5e5" paint-order="fill stroke markers" d=" M 49 371 L 995 371" stroke-linejoin="bevel" stroke-miterlimit="10"/><path fill="none" stroke="#e5e5e5" paint-order="fill stroke markers" d=" M 49 266 L 995 266" stroke-linejoin="bevel" stroke-miterlimit="10"/><path fill="none" stroke="#e5e5e5" paint-order="fill stroke markers" d=" M 49 161 L 995 161" stroke-linejoin="bevel" stroke-miterlimit="10"/><path fill="none" stroke="#e5e5e5" paint-order="fill stroke markers" d=" M 49 56 L 995 56" stroke-linejoin="bevel" stroke-miterlimit="10"/></g></g></g><g clip-path="url(#OUvsIiWMTzXJ)"><g><g><path fill="none" stroke="none"/><path fill="red" stroke="red" paint-order="fill stroke markers" d=" M 343.7741766758263 340.78658330517067 A 5 5 0 1 1 343.77417417582654 340.781583306004" stroke-linejoin="bevel" stroke-miterlimit="10"/><path fill="red" stroke="red" paint-order="fill stroke markers" d=" M 444.3300938010216 282.90554241297735 A 5 5 0 1 1 444.3300913010218 282.9005424138107" stroke-linejoin="bevel" stroke-miterlimit="10"/><path fill="red" stroke="red" paint-order="fill stroke markers" d=" M 197.6774973347783 409.8930381885772 A 5 5 0 1 1 197.6774948347785 409.8880381894105" stroke-linejoin="bevel" stroke-miterlimit="10"/><path fill="red" stroke="red" paint-order="fill stroke markers" d=" M 647.6134838759899 73.13061845217987 A 5 5 0 1 1 647.6134813759901 73.1256184530132" stroke-linejoin="bevel" stroke-miterlimit="10"/><path fill="blue" stroke="blue" paint-order="fill stroke markers" d=" M 663.2497403360903 55.59090909090912 A 5 5 0 1 1 663.2497378360905 55.58590909174245" stroke-linejoin="bevel" stroke-miterlimit="10"/><path fill="red" stroke="red" paint-order="fill stroke markers" d=" M 267.9289275854826 502.8534978033118 A 5 5 0 1 1 267.92892508548283 502.84849780414515" stroke-linejoin="bevel" stroke-miterlimit="10"/><path fill="red" stroke="red" paint-order="fill stroke markers" d=" M 146.27577197924256 245.01977019263268 A 5 5 0 1 1 146.27576947924277 245.014770193466" stroke-linejoin="bevel" stroke-miterlimit="10"/><path fill="red" stroke="red" paint-order="fill stroke markers" d=" M 510.34515273571014 178.368874619804 A 5 5 0 1 1 510.3451502357104 178.36387462063732" stroke-linejoin="bevel" stroke-miterlimit="10"/><path fill="red" stroke="red" paint-order="fill stroke markers" d=" M 512.5584157705307 110.31480229807374 A 5 5 0 1 1 512.5584132705309 110.30980229890707" stroke-linejoin="bevel" stroke-miterlimit="10"/><path fill="red" stroke="red" paint-order="fill stroke markers" d=" M 221.27071188762784 497.59158499493066 A 5 5 0 1 1 221.27070938762805 497.586584995764" stroke-linejoin="bevel" stroke-miterlimit="10"/><path fill="red" stroke="red" paint-order="fill stroke markers" d=" M 399.07181626185775 199.41652585332884 A 5 5 0 1 1 399.071813761858 199.41152585416216" stroke-linejoin="bevel" stroke-miterlimit="10"/><path fill="red" stroke="red" paint-order="fill stroke markers" d=" M 427.88480043411255 208.1863805339642 A 5 5 0 1 1 427.8847979341128 208.18138053479754" stroke-linejoin="bevel" stroke-miterlimit="10"/><path fill="red" stroke="red" paint-order="fill stroke markers" d=" M 360.0086620002985 197.66255491720176 A 5 5 0 1 1 360.00865950029873 197.6575549180351" stroke-linejoin="bevel" stroke-miterlimit="10"/><path fill="red" stroke="red" paint-order="fill stroke markers" d=" M 198.26606443151832 271.32933423453863 A 5 5 0 1 1 198.26606193151852 271.32433423537196" stroke-linejoin="bevel" stroke-miterlimit="10"/><path fill="red" stroke="red" paint-order="fill stroke markers" d=" M 463.3431754074991 215.2022642784725 A 5 5 0 1 1 463.3431729074993 215.19726427930584" stroke-linejoin="bevel" stroke-miterlimit="10"/><path fill="red" stroke="red" paint-order="fill stroke markers" d=" M 518.4447789341211 171.35299087529575 A 5 5 0 1 1 518.4447764341213 171.34799087612907" stroke-linejoin="bevel" stroke-miterlimit="10"/><path fill="red" stroke="red" paint-order="fill stroke markers" d=" M 200.2899223677814 279.7483947279486 A 5 5 0 1 1 200.2899198677816 279.74339472878194" stroke-linejoin="bevel" stroke-miterlimit="10"/><path fill="red" stroke="red" paint-order="fill stroke markers" d=" M 381.02776615321636 237.65309226089892 A 5 5 0 1 1 381.0277636532166 237.64809226173224" stroke-linejoin="bevel" stroke-miterlimit="10"/><path fill="red" stroke="red" paint-order="fill stroke markers" d=" M 608.2821842320263 81.90047313281514 A 5 5 0 1 1 608.2821817320265 81.89547313364847" stroke-linejoin="bevel" stroke-miterlimit="10"/><path fill="red" stroke="red" paint-order="fill stroke markers" d=" M 491.3921540416777 143.28945589726254 A 5 5 0 1 1 491.39215154167795 143.28445589809587" stroke-linejoin="bevel" stroke-miterlimit="10"/><path fill="red" stroke="red" paint-order="fill stroke markers" d=" M 443.21145436540246 99.44018249408589 A 5 5 0 1 1 443.2114518654027 99.43518249491922" stroke-linejoin="bevel" stroke-miterlimit="10"/><path fill="red" stroke="red" paint-order="fill stroke markers" d=" M 297.2813097424805 204.67843866171 A 5 5 0 1 1 297.28130724248075 204.67343866254333" stroke-linejoin="bevel" stroke-miterlimit="10"/><path fill="red" stroke="red" paint-order="fill stroke markers" d=" M 324.2908050827682 352.36279148360927 A 5 5 0 1 1 324.29080258276844 352.3577914844426" stroke-linejoin="bevel" stroke-miterlimit="10"/><path fill="red" stroke="red" paint-order="fill stroke markers" d=" M 608.7996507659554 97.68621155795881 A 5 5 0 1 1 608.7996482659556 97.68121155879214" stroke-linejoin="bevel" stroke-miterlimit="10"/><path fill="red" stroke="red" paint-order="fill stroke markers" d=" M 738.17630276829 60.85282189929035 A 5 5 0 1 1 738.1763002682902 60.84782190012368" stroke-linejoin="bevel" stroke-miterlimit="10"/><path fill="red" stroke="red" paint-order="fill stroke markers" d=" M 608.9006609730422 250.28168300101385 A 5 5 0 1 1 608.9006584730424 250.27668300184718" stroke-linejoin="bevel" stroke-miterlimit="10"/><path fill="red" stroke="red" paint-order="fill stroke markers" d=" M 453.7654880732298 245.01977019263268 A 5 5 0 1 1 453.76548557323 245.014770193466" stroke-linejoin="bevel" stroke-miterlimit="10"/><path fill="red" stroke="red" paint-order="fill stroke markers" d=" M 228.61447885632515 362.8866171003717 A 5 5 0 1 1 228.61447635632535 362.88161710120505" stroke-linejoin="bevel" stroke-miterlimit="10"/><path fill="red" stroke="red" paint-order="fill stroke markers" d=" M 255.42712423577905 317.6341669482933 A 5 5 0 1 1 255.42712173577925 317.6291669491266" stroke-linejoin="bevel" stroke-miterlimit="10"/><path fill="red" stroke="red" paint-order="fill stroke markers" d=" M 428.8148762024939 367.7977357215275 A 5 5 0 1 1 428.81487370249414 367.7927357223608" stroke-linejoin="bevel" stroke-miterlimit="10"/><path fill="red" stroke="red" paint-order="fill stroke markers" d=" M 469.3062144741416 344.9961135518756 A 5 5 0 1 1 469.30621197414183 344.99111355270895" stroke-linejoin="bevel" stroke-miterlimit="10"/><path fill="red" stroke="red" paint-order="fill stroke markers" d=" M 331.27008506283164 209.94035147009123 A 5 5 0 1 1 331.2700825628319 209.93535147092456" stroke-linejoin="bevel" stroke-miterlimit="10"/><path fill="red" stroke="red" paint-order="fill stroke markers" d=" M 569.5291429497302 153.81328151402505 A 5 5 0 1 1 569.5291404497303 153.80828151485838" stroke-linejoin="bevel" stroke-miterlimit="10"/><path fill="red" stroke="red" paint-order="fill stroke markers" d=" M 417.8315681479871 119.78624535315993 A 5 5 0 1 1 417.83156564798736 119.78124535399326" stroke-linejoin="bevel" stroke-miterlimit="10"/><path fill="red" stroke="red" paint-order="fill stroke markers" d=" M 542.4557372629642 90.67032781345046 A 5 5 0 1 1 542.4557347629644 90.66532781428378" stroke-linejoin="bevel" stroke-miterlimit="10"/><path fill="red" stroke="red" paint-order="fill stroke markers" d=" M 788.7714185193181 55.59090909090912 A 5 5 0 1 1 788.7714160193183 55.58590909174245" stroke-linejoin="bevel" stroke-miterlimit="10"/><path fill="red" stroke="red" paint-order="fill stroke markers" d=" M 515.6351938359439 169.59901993916867 A 5 5 0 1 1 515.6351913359441 169.594019940002" stroke-linejoin="bevel" stroke-miterlimit="10"/><path fill="red" stroke="red" paint-order="fill stroke markers" d=" M 322.1604848206043 418.6628928692125 A 5 5 0 1 1 322.16048232060456 418.6578928700458" stroke-linejoin="bevel" stroke-miterlimit="10"/><path fill="red" stroke="red" paint-order="fill stroke markers" d=" M 241.62829473242164 225.7260898952349 A 5 5 0 1 1 241.62829223242184 225.72108989606824" stroke-linejoin="bevel" stroke-miterlimit="10"/><path fill="red" stroke="red" paint-order="fill stroke markers" d=" M 673.8773714676499 195.90858398107468 A 5 5 0 1 1 673.8773689676501 195.903583981908" stroke-linejoin="bevel" stroke-miterlimit="10"/><path fill="red" stroke="red" paint-order="fill stroke markers" d=" M 317.971517637372 414.45336262250754 A 5 5 0 1 1 317.97151513737225 414.44836262334087" stroke-linejoin="bevel" stroke-miterlimit="10"/><path fill="red" stroke="red" paint-order="fill stroke markers" d=" M 347.9019944295287 269.5753632984116 A 5 5 0 1 1 347.90199192952895 269.57036329924495" stroke-linejoin="bevel" stroke-miterlimit="10"/><path fill="red" stroke="red" paint-order="fill stroke markers" d=" M 167.97000141069293 402.8771544440689 A 5 5 0 1 1 167.96999891069314 402.8721544449022" stroke-linejoin="bevel" stroke-miterlimit="10"/><path fill="red" stroke="red" paint-order="fill stroke markers" d=" M 344.70836451277137 313.4246367015884 A 5 5 0 1 1 344.7083620127716 313.4196367024217" stroke-linejoin="bevel" stroke-miterlimit="10"/><path fill="red" stroke="red" paint-order="fill stroke markers" d=" M 350.7859722301364 327.4564041906049 A 5 5 0 1 1 350.7859697301366 327.45140419143826" stroke-linejoin="bevel" stroke-miterlimit="10"/><path fill="red" stroke="red" paint-order="fill stroke markers" d=" M 515.3873101361096 255.54359580939501 A 5 5 0 1 1 515.3873076361098 255.53859581022834" stroke-linejoin="bevel" stroke-miterlimit="10"/><path fill="red" stroke="red" paint-order="fill stroke markers" d=" M 548.5892997384071 131.3624535315986 A 5 5 0 1 1 548.5892972384073 131.35745353243192" stroke-linejoin="bevel" stroke-miterlimit="10"/><path fill="red" stroke="red" paint-order="fill stroke markers" d=" M 532.1666746176779 111.36718485974984 A 5 5 0 1 1 532.1666721176781 111.36218486058317" stroke-linejoin="bevel" stroke-miterlimit="10"/><path fill="red" stroke="red" paint-order="fill stroke markers" d=" M 367.6247793547809 221.8673538357553 A 5 5 0 1 1 367.62477685478115 221.86235383658862" stroke-linejoin="bevel" stroke-miterlimit="10"/><path fill="red" stroke="red" paint-order="fill stroke markers" d=" M 422.89696164801717 190.64667117269352 A 5 5 0 1 1 422.8969591480174 190.64167117352684" stroke-linejoin="bevel" stroke-miterlimit="10"/><path fill="red" stroke="red" paint-order="fill stroke markers" d=" M 471.74864008277655 152.05931057789797 A 5 5 0 1 1 471.7486375827768 152.0543105787313" stroke-linejoin="bevel" stroke-miterlimit="10"/><path fill="red" stroke="red" paint-order="fill stroke markers" d=" M 287.66248931735754 435.5010138560324 A 5 5 0 1 1 287.6624868173578 435.4960138568657" stroke-linejoin="bevel" stroke-miterlimit="10"/><path fill="red" stroke="red" paint-order="fill stroke markers" d=" M 653.531842071563 94.1782696857046 A 5 5 0 1 1 653.5318395715632 94.17326968653794" stroke-linejoin="bevel" stroke-miterlimit="10"/><path fill="red" stroke="red" paint-order="fill stroke markers" d=" M 403.0515830926597 520.3932071645826 A 5 5 0 1 1 403.05158059265995 520.3882071654159" stroke-linejoin="bevel" stroke-miterlimit="10"/><path fill="red" stroke="red" paint-order="fill stroke markers" d=" M 407.3977306969464 260.80550861777624 A 5 5 0 1 1 407.3977281969466 260.80050861860957" stroke-linejoin="bevel" stroke-miterlimit="10"/><path fill="red" stroke="red" paint-order="fill stroke markers" d=" M 327.616756670177 180.12284555593106 A 5 5 0 1 1 327.6167541701772 180.1178455567644" stroke-linejoin="bevel" stroke-miterlimit="10"/><path fill="red" stroke="red" paint-order="fill stroke markers" d=" M 376.60304022580385 266.06742142615747 A 5 5 0 1 1 376.6030377258041 266.0624214269908" stroke-linejoin="bevel" stroke-miterlimit="10"/><path fill="red" stroke="red" paint-order="fill stroke markers" d=" M 638.9750316813588 67.86870564379853 A 5 5 0 1 1 638.975029181359 67.86370564463186" stroke-linejoin="bevel" stroke-miterlimit="10"/><path fill="red" stroke="red" paint-order="fill stroke markers" d=" M 313.4731162600219 196.6101723555255 A 5 5 0 1 1 313.47311376002216 196.60517235635882" stroke-linejoin="bevel" stroke-miterlimit="10"/><path fill="red" stroke="red" paint-order="fill stroke markers" d=" M 327.2203233316541 273.4340993578911 A 5 5 0 1 1 327.2203208316543 273.42909935872444" stroke-linejoin="bevel" stroke-miterlimit="10"/><path fill="red" stroke="red" paint-order="fill stroke markers" d=" M 538.8023131601512 105.05288948969257 A 5 5 0 1 1 538.8023106601514 105.0478894905259" stroke-linejoin="bevel" stroke-miterlimit="10"/><path fill="red" stroke="red" paint-order="fill stroke markers" d=" M 216.61710788309574 299.3928692125718 A 5 5 0 1 1 216.61710538309595 299.3878692134051" stroke-linejoin="bevel" stroke-miterlimit="10"/><path fill="red" stroke="red" paint-order="fill stroke markers" d=" M 679.5298058129847 155.56725245015213 A 5 5 0 1 1 679.5298033129849 155.56225245098545" stroke-linejoin="bevel" stroke-miterlimit="10"/><path fill="red" stroke="red" paint-order="fill stroke markers" d=" M 475.4849121309817 180.12284555593106 A 5 5 0 1 1 475.4849096309819 180.1178455567644" stroke-linejoin="bevel" stroke-miterlimit="10"/><path fill="red" stroke="red" paint-order="fill stroke markers" d=" M 384.06034564599395 276.5912470429199 A 5 5 0 1 1 384.0603431459942 276.58624704375325" stroke-linejoin="bevel" stroke-miterlimit="10"/><path fill="red" stroke="red" paint-order="fill stroke markers" d=" M 504.3384985588491 230.98800270361608 A 5 5 0 1 1 504.33849605884933 230.9830027044494" stroke-linejoin="bevel" stroke-miterlimit="10"/><path fill="red" stroke="red" paint-order="fill stroke markers" d=" M 388.8951871804893 202.92446772558293 A 5 5 0 1 1 388.89518468048954 202.91946772641626" stroke-linejoin="bevel" stroke-miterlimit="10"/><path fill="red" stroke="red" paint-order="fill stroke markers" d=" M 552.401577424258 74.88458938830689 A 5 5 0 1 1 552.4015749242582 74.87958938914022" stroke-linejoin="bevel" stroke-miterlimit="10"/><path fill="red" stroke="red" paint-order="fill stroke markers" d=" M 97 392.3533288273064 A 5 5 0 1 1 96.9999975000002 392.34832882813976" stroke-linejoin="bevel" stroke-miterlimit="10"/><path fill="red" stroke="red" paint-order="fill stroke markers" d=" M 245.01305739954114 383.93426833389657 A 5 5 0 1 1 245.01305489954134 383.9292683347299" stroke-linejoin="bevel" stroke-miterlimit="10"/><path fill="red" stroke="red" paint-order="fill stroke markers" d=" M 661.9511696919799 94.1782696857046 A 5 5 0 1 1 661.9511671919801 94.17326968653794" stroke-linejoin="bevel" stroke-miterlimit="10"/><path fill="red" stroke="red" paint-order="fill stroke markers" d=" M 471.44884360581636 208.18638053396415 A 5 5 0 1 1 471.4488411058166 208.18138053479748" stroke-linejoin="bevel" stroke-miterlimit="10"/><path fill="red" stroke="red" paint-order="fill stroke markers" d=" M 404.9024043492973 230.98800270361608 A 5 5 0 1 1 404.9024018492975 230.9830027044494" stroke-linejoin="bevel" stroke-miterlimit="10"/><path fill="red" stroke="red" paint-order="fill stroke markers" d=" M 236.01274836435914 354.46755660696175 A 5 5 0 1 1 236.01274586435935 354.4625566077951" stroke-linejoin="bevel" stroke-miterlimit="10"/><path fill="red" stroke="red" paint-order="fill stroke markers" d=" M 363.11777176707983 316.9325785738425 A 5 5 0 1 1 363.11776926708006 316.9275785746758" stroke-linejoin="bevel" stroke-miterlimit="10"/><path fill="red" stroke="red" paint-order="fill stroke markers" d=" M 501.03521774336696 138.02754308888137 A 5 5 0 1 1 501.0352152433672 138.0225430897147" stroke-linejoin="bevel" stroke-miterlimit="10"/><path fill="red" stroke="red" paint-order="fill stroke markers" d=" M 478.2152542360127 192.40064210882053 A 5 5 0 1 1 478.21525173601293 192.39564210965386" stroke-linejoin="bevel" stroke-miterlimit="10"/><path fill="red" stroke="red" paint-order="fill stroke markers" d=" M 321.22214183583856 163.98631294356198 A 5 5 0 1 1 321.2221393358388 163.9813129443953" stroke-linejoin="bevel" stroke-miterlimit="10"/><path fill="red" stroke="red" paint-order="fill stroke markers" d=" M 360.1452936306596 392.3533288273064 A 5 5 0 1 1 360.1452911306598 392.34832882813976" stroke-linejoin="bevel" stroke-miterlimit="10"/><path fill="red" stroke="red" paint-order="fill stroke markers" d=" M 616.7874230071902 320.4405204460966 A 5 5 0 1 1 616.7874205071904 320.43552044692996" stroke-linejoin="bevel" stroke-miterlimit="10"/><path fill="red" stroke="red" paint-order="fill stroke markers" d=" M 359.35478015616536 255.54359580939501 A 5 5 0 1 1 359.3547776561656 255.53859581022834" stroke-linejoin="bevel" stroke-miterlimit="10"/><path fill="red" stroke="red" paint-order="fill stroke markers" d=" M 558.8081991709769 152.41010476512338 A 5 5 0 1 1 558.808196670977 152.4051047659567" stroke-linejoin="bevel" stroke-miterlimit="10"/><path fill="red" stroke="red" paint-order="fill stroke markers" d=" M 239.32355814427137 329.21037512673195 A 5 5 0 1 1 239.32355564427158 329.2053751275653" stroke-linejoin="bevel" stroke-miterlimit="10"/><path fill="red" stroke="red" paint-order="fill stroke markers" d=" M 461.1500153243542 104.00050692801625 A 5 5 0 1 1 461.1500128243544 103.99550692884958" stroke-linejoin="bevel" stroke-miterlimit="10"/><path fill="red" stroke="red" paint-order="fill stroke markers" d=" M 504.98026068508625 190.29587698546806 A 5 5 0 1 1 504.9802581850865 190.29087698630138" stroke-linejoin="bevel" stroke-miterlimit="10"/><path fill="red" stroke="red" paint-order="fill stroke markers" d=" M 415.76791248843074 198.71493747887803 A 5 5 0 1 1 415.767909988431 198.70993747971136" stroke-linejoin="bevel" stroke-miterlimit="10"/><path fill="red" stroke="red" paint-order="fill stroke markers" d=" M 535.3218441531062 99.00168976005403 A 5 5 0 1 1 535.3218416531064 98.99668976088736" stroke-linejoin="bevel" stroke-miterlimit="10"/><path fill="red" stroke="red" paint-order="fill stroke markers" d=" M 493.20100804045796 198.71493747887803 A 5 5 0 1 1 493.2010055404582 198.70993747971136" stroke-linejoin="bevel" stroke-miterlimit="10"/><path fill="blue" stroke="blue" paint-order="fill stroke markers" d=" M 634.0748409554362 55.59090909090912 A 5 5 0 1 1 634.0748384554364 55.58590909174245" stroke-linejoin="bevel" stroke-miterlimit="10"/><path fill="blue" stroke="blue" paint-order="fill stroke markers" d=" M 582.9153147265315 55.59090909090912 A 5 5 0 1 1 582.9153122265317 55.58590909174245" stroke-linejoin="bevel" stroke-miterlimit="10"/><path fill="blue" stroke="blue" paint-order="fill stroke markers" d=" M 542.3029059767723 55.59090909090912 A 5 5 0 1 1 542.3029034767725 55.58590909174245" stroke-linejoin="bevel" stroke-miterlimit="10"/><path fill="blue" stroke="blue" paint-order="fill stroke markers" d=" M 638.9550108797848 141.09699222710378 A 5 5 0 1 1 638.955008379785 141.0919922279371" stroke-linejoin="bevel" stroke-miterlimit="10"/><path fill="blue" stroke="blue" paint-order="fill stroke markers" d=" M 813.11802463606 55.59090909090912 A 5 5 0 1 1 813.1180221360602 55.58590909174245" stroke-linejoin="bevel" stroke-miterlimit="10"/><path fill="blue" stroke="blue" paint-order="fill stroke markers" d=" M 845.3110734820366 55.59090909090912 A 5 5 0 1 1 845.3110709820368 55.58590909174245" stroke-linejoin="bevel" stroke-miterlimit="10"/><path fill="blue" stroke="blue" paint-order="fill stroke markers" d=" M 823.7510281205177 55.59090909090912 A 5 5 0 1 1 823.7510256205179 55.58590909174245" stroke-linejoin="bevel" stroke-miterlimit="10"/><path fill="blue" stroke="blue" paint-order="fill stroke markers" d=" M 957.0000000037253 55.59090909090912 A 5 5 0 1 1 956.9999975037255 55.58590909174245" stroke-linejoin="bevel" stroke-miterlimit="10"/><path fill="blue" stroke="blue" paint-order="fill stroke markers" d=" M 480.25432677194476 85.40841500506929 A 5 5 0 1 1 480.254324271945 85.40341500590262" stroke-linejoin="bevel" stroke-miterlimit="10"/><path fill="blue" stroke="blue" paint-order="fill stroke markers" d=" M 636.8097323328257 55.59090909090912 A 5 5 0 1 1 636.8097298328258 55.58590909174245" stroke-linejoin="bevel" stroke-miterlimit="10"/><path fill="blue" stroke="blue" paint-order="fill stroke markers" d=" M 619.1502528749406 73.13061845217987 A 5 5 0 1 1 619.1502503749408 73.1256184530132" stroke-linejoin="bevel" stroke-miterlimit="10"/><path fill="blue" stroke="blue" paint-order="fill stroke markers" d=" M 664.1539998427033 87.16238594119636 A 5 5 0 1 1 664.1539973427035 87.15738594202969" stroke-linejoin="bevel" stroke-miterlimit="10"/><path fill="blue" stroke="blue" paint-order="fill stroke markers" d=" M 476.2390083409846 69.62267657992572 A 5 5 0 1 1 476.2390058409848 69.61767658075905" stroke-linejoin="bevel" stroke-miterlimit="10"/><path fill="blue" stroke="blue" paint-order="fill stroke markers" d=" M 384.2241875343025 108.21003717472121 A 5 5 0 1 1 384.2241850343027 108.20503717555454" stroke-linejoin="bevel" stroke-miterlimit="10"/><path fill="blue" stroke="blue" paint-order="fill stroke markers" d=" M 473.99024491012096 73.13061845217987 A 5 5 0 1 1 473.9902424101212 73.1256184530132" stroke-linejoin="bevel" stroke-miterlimit="10"/><path fill="blue" stroke="blue" paint-order="fill stroke markers" d=" M 773.3098823167384 59.09885096316327 A 5 5 0 1 1 773.3098798167385 59.0938509639966" stroke-linejoin="bevel" stroke-miterlimit="10"/><path fill="blue" stroke="blue" paint-order="fill stroke markers" d=" M 803.0204671211541 73.13061845217987 A 5 5 0 1 1 803.0204646211542 73.1256184530132" stroke-linejoin="bevel" stroke-miterlimit="10"/><path fill="blue" stroke="blue" paint-order="fill stroke markers" d=" M 659.1351105123758 90.67032781345046 A 5 5 0 1 1 659.135108012376 90.66532781428378" stroke-linejoin="bevel" stroke-miterlimit="10"/><path fill="blue" stroke="blue" paint-order="fill stroke markers" d=" M 458.4748230278492 87.16238594119636 A 5 5 0 1 1 458.47482052784943 87.15738594202969" stroke-linejoin="bevel" stroke-miterlimit="10"/><path fill="blue" stroke="blue" paint-order="fill stroke markers" d=" M 831.6537487357855 115.22592091922945 A 5 5 0 1 1 831.6537462357857 115.22092092006278" stroke-linejoin="bevel" stroke-miterlimit="10"/><path fill="blue" stroke="blue" paint-order="fill stroke markers" d=" M 665.0813026949763 73.13061845217987 A 5 5 0 1 1 665.0813001949765 73.1256184530132" stroke-linejoin="bevel" stroke-miterlimit="10"/><path fill="blue" stroke="blue" paint-order="fill stroke markers" d=" M 643.6999008208513 55.59090909090912 A 5 5 0 1 1 643.6998983208515 55.58590909174245" stroke-linejoin="bevel" stroke-miterlimit="10"/><path fill="blue" stroke="blue" paint-order="fill stroke markers" d=" M 678.5760856457055 76.63856032443397 A 5 5 0 1 1 678.5760831457056 76.6335603252673" stroke-linejoin="bevel" stroke-miterlimit="10"/><path fill="blue" stroke="blue" paint-order="fill stroke markers" d=" M 555.5402832478285 71.37664751605269 A 5 5 0 1 1 555.5402807478287 71.37164751688601" stroke-linejoin="bevel" stroke-miterlimit="10"/><path fill="red" stroke="red" paint-order="fill stroke markers" d=" M 237.10955967754126 527.4090909090908 A 5 5 0 1 1 237.10955717754146 527.4040909099241" stroke-linejoin="bevel" stroke-miterlimit="10"/><path fill="red" stroke="red" paint-order="fill stroke markers" d=" M 518.4895986169577 191.34825954714432 A 5 5 0 1 1 518.4895961169578 191.34325954797765" stroke-linejoin="bevel" stroke-miterlimit="10"/></g></g></g><g><g fill="#444444"><path fill="" stroke="none" d=""/><g transform="translate(49,27)"><path fill="none" stroke="none"/><text fill="" stroke="none" font-family="helvetica" font-size="10pt" font-style="normal" font-weight="bold" text-decoration="normal" x="0" y="0" text-anchor="start" dominant-baseline="text-after-edge"> Pase+ median score using a frame size of 16000 samples</text></g></g></g><g/><g><g fill="#444444"><path fill="none" stroke="black" paint-order="fill stroke markers" d=" M 49 551 L 995 551" stroke-linejoin="bevel" stroke-miterlimit="10"/><path fill="none" stroke="black" paint-order="fill stroke markers" d=" M 59 557 L 59 549" stroke-linejoin="bevel" stroke-miterlimit="10"/><path fill="none" stroke="black" paint-order="fill stroke markers" d=" M 213 557 L 213 549" stroke-linejoin="bevel" stroke-miterlimit="10"/><path fill="none" stroke="black" paint-order="fill stroke markers" d=" M 367 557 L 367 549" stroke-linejoin="bevel" stroke-miterlimit="10"/><path fill="none" stroke="black" paint-order="fill stroke markers" d=" M 521 557 L 521 549" stroke-linejoin="bevel" stroke-miterlimit="10"/><path fill="none" stroke="black" paint-order="fill stroke markers" d=" M 675 557 L 675 549" stroke-linejoin="bevel" stroke-miterlimit="10"/><path fill="none" stroke="black" paint-order="fill stroke markers" d=" M 829 557 L 829 549" stroke-linejoin="bevel" stroke-miterlimit="10"/><path fill="none" stroke="black" paint-order="fill stroke markers" d=" M 983 557 L 983 549" stroke-linejoin="bevel" stroke-miterlimit="10"/><path fill="none" stroke="black" paint-order="fill stroke markers" d=" M 59 555 L 59 551" stroke-linejoin="bevel" stroke-miterlimit="10"/><path fill="none" stroke="black" paint-order="fill stroke markers" d=" M 90 555 L 90 551" stroke-linejoin="bevel" stroke-miterlimit="10"/><path fill="none" stroke="black" paint-order="fill stroke markers" d=" M 121 555 L 121 551" stroke-linejoin="bevel" stroke-miterlimit="10"/><path fill="none" stroke="black" paint-order="fill stroke markers" d=" M 152 555 L 152 551" stroke-linejoin="bevel" stroke-miterlimit="10"/><path fill="none" stroke="black" paint-order="fill stroke markers" d=" M 182 555 L 182 551" stroke-linejoin="bevel" stroke-miterlimit="10"/><path fill="none" stroke="black" paint-order="fill stroke markers" d=" M 213 555 L 213 551" stroke-linejoin="bevel" stroke-miterlimit="10"/><path fill="none" stroke="black" paint-order="fill stroke markers" d=" M 244 555 L 244 551" stroke-linejoin="bevel" stroke-miterlimit="10"/><path fill="none" stroke="black" paint-order="fill stroke markers" d=" M 275 555 L 275 551" stroke-linejoin="bevel" stroke-miterlimit="10"/><path fill="none" stroke="black" paint-order="fill stroke markers" d=" M 306 555 L 306 551" stroke-linejoin="bevel" stroke-miterlimit="10"/><path fill="none" stroke="black" paint-order="fill stroke markers" d=" M 336 555 L 336 551" stroke-linejoin="bevel" stroke-miterlimit="10"/><path fill="none" stroke="black" paint-order="fill stroke markers" d=" M 367 555 L 367 551" stroke-linejoin="bevel" stroke-miterlimit="10"/><path fill="none" stroke="black" paint-order="fill stroke markers" d=" M 398 555 L 398 551" stroke-linejoin="bevel" stroke-miterlimit="10"/><path fill="none" stroke="black" paint-order="fill stroke markers" d=" M 429 555 L 429 551" stroke-linejoin="bevel" stroke-miterlimit="10"/><path fill="none" stroke="black" paint-order="fill stroke markers" d=" M 460 555 L 460 551" stroke-linejoin="bevel" stroke-miterlimit="10"/><path fill="none" stroke="black" paint-order="fill stroke markers" d=" M 491 555 L 491 551" stroke-linejoin="bevel" stroke-miterlimit="10"/><path fill="none" stroke="black" paint-order="fill stroke markers" d=" M 521 555 L 521 551" stroke-linejoin="bevel" stroke-miterlimit="10"/><path fill="none" stroke="black" paint-order="fill stroke markers" d=" M 552 555 L 552 551" stroke-linejoin="bevel" stroke-miterlimit="10"/><path fill="none" stroke="black" paint-order="fill stroke markers" d=" M 583 555 L 583 551" stroke-linejoin="bevel" stroke-miterlimit="10"/><path fill="none" stroke="black" paint-order="fill stroke markers" d=" M 614 555 L 614 551" stroke-linejoin="bevel" stroke-miterlimit="10"/><path fill="none" stroke="black" paint-order="fill stroke markers" d=" M 645 555 L 645 551" stroke-linejoin="bevel" stroke-miterlimit="10"/><path fill="none" stroke="black" paint-order="fill stroke markers" d=" M 675 555 L 675 551" stroke-linejoin="bevel" stroke-miterlimit="10"/><path fill="none" stroke="black" paint-order="fill stroke markers" d=" M 706 555 L 706 551" stroke-linejoin="bevel" stroke-miterlimit="10"/><path fill="none" stroke="black" paint-order="fill stroke markers" d=" M 737 555 L 737 551" stroke-linejoin="bevel" stroke-miterlimit="10"/><path fill="none" stroke="black" paint-order="fill stroke markers" d=" M 768 555 L 768 551" stroke-linejoin="bevel" stroke-miterlimit="10"/><path fill="none" stroke="black" paint-order="fill stroke markers" d=" M 799 555 L 799 551" stroke-linejoin="bevel" stroke-miterlimit="10"/><path fill="none" stroke="black" paint-order="fill stroke markers" d=" M 829 555 L 829 551" stroke-linejoin="bevel" stroke-miterlimit="10"/><path fill="none" stroke="black" paint-order="fill stroke markers" d=" M 860 555 L 860 551" stroke-linejoin="bevel" stroke-miterlimit="10"/><path fill="none" stroke="black" paint-order="fill stroke markers" d=" M 891 555 L 891 551" stroke-linejoin="bevel" stroke-miterlimit="10"/><path fill="none" stroke="black" paint-order="fill stroke markers" d=" M 922 555 L 922 551" stroke-linejoin="bevel" stroke-miterlimit="10"/><path fill="none" stroke="black" paint-order="fill stroke markers" d=" M 953 555 L 953 551" stroke-linejoin="bevel" stroke-miterlimit="10"/><path fill="" stroke="black" paint-order="fill stroke markers" d=" M 983 555 L 983 551" stroke-linejoin="bevel" stroke-miterlimit="10"/><g transform="translate(59,562) rotate(0,0,0)"><text fill="" stroke="none" font-family="helvetica" font-size="8pt" font-style="normal" font-weight="normal" text-decoration="normal" x="0" y="0" text-anchor="middle" dominant-baseline="hanging">0.999975</text><g transform="rotate(0,0,0) translate(-59,-562) translate(213,562) rotate(0,0,0)"><text fill="" stroke="none" font-family="helvetica" font-size="8pt" font-style="normal" font-weight="normal" text-decoration="normal" x="0" y="0" text-anchor="middle" dominant-baseline="hanging">0.99998</text><g transform="rotate(0,0,0) translate(-213,-562) translate(367,562) rotate(0,0,0)"><text fill="" stroke="none" font-family="helvetica" font-size="8pt" font-style="normal" font-weight="normal" text-decoration="normal" x="0" y="0" text-anchor="middle" dominant-baseline="hanging">0.999985</text><g transform="rotate(0,0,0) translate(-367,-562) translate(521,562) rotate(0,0,0)"><text fill="" stroke="none" font-family="helvetica" font-size="8pt" font-style="normal" font-weight="normal" text-decoration="normal" x="0" y="0" text-anchor="middle" dominant-baseline="hanging">0.99999</text><g transform="rotate(0,0,0) translate(-521,-562) translate(675,562) rotate(0,0,0)"><text fill="" stroke="none" font-family="helvetica" font-size="8pt" font-style="normal" font-weight="normal" text-decoration="normal" x="0" y="0" text-anchor="middle" dominant-baseline="hanging">0.999995</text><g transform="rotate(0,0,0) translate(-675,-562) translate(829,562) rotate(0,0,0)"><text fill="" stroke="none" font-family="helvetica" font-size="8pt" font-style="normal" font-weight="normal" text-decoration="normal" x="0" y="0" text-anchor="middle" dominant-baseline="hanging">1</text><g transform="rotate(0,0,0) translate(-829,-562) translate(983,562) rotate(0,0,0)"><text fill="" stroke="none" font-family="helvetica" font-size="8pt" font-style="normal" font-weight="normal" text-decoration="normal" x="0" y="0" text-anchor="middle" dominant-baseline="hanging">1.000005</text><g transform="rotate(0,0,0) translate(-983,-562) translate(522,582) rotate(0,0,0)"><text fill="" stroke="none" font-family="helvetica" font-size="10pt" font-style="italic" font-weight="normal" text-decoration="normal" x="0" y="0" text-anchor="middle" dominant-baseline="hanging">max Pase+ median score</text><g transform="rotate(0,0,0) translate(-522,-582)"/></g></g></g></g></g></g></g></g></g></g><g><g fill="#444444"><path fill="none" stroke="black" paint-order="fill stroke markers" d=" M 49 551 L 49 32" stroke-linejoin="bevel" stroke-miterlimit="10"/><path fill="none" stroke="black" paint-order="fill stroke markers" d=" M 43 477 L 51 477" stroke-linejoin="bevel" stroke-miterlimit="10"/><path fill="none" stroke="black" paint-order="fill stroke markers" d=" M 43 371 L 51 371" stroke-linejoin="bevel" stroke-miterlimit="10"/><path fill="none" stroke="black" paint-order="fill stroke markers" d=" M 43 266 L 51 266" stroke-linejoin="bevel" stroke-miterlimit="10"/><path fill="none" stroke="black" paint-order="fill stroke markers" d=" M 43 161 L 51 161" stroke-linejoin="bevel" stroke-miterlimit="10"/><path fill="none" stroke="black" paint-order="fill stroke markers" d=" M 43 56 L 51 56" stroke-linejoin="bevel" stroke-miterlimit="10"/><path fill="none" stroke="black" paint-order="fill stroke markers" d=" M 45 498 L 49 498" stroke-linejoin="bevel" stroke-miterlimit="10"/><path fill="none" stroke="black" paint-order="fill stroke markers" d=" M 45 519 L 49 519" stroke-linejoin="bevel" stroke-miterlimit="10"/><path fill="none" stroke="black" paint-order="fill stroke markers" d=" M 45 540 L 49 540" stroke-linejoin="bevel" stroke-miterlimit="10"/><path fill="none" stroke="black" paint-order="fill stroke markers" d=" M 45 477 L 49 477" stroke-linejoin="bevel" stroke-miterlimit="10"/><path fill="none" stroke="black" paint-order="fill stroke markers" d=" M 45 455 L 49 455" stroke-linejoin="bevel" stroke-miterlimit="10"/><path fill="none" stroke="black" paint-order="fill stroke markers" d=" M 45 434 L 49 434" stroke-linejoin="bevel" stroke-miterlimit="10"/><path fill="none" stroke="black" paint-order="fill stroke markers" d=" M 45 413 L 49 413" stroke-linejoin="bevel" stroke-miterlimit="10"/><path fill="none" stroke="black" paint-order="fill stroke markers" d=" M 45 392 L 49 392" stroke-linejoin="bevel" stroke-miterlimit="10"/><path fill="none" stroke="black" paint-order="fill stroke markers" d=" M 45 371 L 49 371" stroke-linejoin="bevel" stroke-miterlimit="10"/><path fill="none" stroke="black" paint-order="fill stroke markers" d=" M 45 350 L 49 350" stroke-linejoin="bevel" stroke-miterlimit="10"/><path fill="none" stroke="black" paint-order="fill stroke markers" d=" M 45 329 L 49 329" stroke-linejoin="bevel" stroke-miterlimit="10"/><path fill="none" stroke="black" paint-order="fill stroke markers" d=" M 45 308 L 49 308" stroke-linejoin="bevel" stroke-miterlimit="10"/><path fill="none" stroke="black" paint-order="fill stroke markers" d=" M 45 287 L 49 287" stroke-linejoin="bevel" stroke-miterlimit="10"/><path fill="none" stroke="black" paint-order="fill stroke markers" d=" M 45 266 L 49 266" stroke-linejoin="bevel" stroke-miterlimit="10"/><path fill="none" stroke="black" paint-order="fill stroke markers" d=" M 45 245 L 49 245" stroke-linejoin="bevel" stroke-miterlimit="10"/><path fill="none" stroke="black" paint-order="fill stroke markers" d=" M 45 224 L 49 224" stroke-linejoin="bevel" stroke-miterlimit="10"/><path fill="none" stroke="black" paint-order="fill stroke markers" d=" M 45 203 L 49 203" stroke-linejoin="bevel" stroke-miterlimit="10"/><path fill="none" stroke="black" paint-order="fill stroke markers" d=" M 45 182 L 49 182" stroke-linejoin="bevel" stroke-miterlimit="10"/><path fill="none" stroke="black" paint-order="fill stroke markers" d=" M 45 161 L 49 161" stroke-linejoin="bevel" stroke-miterlimit="10"/><path fill="none" stroke="black" paint-order="fill stroke markers" d=" M 45 140 L 49 140" stroke-linejoin="bevel" stroke-miterlimit="10"/><path fill="none" stroke="black" paint-order="fill stroke markers" d=" M 45 119 L 49 119" stroke-linejoin="bevel" stroke-miterlimit="10"/><path fill="none" stroke="black" paint-order="fill stroke markers" d=" M 45 98 L 49 98" stroke-linejoin="bevel" stroke-miterlimit="10"/><path fill="none" stroke="black" paint-order="fill stroke markers" d=" M 45 77 L 49 77" stroke-linejoin="bevel" stroke-miterlimit="10"/><path fill="none" stroke="black" paint-order="fill stroke markers" d=" M 45 56 L 49 56" stroke-linejoin="bevel" stroke-miterlimit="10"/><path fill="" stroke="black" paint-order="fill stroke markers" d=" M 45 35 L 49 35" stroke-linejoin="bevel" stroke-miterlimit="10"/><g transform="translate(38,477) rotate(0,0,0)"><text fill="" stroke="none" font-family="helvetica" font-size="8pt" font-style="normal" font-weight="normal" text-decoration="normal" x="0" y="0" text-anchor="end" dominant-baseline="central">2</text><g transform="rotate(0,0,0) translate(-38,-477) translate(38,371) rotate(0,0,0)"><text fill="" stroke="none" font-family="helvetica" font-size="8pt" font-style="normal" font-weight="normal" text-decoration="normal" x="0" y="0" text-anchor="end" dominant-baseline="central">4</text><g transform="rotate(0,0,0) translate(-38,-371) translate(38,266) rotate(0,0,0)"><text fill="" stroke="none" font-family="helvetica" font-size="8pt" font-style="normal" font-weight="normal" text-decoration="normal" x="0" y="0" text-anchor="end" dominant-baseline="central">6</text><g transform="rotate(0,0,0) translate(-38,-266) translate(38,161) rotate(0,0,0)"><text fill="" stroke="none" font-family="helvetica" font-size="8pt" font-style="normal" font-weight="normal" text-decoration="normal" x="0" y="0" text-anchor="end" dominant-baseline="central">8</text><g transform="rotate(0,0,0) translate(-38,-161) translate(38,56) rotate(0,0,0)"><text fill="" stroke="none" font-family="helvetica" font-size="8pt" font-style="normal" font-weight="normal" text-decoration="normal" x="0" y="0" text-anchor="end" dominant-baseline="central">10</text><g transform="rotate(0,0,0) translate(-38,-56) translate(18,292) rotate(-90,0,0)"><text fill="" stroke="none" font-family="helvetica" font-size="10pt" font-style="italic" font-weight="normal" text-decoration="normal" x="0" y="0" text-anchor="middle" dominant-baseline="alphabetic">Severity</text><g transform="rotate(90,0,0) translate(-18,-292)"/></g></g></g></g></g></g></g></g><g clip-path="url(#suFNnvAAylyq)"><g/></g></g></g></svg>